<svg width="256" height="256" viewBox="0 0 256 256" class="icon">
  <path d="M227.368421,59.2631579 L28.6315789,59.2631579 C18.341642,59.2631579 10,50.9215159 10,40.6315789 C10,30.341642 18.341642,22 28.6315789,22 L227.368421,22 C237.658358,22 246,30.341642 246,40.6315789 C246,50.9215159 237.658358,59.2631579 227.368421,59.2631579 Z" />
  <path d="M227.368421,146.210526 L28.6315789,146.210526 C18.3416423,146.210526 10.0000008,137.868884 10.0000008,127.578947 C10.0000008,117.289011 18.3416423,108.947369 28.6315789,108.947368 L227.368421,108.947368 C237.658358,108.947368 246,117.28901 246,127.578947 C246,137.868884 237.658358,146.210526 227.368421,146.210526 L227.368421,146.210526 Z" />
  <path d="M227.368421,233.157895 L28.6315789,233.157895 C18.341642,233.157895 10,224.816253 10,214.526316 C10,204.236379 18.341642,195.894737 28.6315789,195.894737 L227.368421,195.894737 C237.658358,195.894737 246,204.236379 246,214.526316 C246,224.816253 237.658358,233.157895 227.368421,233.157895 Z" />
</svg>
