<svg width="256" height="256" viewBox="0 0 256 256" class="icon">
  <path d="M240.651341,53.2988818 C236.943869,54.9432635 233.132101,56.3310912 229.237353,57.4577972 C233.848473,52.2429756 237.3641,46.1069957 239.510171,39.392437 C239.991305,37.887371 239.492661,36.2399441 238.255568,35.255599 C237.019998,34.2704925 235.303294,34.1524929 233.942873,34.9586967 C225.671481,39.8644355 216.747665,43.3899594 207.390676,45.4515268 C197.965171,36.2414667 185.163355,31 171.929128,31 C143.993671,31 121.266184,53.7267255 121.266184,81.6614211 C121.266184,83.8615429 121.4055,86.0494841 121.681086,88.2069738 C87.0158446,85.1633451 54.788247,68.1249622 32.6576098,40.9781996 C31.8689156,40.0106027 30.6539002,39.4891206 29.4099559,39.5888493 C28.1652503,39.6862941 27.0469185,40.3882015 26.4180948,41.4669463 C21.9295417,49.1688953 19.5566076,57.9777568 19.5566076,66.9403984 C19.5566076,79.1476487 23.9149804,90.7298817 31.6138842,99.7800714 C29.2729241,98.9692999 27.0012412,97.9560258 24.8330935,96.7524297 C23.6690844,96.1045738 22.2485213,96.1144705 21.0921251,96.7775522 C19.9349676,97.4406339 19.2094603,98.660217 19.1790088,99.993232 C19.1736798,100.217812 19.1736798,100.442392 19.1736798,100.670017 C19.1736798,118.891441 28.9805896,135.296432 43.9741534,144.237758 C42.6860544,144.1091 41.3987166,143.922585 40.1197531,143.678211 C38.8012026,143.426225 37.445349,143.888327 36.5561648,144.893988 C35.665458,145.898888 35.3708396,147.299658 35.7811738,148.578621 C41.330962,165.905532 55.6195733,178.650252 72.8931941,182.535865 C58.5665185,191.509164 42.1828431,196.209355 24.9838285,196.209355 C21.3951177,196.209355 17.7858521,195.998479 14.2534766,195.580532 C12.4987081,195.371939 10.8208297,196.408052 10.2232188,198.076794 C9.62560785,199.746299 10.2589993,201.607647 11.7518848,202.564586 C33.8467414,216.731391 59.3947996,224.219419 85.6325846,224.219419 C137.21288,224.219419 169.480065,199.896272 187.46549,179.491475 C209.893029,154.048474 222.755748,120.371385 222.755748,87.0962549 C222.755748,85.7061433 222.734432,84.3023286 222.6918,82.9030815 C231.540248,76.236484 239.158456,68.1683556 245.357623,58.8951086 C246.299336,57.4867261 246.197323,55.6253774 245.106398,54.3289042 C244.016995,53.0316697 242.201323,52.6122002 240.651341,53.2988818 Z" />
</svg>
