<?xml version="1.0" encoding="utf-8"?>
<!-- Generator: Adobe Illustrator 21.0.0, SVG Export Plug-In . SVG Version: 6.00 Build 0)  -->
<svg version="1.1" id="Layer_1" xmlns="http://www.w3.org/2000/svg" xmlns:xlink="http://www.w3.org/1999/xlink" x="0px" y="0px"
	 viewBox="0 0 58 62" style="enable-background:new 0 0 58 62;" xml:space="preserve">
<style type="text/css">
	.st0{fill:#2AB6CC;}
	.st1{fill:#83C6AE;}
	.st2{fill:#2A7C7C;}
</style>
<path class="st0" d="M36.6,21.2l3.7,9.8c1.8,4.8-1.8,10-6.9,10H24c-0.9,0-1.7-0.1-2.6-0.2L29,61h4.5c10.8,0,20.1-8.4,20.5-19.3
	C54.4,31.2,46.6,22.5,36.6,21.2z"/>
<path class="st1" d="M24.7,21H34c0.9,0,1.7,0.1,2.6,0.2L29,1h-4.5C13.6,1,4.4,9.4,4,20.3c-0.4,10.5,7.4,19.3,17.4,20.5L17.8,31
	C15.9,26.2,19.5,21,24.7,21z"/>
<path class="st2" d="M33.3,41c5.2,0,8.8-5.2,6.9-10l-3.7-9.8C35.7,21.1,34.9,21,34,21h-9.3c-5.2,0-8.8,5.2-6.9,10l3.7,9.8
	c0.8,0.1,1.7,0.2,2.6,0.2H33.3z"/>
<circle class="st0" cx="11" cy="51" r="10"/>
<circle class="st1" cx="47" cy="11" r="10"/>
</svg>
