<svg width="2400" height="1260" viewBox="0 0 2400 1260" fill="none" xmlns="http://www.w3.org/2000/svg">
<g clip-path="url(#clip0_346_459)">
<rect width="2400" height="1260" fill="#EEA2BF"/>
<path opacity="0.25" d="M1200.5 321.575C1126.48 321.575 1063.35 296.553 1011.1 246.509C961.035 196.464 936 130.101 936 47.4195C936 -35.2623 961.035 -101.626 1011.1 -151.67C1063.35 -203.89 1126.48 -230 1200.5 -230C1274.52 -230 1336.56 -203.89 1386.63 -151.67C1438.88 -101.626 1465 -35.2623 1465 47.4195C1465 130.101 1438.88 196.464 1386.63 246.509C1336.56 296.553 1274.52 321.575 1200.5 321.575ZM1200.5 1490C1126.48 1490 1063.35 1464.98 1011.1 1414.93C961.035 1364.89 936 1298.53 936 1215.84C936 1133.16 961.035 1066.8 1011.1 1016.76C1063.35 964.535 1126.48 938.425 1200.5 938.425C1274.52 938.425 1336.56 964.535 1386.63 1016.76C1438.88 1066.8 1465 1133.16 1465 1215.84C1465 1298.53 1438.88 1364.89 1386.63 1414.93C1336.56 1464.98 1274.52 1490 1200.5 1490Z" fill="#051C28"/>
<path opacity="0.25" d="M1508.42 630.5C1508.42 556.483 1533.45 493.352 1583.49 441.105C1633.54 391.035 1699.9 366 1782.58 366C1865.26 366 1931.63 391.035 1981.67 441.105C2033.89 493.352 2060 556.484 2060 630.5C2060 704.516 2033.89 766.56 1981.67 816.63C1931.63 868.877 1865.26 895 1782.58 895C1699.9 895 1633.54 868.877 1583.49 816.63C1533.45 766.56 1508.42 704.516 1508.42 630.5ZM340 630.5C340 556.483 365.022 493.352 415.067 441.105C465.111 391.035 531.474 366 614.156 366C696.838 366 763.2 391.035 813.245 441.105C865.465 493.352 891.575 556.483 891.575 630.5C891.575 704.516 865.465 766.56 813.245 816.63C763.2 868.876 696.838 895 614.156 895C531.474 895 465.111 868.876 415.067 816.63C365.022 766.56 340 704.516 340 630.5Z" fill="#051C28"/>
</g>
<defs>
<clipPath id="clip0_346_459">
<rect width="2400" height="1260" fill="white"/>
</clipPath>
</defs>
</svg>
