<svg width="2400" height="1260" viewBox="0 0 2400 1260" fill="none" xmlns="http://www.w3.org/2000/svg">
<g clip-path="url(#clip0_346_482)">
<rect width="2400" height="1260" fill="#EEA2BF"/>
<path opacity="0.25" d="M1423.51 2228.65C1279.44 2294.27 1139.48 2331.55 1003.62 2340.49C867.769 2349.42 742.008 2334.85 626.34 2296.78C509.246 2255.57 405.237 2193.28 314.314 2109.9C221.965 2023.39 147.973 1919.06 92.3383 1796.92C46.6893 1696.7 19.4137 1599.45 10.5117 1505.19C3.31496 1406.36 9.08053 1311.08 27.8083 1219.36C48.2414 1123.07 77.7916 1030.2 116.459 940.733C158.258 849.843 203.049 761.371 250.833 675.318C129.706 575.443 23.2472 474.559 -68.5444 372.666C-157.204 269.347 -226.498 162.88 -276.427 53.264C-323.502 -50.088 -352.065 -154.309 -362.115 -259.399C-369.033 -365.916 -357.716 -465.611 -328.166 -558.486C-296.911 -655.918 -247.56 -742.685 -180.116 -818.785C-114.098 -898.016 -27.8455 -961.884 78.6413 -1010.39C282.219 -1103.11 465.208 -1116.5 627.608 -1050.55C790.008 -984.604 914.004 -857.672 999.596 -669.76C1045.25 -569.54 1067.82 -470.156 1067.33 -371.608C1066.84 -273.06 1051.67 -173.504 1021.84 -72.9398C995.148 26.1982 957.628 126.484 909.286 227.918C862.65 324.793 813.734 420.815 762.539 515.985C917.56 615.549 1086.81 704.849 1270.3 783.883C1456.92 861.491 1641.68 926.711 1824.58 979.543C1871.05 674.75 1858.69 336.253 1787.48 -35.9487L2214.99 -230.675C2295.66 220.414 2301.41 656.467 2232.23 1077.48C2353.02 1101.88 2465.68 1116.75 2570.21 1122.07C2674.75 1127.4 2770.3 1125.48 2856.88 1116.29L2912.76 1550.31C2678.94 1584.96 2411.48 1570.65 2110.38 1507.37C2044.7 1662.08 1957.23 1802.14 1847.95 1927.54C1737.25 2049.82 1595.77 2150.19 1423.51 2228.65ZM116.061 -131.181C151.724 -52.8845 199.062 21.9852 258.076 93.4281C317.089 164.871 386.925 235.166 467.583 304.313C549.787 160.985 612.486 24.6493 655.679 -104.692C700.578 -238.593 693.784 -369.746 635.296 -498.153C596.78 -582.714 543.612 -645.474 475.792 -686.435C409.678 -731.954 328.076 -732.601 230.985 -688.378C137.026 -645.581 79.6907 -572.194 58.9787 -468.219C41.3986 -365.671 60.4259 -253.325 116.061 -131.181ZM1308.28 1838.68C1395.98 1798.74 1471.98 1741.43 1536.29 1666.75C1600.61 1592.08 1655.37 1504.74 1700.58 1404.73C1504 1346.78 1308.7 1275.02 1114.67 1189.45C923.774 1102.44 743.263 1005.03 573.14 897.222C524.24 1014.04 491.574 1129.13 475.142 1242.5C460.415 1351.31 477.302 1458.96 525.804 1565.44C598.557 1725.17 708.009 1828.47 854.16 1875.35C1003.44 1920.81 1154.82 1908.58 1308.28 1838.68Z" fill="#051C28"/>
</g>
<defs>
<clipPath id="clip0_346_482">
<rect width="2400" height="1260" fill="white"/>
</clipPath>
</defs>
</svg>
