<svg width="2400" height="1260" viewBox="0 0 2400 1260" fill="none" xmlns="http://www.w3.org/2000/svg">
<g clip-path="url(#clip0_346_451)">
<rect width="2400" height="1260" fill="#EEA2BF"/>
<path opacity="0.25" d="M1520.71 2547C1337.42 2547 1163.44 2506.55 998.793 2425.64C834.141 2347.85 689.682 2231.16 565.417 2075.58C441.151 1923.11 341.738 1731.74 267.179 1501.48C195.726 1271.21 160 1006.72 160 707.996C160 409.275 194.173 147.894 262.519 -76.1474C333.972 -300.188 431.831 -486.89 556.097 -636.25C680.362 -785.611 824.821 -897.631 989.473 -972.312C1157.23 -1050.1 1337.42 -1089 1530.03 -1089C1691.57 -1089 1831.37 -1060.99 1949.42 -1004.98C2067.48 -948.974 2165.34 -871.182 2243 -771.608C2320.67 -672.035 2378.14 -553.791 2415.42 -416.877C2455.81 -283.074 2476 -136.825 2476 21.8704V1408.12H2243L2210.38 1137.41H2191.74C2123.4 1224.54 2033.3 1300.77 1921.46 1366.12C1812.73 1431.46 1697.79 1464.13 1576.63 1464.13C1492.75 1464.13 1413.53 1450.13 1338.97 1422.13C1267.52 1394.12 1203.83 1353.67 1147.91 1300.77C1095.1 1247.87 1053.16 1184.08 1022.09 1109.4C991.026 1031.61 975.493 946.04 975.493 852.689C975.493 613.09 1081.12 432.612 1292.37 311.257C1503.62 189.901 1808.07 104.33 2205.72 54.5431V-10.8021C2205.72 -122.823 2191.74 -228.62 2163.78 -328.194C2138.93 -427.768 2098.54 -514.895 2042.62 -589.575C1986.7 -664.255 1913.7 -723.377 1823.61 -766.941C1736.62 -810.504 1632.55 -832.286 1511.39 -832.286C1371.59 -832.286 1238 -799.614 1110.63 -734.268C983.26 -668.923 869.867 -570.905 770.455 -440.214C674.149 -312.635 596.483 -150.828 537.457 45.2079C481.537 238.132 453.577 463.729 453.577 721.999C453.577 970.933 481.537 1193.42 537.457 1389.45C593.376 1582.38 669.489 1745.74 765.795 1879.54C862.101 2013.35 975.493 2114.48 1105.97 2182.93C1236.45 2254.5 1377.8 2290.29 1530.03 2290.29C1669.83 2290.29 1790.99 2271.62 1893.51 2234.28C1999.13 2200.05 2096.99 2148.7 2187.08 2080.25L2317.56 2290.29C2196.4 2374.3 2072.14 2438.09 1944.76 2481.66C1817.39 2525.22 1676.04 2547 1520.71 2547ZM1655.85 1193.42C1829.82 1193.42 2003.79 1093.84 2177.76 894.697V306.589C1854.67 350.153 1624.78 415.498 1488.09 502.625C1351.4 586.641 1283.05 700.217 1283.05 843.354C1283.05 952.263 1315.67 1037.83 1380.91 1100.07C1449.26 1162.3 1540.9 1193.42 1655.85 1193.42Z" fill="#051C28"/>
</g>
<defs>
<clipPath id="clip0_346_451">
<rect width="2400" height="1260" fill="white"/>
</clipPath>
</defs>
</svg>
