<svg width="2400" height="1260" viewBox="0 0 2400 1260" fill="none" xmlns="http://www.w3.org/2000/svg">
<g clip-path="url(#clip0_346_557)">
<rect width="2400" height="1260" fill="#EAECED"/>
<path opacity="0.5" d="M-908.818 1590.93L421.602 1123.17L18.9297 310.758L-1311.49 778.513L-1476.22 446.162L-145.8 -21.593L-389.843 -513.965L-39.4178 -687.653L225.98 -152.199L1190.77 -492.395L931.471 -1015.54L1288.04 -1192.28L1568.69 -626.049L2763.91 -1042.12L2925.59 -715.927L1733.42 -293.698L2136.1 518.716L3331.31 102.641L3492.99 428.837L2300.83 851.066L2544.87 1343.44L2188.3 1520.17L1922.9 984.719L958.111 1324.92L1217.41 1848.06L866.981 2021.75L586.331 1455.52L-744.088 1923.28L-908.818 1590.93ZM793.381 992.565L1758.17 652.369L1355.5 -160.045L390.709 180.152L793.381 992.565Z" fill="#EEA2BF"/>
</g>
<defs>
<clipPath id="clip0_346_557">
<rect width="2400" height="1260" fill="white"/>
</clipPath>
</defs>
</svg>
