<svg width="2400" height="1260" viewBox="0 0 2400 1260" fill="none" xmlns="http://www.w3.org/2000/svg">
<g>
<rect width="2400" height="1260" fill="#EAECED"/>
<path d="M215.471 188.363L214.644 186.234C215.502 185.926 216.327 185.537 217.117 185.067C217.902 184.571 218.586 183.911 219.169 183.088C219.741 182.28 220.012 181.557 219.983 180.919C219.965 180.266 219.689 179.75 219.156 179.373C218.729 179.071 218.247 178.993 217.709 179.139C217.172 179.284 216.6 179.543 215.994 179.915C215.398 180.271 214.771 180.673 214.111 181.121C213.451 181.569 212.78 181.952 212.097 182.27C211.41 182.562 210.722 182.727 210.032 182.764C209.342 182.802 208.662 182.584 207.991 182.11C207.016 181.419 206.453 180.518 206.303 179.405C206.163 178.277 206.424 177.1 207.085 175.875L204.09 173.756L205.206 172.179L208.178 174.282C208.837 173.512 209.533 172.964 210.268 172.638C210.998 172.285 211.753 172.042 212.534 171.908L213.035 174.012C212.653 174.131 212.3 174.259 211.975 174.395C211.635 174.52 211.32 174.674 211.029 174.858C210.739 175.042 210.461 175.257 210.196 175.503C209.93 175.75 209.667 176.056 209.408 176.422C208.912 177.123 208.671 177.787 208.685 178.414C208.694 179.015 208.965 179.505 209.499 179.882C209.88 180.152 210.324 180.203 210.831 180.036C211.323 179.858 211.859 179.585 212.439 179.218C213.03 178.835 213.655 178.42 214.315 177.972C214.971 177.498 215.642 177.115 216.329 176.823C217.026 176.516 217.735 176.355 218.456 176.338C219.161 176.311 219.864 176.546 220.565 177.042C221.556 177.743 222.133 178.689 222.297 179.88C222.445 181.06 222.159 182.321 221.437 183.664L224.798 186.041L223.682 187.619L220.367 185.274C219.708 186.043 218.944 186.703 218.074 187.254C217.188 187.794 216.321 188.164 215.471 188.363Z" fill="#01A791"/>
<path d="M769.316 168.475L770.371 166.45C771.169 166.892 772.004 167.255 772.879 167.539C773.77 167.802 774.717 167.881 775.72 167.776C776.704 167.673 777.427 167.4 777.887 166.958C778.367 166.513 778.572 165.966 778.504 165.316C778.45 164.796 778.19 164.383 777.726 164.074C777.262 163.766 776.69 163.507 776.011 163.297C775.351 163.084 774.634 162.878 773.862 162.677C773.09 162.476 772.36 162.224 771.671 161.921C770.999 161.597 770.421 161.189 769.937 160.695C769.454 160.201 769.169 159.546 769.084 158.729C768.959 157.541 769.265 156.523 770.003 155.676C770.759 154.827 771.815 154.247 773.172 153.936L772.79 150.287L774.712 150.086L775.091 153.707C776.104 153.695 776.975 153.857 777.705 154.193C778.451 154.509 779.132 154.917 779.748 155.415L778.496 157.18C778.155 156.971 777.827 156.79 777.51 156.635C777.192 156.462 776.868 156.327 776.538 156.23C776.209 156.133 775.864 156.066 775.503 156.029C775.143 155.992 774.74 155.996 774.294 156.043C773.44 156.132 772.781 156.389 772.319 156.813C771.873 157.216 771.684 157.743 771.752 158.393C771.801 158.857 772.055 159.225 772.515 159.496C772.973 159.748 773.532 159.971 774.191 160.165C774.868 160.357 775.592 160.553 776.364 160.754C777.153 160.934 777.884 161.186 778.556 161.51C779.247 161.831 779.836 162.258 780.323 162.789C780.809 163.301 781.096 163.984 781.186 164.838C781.312 166.045 780.982 167.103 780.195 168.011C779.405 168.901 778.268 169.518 776.784 169.861L777.212 173.955L775.29 174.157L774.867 170.118C773.855 170.13 772.854 169.991 771.866 169.7C770.877 169.391 770.026 168.983 769.316 168.475Z" fill="#01A791"/>
<path d="M1442.26 219.8L1440.34 221.042C1439.87 220.264 1439.32 219.536 1438.7 218.857C1438.05 218.189 1437.27 217.653 1436.34 217.249C1435.44 216.853 1434.67 216.734 1434.05 216.892C1433.42 217.042 1432.97 217.417 1432.71 218.016C1432.5 218.495 1432.52 218.983 1432.77 219.48C1433.02 219.976 1433.39 220.484 1433.88 221.002C1434.35 221.513 1434.87 222.046 1435.44 222.601C1436.02 223.157 1436.53 223.736 1436.98 224.34C1437.4 224.953 1437.7 225.594 1437.88 226.262C1438.06 226.93 1437.98 227.64 1437.65 228.393C1437.17 229.488 1436.41 230.222 1435.35 230.595C1434.27 230.96 1433.06 230.944 1431.73 230.545L1430.26 233.907L1428.49 233.134L1429.95 229.798C1429.06 229.309 1428.38 228.738 1427.92 228.085C1427.42 227.442 1427.03 226.752 1426.74 226.014L1428.7 225.097C1428.89 225.446 1429.09 225.766 1429.29 226.057C1429.48 226.365 1429.7 226.642 1429.93 226.889C1430.17 227.136 1430.44 227.364 1430.74 227.575C1431.03 227.785 1431.38 227.98 1431.79 228.159C1432.58 228.503 1433.28 228.604 1433.89 228.463C1434.48 228.333 1434.9 227.968 1435.16 227.369C1435.35 226.941 1435.31 226.496 1435.04 226.033C1434.77 225.588 1434.4 225.118 1433.92 224.624C1433.42 224.123 1432.89 223.595 1432.32 223.04C1431.72 222.494 1431.21 221.915 1430.78 221.301C1430.34 220.68 1430.04 220.019 1429.88 219.317C1429.71 218.632 1429.8 217.896 1430.14 217.108C1430.62 215.996 1431.43 215.239 1432.57 214.837C1433.69 214.453 1434.98 214.477 1436.45 214.911L1438.09 211.138L1439.86 211.911L1438.24 215.633C1439.13 216.122 1439.93 216.736 1440.64 217.477C1441.35 218.234 1441.89 219.009 1442.26 219.8Z" fill="#01A791"/>
<path d="M1830.02 240.775L1828.84 238.821C1829.63 238.37 1830.38 237.844 1831.07 237.244C1831.76 236.62 1832.32 235.852 1832.75 234.94C1833.18 234.046 1833.32 233.287 1833.18 232.664C1833.05 232.023 1832.69 231.563 1832.1 231.284C1831.63 231.06 1831.14 231.066 1830.63 231.303C1830.13 231.539 1829.61 231.893 1829.08 232.364C1828.55 232.818 1828 233.322 1827.43 233.877C1826.86 234.433 1826.26 234.926 1825.65 235.357C1825.02 235.763 1824.37 236.044 1823.7 236.201C1823.02 236.357 1822.32 236.26 1821.57 235.908C1820.49 235.397 1819.78 234.606 1819.44 233.536C1819.11 232.449 1819.17 231.245 1819.6 229.924L1816.29 228.354L1817.12 226.608L1820.41 228.166C1820.92 227.294 1821.51 226.634 1822.18 226.185C1822.84 225.712 1823.54 225.342 1824.29 225.075L1825.14 227.061C1824.79 227.244 1824.46 227.431 1824.17 227.621C1823.85 227.803 1823.57 228.01 1823.31 228.241C1823.06 228.472 1822.82 228.731 1822.6 229.02C1822.39 229.309 1822.18 229.656 1821.99 230.061C1821.62 230.837 1821.5 231.533 1821.62 232.149C1821.73 232.739 1822.08 233.174 1822.67 233.454C1823.1 233.654 1823.54 233.627 1824.01 233.375C1824.47 233.114 1824.95 232.753 1825.46 232.291C1825.97 231.813 1826.52 231.295 1827.09 230.74C1827.65 230.16 1828.25 229.667 1828.87 229.261C1829.51 228.838 1830.18 228.556 1830.88 228.416C1831.57 228.267 1832.31 228.377 1833.08 228.744C1834.18 229.264 1834.91 230.096 1835.28 231.24C1835.63 232.377 1835.57 233.669 1835.09 235.116L1838.81 236.877L1837.98 238.624L1834.31 236.886C1833.8 237.758 1833.16 238.54 1832.39 239.233C1831.62 239.918 1830.82 240.432 1830.02 240.775Z" fill="#01A791"/>
<path d="M78.7523 1046.34L79.1923 1044.1C80.0821 1044.3 80.9865 1044.41 81.9056 1044.43C82.835 1044.44 83.7658 1044.24 84.6981 1043.86C85.6131 1043.48 86.2291 1043.02 86.5459 1042.46C86.88 1041.9 86.9225 1041.32 86.6736 1040.71C86.4745 1040.23 86.1089 1039.91 85.5766 1039.74C85.0444 1039.58 84.4229 1039.49 83.7119 1039.48C83.0182 1039.46 82.2727 1039.47 81.4755 1039.49C80.6782 1039.52 79.9063 1039.48 79.1598 1039.39C78.4235 1039.27 77.7536 1039.04 77.1503 1038.7C76.547 1038.36 76.0888 1037.81 75.7759 1037.06C75.3208 1035.95 75.3273 1034.89 75.7954 1033.87C76.2807 1032.84 77.1302 1031.98 78.3438 1031.3L76.9464 1027.91L78.7334 1027.17L80.1201 1030.54C81.088 1030.24 81.9695 1030.15 82.7648 1030.27C83.5702 1030.36 84.3386 1030.56 85.0699 1030.86L84.3678 1032.91C83.9818 1032.81 83.6152 1032.73 83.2678 1032.67C82.9133 1032.59 82.5645 1032.55 82.2212 1032.55C81.8779 1032.55 81.528 1032.59 81.1715 1032.65C80.815 1032.72 80.4296 1032.84 80.0153 1033.01C79.2211 1033.33 78.662 1033.77 78.3381 1034.3C78.0243 1034.82 77.9919 1035.38 78.2408 1035.98C78.4186 1036.41 78.7664 1036.69 79.2844 1036.82C79.7953 1036.93 80.394 1036.99 81.0806 1036.99C81.7844 1036.98 82.535 1036.97 83.3323 1036.94C84.1397 1036.89 84.9116 1036.93 85.6479 1037.05C86.4016 1037.16 87.0871 1037.4 87.7047 1037.77C88.3151 1038.13 88.7839 1038.7 89.111 1039.5C89.5733 1040.62 89.5551 1041.73 89.0566 1042.82C88.5509 1043.9 87.6344 1044.81 86.307 1045.56L87.8751 1049.37L86.0882 1050.1L84.5414 1046.35C83.5736 1046.64 82.5747 1046.79 81.5449 1046.79C80.5079 1046.78 79.577 1046.63 78.7523 1046.34Z" fill="#01A791"/>
<path d="M779.752 1033.21L780.192 1030.97C781.082 1031.17 781.986 1031.28 782.906 1031.3C783.835 1031.3 784.766 1031.11 785.698 1030.73C786.613 1030.35 787.229 1029.89 787.546 1029.33C787.88 1028.77 787.923 1028.19 787.674 1027.58C787.475 1027.1 787.109 1026.78 786.577 1026.61C786.044 1026.45 785.423 1026.36 784.712 1026.35C784.018 1026.33 783.273 1026.34 782.475 1026.36C781.678 1026.39 780.906 1026.35 780.16 1026.26C779.423 1026.14 778.754 1025.91 778.15 1025.57C777.547 1025.23 777.089 1024.68 776.776 1023.93C776.321 1022.82 776.327 1021.76 776.795 1020.74C777.281 1019.71 778.13 1018.85 779.344 1018.17L777.946 1014.78L779.733 1014.04L781.12 1017.41C782.088 1017.11 782.97 1017.02 783.765 1017.14C784.57 1017.23 785.339 1017.43 786.07 1017.73L785.368 1019.78C784.982 1019.68 784.615 1019.6 784.268 1019.54C783.913 1019.46 783.564 1019.42 783.221 1019.42C782.878 1019.42 782.528 1019.46 782.172 1019.52C781.815 1019.59 781.43 1019.71 781.015 1019.88C780.221 1020.2 779.662 1020.64 779.338 1021.17C779.024 1021.69 778.992 1022.24 779.241 1022.85C779.419 1023.28 779.766 1023.56 780.284 1023.69C780.795 1023.8 781.394 1023.86 782.081 1023.86C782.784 1023.85 783.535 1023.84 784.332 1023.81C785.14 1023.76 785.912 1023.8 786.648 1023.92C787.402 1024.03 788.087 1024.27 788.705 1024.64C789.315 1025 789.784 1025.57 790.111 1026.37C790.573 1027.49 790.555 1028.6 790.057 1029.69C789.551 1030.77 788.634 1031.68 787.307 1032.43L788.875 1036.24L787.088 1036.97L785.541 1033.22C784.574 1033.51 783.575 1033.66 782.545 1033.66C781.508 1033.65 780.577 1033.5 779.752 1033.21Z" fill="#01A791"/>
<path d="M1476.83 935.513L1479.06 935.976C1478.86 936.863 1478.73 937.767 1478.7 938.685C1478.69 939.615 1478.87 940.547 1479.25 941.483C1479.62 942.402 1480.07 943.023 1480.63 943.345C1481.18 943.685 1481.77 943.733 1482.37 943.49C1482.86 943.296 1483.19 942.934 1483.36 942.403C1483.53 941.873 1483.62 941.252 1483.64 940.541C1483.66 939.848 1483.66 939.102 1483.65 938.305C1483.63 937.507 1483.67 936.736 1483.78 935.99C1483.9 935.255 1484.14 934.587 1484.48 933.987C1484.82 933.388 1485.38 932.935 1486.14 932.63C1487.25 932.186 1488.31 932.203 1489.33 932.681C1490.35 933.176 1491.2 934.034 1491.87 935.255L1495.27 933.891L1495.99 935.686L1492.61 937.039C1492.9 938.009 1492.98 938.892 1492.86 939.686C1492.76 940.49 1492.55 941.257 1492.24 941.985L1490.2 941.262C1490.31 940.878 1490.39 940.512 1490.45 940.165C1490.53 939.811 1490.58 939.463 1490.58 939.119C1490.58 938.776 1490.55 938.426 1490.49 938.069C1490.43 937.712 1490.31 937.325 1490.15 936.909C1489.83 936.112 1489.4 935.548 1488.87 935.219C1488.36 934.9 1487.8 934.862 1487.19 935.105C1486.76 935.279 1486.47 935.624 1486.34 936.14C1486.22 936.65 1486.16 937.248 1486.15 937.935C1486.15 938.639 1486.16 939.389 1486.18 940.187C1486.22 940.995 1486.18 941.766 1486.05 942.501C1485.93 943.254 1485.68 943.937 1485.3 944.551C1484.94 945.157 1484.36 945.621 1483.57 945.94C1482.44 946.391 1481.33 946.362 1480.24 945.852C1479.17 945.336 1478.27 944.41 1477.53 943.075L1473.71 944.605L1472.99 942.811L1476.76 941.302C1476.47 940.331 1476.33 939.331 1476.34 938.301C1476.37 937.264 1476.53 936.335 1476.83 935.513Z" fill="#01A791"/>
<path d="M1955.79 1236.96L1953.56 1236.47C1953.78 1235.58 1953.92 1234.68 1953.96 1233.76C1953.98 1232.83 1953.81 1231.9 1953.45 1230.96C1953.1 1230.03 1952.65 1229.41 1952.1 1229.08C1951.54 1228.73 1950.96 1228.68 1950.35 1228.91C1949.86 1229.1 1949.53 1229.46 1949.36 1229.99C1949.18 1230.51 1949.08 1231.13 1949.05 1231.84C1949.02 1232.54 1949.01 1233.28 1949.01 1234.08C1949.02 1234.88 1948.97 1235.65 1948.85 1236.39C1948.72 1237.13 1948.47 1237.79 1948.12 1238.39C1947.77 1238.98 1947.21 1239.43 1946.44 1239.72C1945.33 1240.15 1944.27 1240.12 1943.26 1239.63C1942.24 1239.12 1941.41 1238.25 1940.75 1237.02L1937.33 1238.34L1936.63 1236.54L1940.03 1235.23C1939.76 1234.25 1939.69 1233.37 1939.82 1232.58C1939.93 1231.78 1940.15 1231.01 1940.47 1230.29L1942.5 1231.04C1942.39 1231.42 1942.3 1231.78 1942.23 1232.13C1942.15 1232.48 1942.1 1232.83 1942.09 1233.17C1942.08 1233.52 1942.11 1233.87 1942.17 1234.23C1942.22 1234.58 1942.33 1234.97 1942.5 1235.39C1942.8 1236.19 1943.22 1236.76 1943.75 1237.1C1944.26 1237.42 1944.82 1237.47 1945.43 1237.23C1945.86 1237.06 1946.15 1236.72 1946.29 1236.21C1946.42 1235.7 1946.49 1235.1 1946.5 1234.42C1946.51 1233.71 1946.51 1232.96 1946.5 1232.16C1946.47 1231.36 1946.53 1230.59 1946.66 1229.85C1946.79 1229.1 1947.05 1228.42 1947.44 1227.81C1947.81 1227.21 1948.39 1226.75 1949.19 1226.45C1950.33 1226.01 1951.43 1226.05 1952.51 1226.58C1953.58 1227.11 1954.47 1228.04 1955.19 1229.39L1959.03 1227.91L1959.72 1229.71L1955.94 1231.17C1956.21 1232.15 1956.34 1233.15 1956.31 1234.18C1956.27 1235.21 1956.1 1236.14 1955.79 1236.96Z" fill="#01A791"/>
<path d="M2334.92 1095.8L2332.69 1095.31C2332.91 1094.43 2333.04 1093.52 2333.09 1092.61C2333.11 1091.68 2332.94 1090.74 2332.58 1089.8C2332.22 1088.88 2331.77 1088.25 2331.23 1087.92C2330.67 1087.57 2330.09 1087.52 2329.48 1087.75C2328.99 1087.94 2328.66 1088.3 2328.48 1088.83C2328.31 1089.36 2328.21 1089.98 2328.18 1090.69C2328.15 1091.38 2328.13 1092.12 2328.14 1092.92C2328.15 1093.72 2328.09 1094.49 2327.98 1095.23C2327.84 1095.97 2327.6 1096.63 2327.25 1097.23C2326.9 1097.82 2326.34 1098.27 2325.57 1098.56C2324.46 1098.99 2323.39 1098.96 2322.39 1098.47C2321.37 1097.96 2320.53 1097.09 2319.88 1095.86L2316.46 1097.18L2315.76 1095.38L2319.16 1094.07C2318.88 1093.1 2318.81 1092.21 2318.95 1091.42C2319.06 1090.62 2319.28 1089.85 2319.6 1089.13L2321.63 1089.88C2321.51 1090.26 2321.42 1090.63 2321.36 1090.97C2321.27 1091.33 2321.23 1091.67 2321.22 1092.02C2321.21 1092.36 2321.24 1092.71 2321.29 1093.07C2321.35 1093.43 2321.46 1093.81 2321.62 1094.23C2321.93 1095.03 2322.35 1095.6 2322.88 1095.94C2323.39 1096.26 2323.94 1096.31 2324.55 1096.07C2324.99 1095.91 2325.28 1095.57 2325.42 1095.05C2325.54 1094.54 2325.61 1093.95 2325.63 1093.26C2325.64 1092.56 2325.64 1091.8 2325.63 1091.01C2325.6 1090.2 2325.65 1089.43 2325.79 1088.69C2325.92 1087.94 2326.18 1087.26 2326.57 1086.65C2326.93 1086.05 2327.52 1085.6 2328.32 1085.29C2329.45 1084.85 2330.56 1084.9 2331.64 1085.42C2332.71 1085.95 2333.6 1086.89 2334.32 1088.23L2338.16 1086.75L2338.85 1088.55L2335.06 1090.01C2335.34 1090.99 2335.46 1091.99 2335.44 1093.02C2335.4 1094.06 2335.23 1094.98 2334.92 1095.8Z" fill="#01A791"/>
<path d="M70.9859 284.735L79.869 277.351L82.7096 275.041L84.8022 277.771L81.8336 279.914L72.3952 286.574L70.9859 284.735ZM64.7083 291.007C64.2385 290.394 64.0469 289.701 64.1335 288.927C64.2343 288.171 64.6385 287.522 65.346 286.98C66.0536 286.438 66.7759 286.223 67.5129 286.336C68.2828 286.454 68.9027 286.819 69.3724 287.432C69.8422 288.045 70.0267 288.729 69.9259 289.484C69.8579 290.244 69.4702 290.895 68.7626 291.437C68.0551 291.98 67.3164 292.192 66.5465 292.075C65.7908 291.976 65.1781 291.62 64.7083 291.007Z" fill="#FFD445"/>
<path d="M596.403 211.514L607.812 213.321L611.422 213.933L610.75 217.306L607.182 216.488L595.951 213.786L596.403 211.514ZM587.549 210.931C587.699 210.174 588.094 209.573 588.733 209.127C589.368 208.705 590.122 208.581 590.996 208.755C591.87 208.929 592.508 209.33 592.909 209.959C593.329 210.615 593.463 211.322 593.312 212.079C593.161 212.837 592.769 213.426 592.134 213.849C591.519 214.299 590.773 214.437 589.899 214.263C589.025 214.089 588.378 213.673 587.958 213.017C587.534 212.384 587.398 211.689 587.549 210.931Z" fill="#FFD445"/>
<path d="M1613.35 142.794L1604.31 135.594L1601.47 133.281L1603.72 130.678L1606.42 133.15L1614.86 141.041L1613.35 142.794ZM1620.76 147.669C1620.25 148.253 1619.61 148.582 1618.84 148.654C1618.08 148.708 1617.36 148.444 1616.69 147.861C1616.01 147.279 1615.66 146.615 1615.62 145.87C1615.58 145.092 1615.81 144.411 1616.31 143.827C1616.82 143.243 1617.45 142.923 1618.21 142.869C1618.97 142.781 1619.68 143.029 1620.36 143.612C1621.03 144.194 1621.39 144.875 1621.43 145.652C1621.49 146.412 1621.26 147.085 1620.76 147.669Z" fill="#FFD445"/>
<path d="M1139.17 117.488L1146.64 108.68L1149.04 105.914L1151.57 108.241L1149.02 110.865L1140.87 119.055L1139.17 117.488ZM1134.07 124.75C1133.5 124.227 1133.19 123.577 1133.14 122.8C1133.11 122.038 1133.4 121.329 1134 120.673C1134.6 120.017 1135.28 119.68 1136.02 119.665C1136.8 119.647 1137.48 119.9 1138.04 120.422C1138.61 120.945 1138.91 121.587 1138.94 122.348C1139.01 123.108 1138.74 123.816 1138.14 124.473C1137.53 125.129 1136.84 125.466 1136.06 125.484C1135.3 125.517 1134.64 125.272 1134.07 124.75Z" fill="#FFD445"/>
<path d="M29.8149 1217.4L41.27 1215.91L44.9057 1215.48L45.2141 1218.91L41.5596 1219.13L30.0227 1219.71L29.8149 1217.4ZM21.1566 1219.35C21.0873 1218.58 21.2962 1217.89 21.7833 1217.28C22.2725 1216.7 22.961 1216.37 23.8489 1216.29C24.7368 1216.21 25.4619 1216.41 26.0242 1216.9C26.612 1217.41 26.9405 1218.05 27.0097 1218.82C27.079 1219.59 26.869 1220.27 26.3799 1220.85C25.9162 1221.46 25.2404 1221.8 24.3525 1221.88C23.4646 1221.96 22.7267 1221.74 22.139 1221.23C21.5533 1220.74 21.2258 1220.12 21.1566 1219.35Z" fill="#FFD445"/>
<path d="M725.815 1168.4L737.27 1166.91L740.906 1166.48L741.214 1169.91L737.56 1170.13L726.023 1170.71L725.815 1168.4ZM717.157 1170.35C717.087 1169.58 717.296 1168.89 717.783 1168.28C718.272 1167.7 718.961 1167.37 719.849 1167.29C720.737 1167.21 721.462 1167.41 722.024 1167.9C722.612 1168.41 722.94 1169.05 723.01 1169.82C723.079 1170.59 722.869 1171.27 722.38 1171.85C721.916 1172.46 721.24 1172.8 720.352 1172.88C719.465 1172.96 718.727 1172.74 718.139 1172.23C717.553 1171.74 717.226 1171.12 717.157 1170.35Z" fill="#FFD445"/>
<path d="M1303.66 888.859L1305.03 900.329L1305.43 903.969L1302 904.243L1301.81 900.586L1301.35 889.044L1303.66 888.859ZM1301.8 880.182C1302.57 880.121 1303.26 880.336 1303.86 880.829C1304.44 881.324 1304.77 882.016 1304.84 882.905C1304.91 883.793 1304.7 884.517 1304.2 885.074C1303.68 885.657 1303.04 885.979 1302.27 886.04C1301.5 886.102 1300.83 885.885 1300.25 885.39C1299.65 884.92 1299.31 884.241 1299.24 883.353C1299.17 882.464 1299.39 881.728 1299.91 881.146C1300.4 880.565 1301.03 880.244 1301.8 880.182Z" fill="#FFD445"/>
<path d="M468.419 923.448L463.589 933.941L462.023 937.251L458.957 935.69L460.711 932.476L466.354 922.397L468.419 923.448ZM471.378 915.082C472.066 915.432 472.538 915.975 472.793 916.711C473.028 917.436 472.944 918.196 472.539 918.99C472.135 919.785 471.576 920.29 470.862 920.506C470.116 920.732 469.4 920.67 468.712 920.319C468.023 919.969 467.562 919.431 467.327 918.706C467.061 917.992 467.13 917.237 467.534 916.443C467.939 915.648 468.514 915.138 469.259 914.912C469.983 914.675 470.69 914.732 471.378 915.082Z" fill="#FFD445"/>
<path d="M405.818 250.815C405.484 250.061 405.451 249.315 405.719 248.58C406.007 247.835 406.568 247.278 407.401 246.909C408.215 246.549 408.995 246.513 409.739 246.801C410.484 247.088 411.023 247.609 411.357 248.364C411.691 249.118 411.714 249.867 411.426 250.612C411.138 251.357 410.587 251.909 409.773 252.269C408.94 252.638 408.15 252.679 407.406 252.391C406.681 252.095 406.152 251.569 405.818 250.815ZM388.356 255.694L389.816 254.086C390.886 255.108 391.944 255.756 392.991 256.029C394.017 256.31 395.096 256.225 396.225 255.773C396.17 255.702 396.125 255.627 396.09 255.547C396.054 255.468 396.019 255.389 395.984 255.309C395.677 254.614 395.607 253.921 395.776 253.229C395.973 252.549 396.479 252.028 397.293 251.668C398.087 251.316 398.807 251.306 399.452 251.638C400.117 251.961 400.608 252.48 400.924 253.194C401.346 254.147 401.299 255.034 400.784 255.856C400.269 256.677 399.367 257.373 398.076 257.944C396.27 258.744 394.55 258.935 392.917 258.518C391.265 258.11 389.744 257.169 388.356 255.694Z" fill="#051C28"/>
<path d="M785.704 284.883C786.051 284.135 786.589 283.619 787.319 283.335C788.068 283.06 788.856 283.114 789.684 283.498C790.491 283.872 791.033 284.434 791.307 285.183C791.582 285.933 791.546 286.682 791.199 287.43C790.852 288.179 790.304 288.69 789.555 288.965C788.805 289.24 788.027 289.19 787.219 288.816C786.392 288.432 785.841 287.866 785.566 287.116C785.311 286.376 785.357 285.632 785.704 284.883ZM770.519 274.975L772.691 275.013C772.628 276.491 772.839 277.713 773.325 278.68C773.79 279.637 774.565 280.391 775.65 280.942C775.667 280.854 775.694 280.771 775.73 280.692C775.767 280.613 775.803 280.534 775.84 280.456C776.159 279.766 776.635 279.257 777.266 278.927C777.908 278.626 778.632 278.663 779.44 279.038C780.228 279.403 780.71 279.937 780.886 280.641C781.082 281.354 781.016 282.065 780.687 282.774C780.249 283.719 779.552 284.269 778.595 284.424C777.638 284.579 776.519 284.359 775.239 283.766C773.446 282.935 772.168 281.769 771.405 280.267C770.622 278.755 770.327 276.991 770.519 274.975Z" fill="#051C28"/>
<path d="M2017.03 91.3827C2017.85 91.4725 2018.51 91.818 2019.01 92.419C2019.51 93.0416 2019.71 93.806 2019.61 94.7124C2019.51 95.5972 2019.15 96.2894 2018.53 96.789C2017.91 97.2886 2017.19 97.4935 2016.37 97.4036C2015.55 97.3137 2014.89 96.9575 2014.39 96.3349C2013.89 95.7123 2013.69 94.9586 2013.78 94.0738C2013.88 93.1674 2014.24 92.4645 2014.87 91.9649C2015.49 91.4869 2016.21 91.2928 2017.03 91.3827ZM2021.57 73.8303L2022.23 75.9007C2020.81 76.3128 2019.72 76.903 2018.96 77.6713C2018.2 78.418 2017.73 79.3933 2017.55 80.597C2017.64 80.5849 2017.73 80.5836 2017.82 80.593C2017.9 80.6025 2017.99 80.612 2018.07 80.6214C2018.83 80.7042 2019.46 80.9922 2019.98 81.4853C2020.47 81.9976 2020.66 82.6961 2020.57 83.5809C2020.47 84.4441 2020.12 85.0716 2019.51 85.4633C2018.9 85.8766 2018.2 86.0406 2017.42 85.9555C2016.39 85.842 2015.65 85.3564 2015.19 84.4988C2014.74 83.6412 2014.59 82.511 2014.75 81.1083C2014.96 79.1445 2015.66 77.5611 2016.84 76.3583C2018.02 75.1338 2019.6 74.2911 2021.57 73.8303Z" fill="#051C28"/>
<path d="M2325.85 274.443C2325.39 273.758 2325.23 273.03 2325.36 272.259C2325.52 271.476 2325.97 270.831 2326.73 270.323C2327.47 269.828 2328.23 269.657 2329.01 269.812C2329.8 269.967 2330.42 270.387 2330.88 271.072C2331.34 271.757 2331.49 272.492 2331.33 273.275C2331.18 274.058 2330.73 274.697 2329.99 275.192C2329.24 275.7 2328.47 275.876 2327.68 275.722C2326.92 275.555 2326.31 275.129 2325.85 274.443ZM2309.49 282.266L2310.65 280.43C2311.88 281.252 2313.03 281.707 2314.11 281.795C2315.17 281.895 2316.22 281.624 2317.25 280.984C2317.19 280.924 2317.13 280.858 2317.08 280.786C2317.03 280.713 2316.99 280.641 2316.94 280.569C2316.51 279.938 2316.33 279.267 2316.37 278.556C2316.45 277.852 2316.86 277.252 2317.6 276.756C2318.32 276.273 2319.03 276.139 2319.72 276.354C2320.43 276.557 2321 276.983 2321.44 277.633C2322.02 278.498 2322.12 279.38 2321.76 280.278C2321.39 281.176 2320.62 282.018 2319.45 282.803C2317.81 283.903 2316.15 284.388 2314.47 284.26C2312.77 284.143 2311.11 283.479 2309.49 282.266Z" fill="#051C28"/>
<path d="M1552.25 1092.26C1552.37 1091.45 1552.74 1090.8 1553.36 1090.32C1554 1089.85 1554.77 1089.67 1555.67 1089.81C1556.55 1089.94 1557.23 1090.33 1557.71 1090.97C1558.18 1091.61 1558.36 1092.34 1558.24 1093.15C1558.12 1093.97 1557.73 1094.61 1557.09 1095.09C1556.45 1095.57 1555.69 1095.74 1554.81 1095.61C1553.91 1095.47 1553.22 1095.08 1552.74 1094.44C1552.29 1093.81 1552.12 1093.08 1552.25 1092.26ZM1534.88 1087.05L1536.98 1086.47C1537.33 1087.91 1537.88 1089.02 1538.62 1089.81C1539.34 1090.6 1540.29 1091.1 1541.49 1091.32C1541.48 1091.23 1541.48 1091.14 1541.49 1091.06C1541.51 1090.97 1541.52 1090.89 1541.53 1090.8C1541.64 1090.05 1541.96 1089.43 1542.47 1088.93C1543 1088.46 1543.71 1088.29 1544.59 1088.42C1545.44 1088.55 1546.06 1088.93 1546.43 1089.55C1546.82 1090.18 1546.95 1090.88 1546.84 1091.66C1546.68 1092.69 1546.17 1093.41 1545.3 1093.83C1544.42 1094.25 1543.29 1094.35 1541.89 1094.15C1539.94 1093.86 1538.38 1093.1 1537.23 1091.87C1536.05 1090.64 1535.27 1089.04 1534.88 1087.05Z" fill="#051C28"/>
<path d="M1245.78 1175.17C1246.6 1175.3 1247.24 1175.68 1247.71 1176.3C1248.18 1176.95 1248.35 1177.72 1248.2 1178.62C1248.06 1179.5 1247.67 1180.18 1247.02 1180.65C1246.38 1181.11 1245.65 1181.28 1244.83 1181.15C1244.02 1181.03 1243.38 1180.64 1242.91 1179.99C1242.44 1179.35 1242.27 1178.58 1242.41 1177.7C1242.56 1176.8 1242.95 1176.12 1243.6 1175.65C1244.24 1175.2 1244.97 1175.04 1245.78 1175.17ZM1251.17 1157.86L1251.73 1159.96C1250.29 1160.3 1249.17 1160.84 1248.37 1161.57C1247.58 1162.28 1247.06 1163.23 1246.83 1164.43C1246.92 1164.42 1247.01 1164.42 1247.09 1164.43C1247.18 1164.45 1247.27 1164.46 1247.35 1164.47C1248.1 1164.59 1248.72 1164.91 1249.21 1165.43C1249.67 1165.96 1249.84 1166.67 1249.7 1167.55C1249.56 1168.41 1249.18 1169.02 1248.55 1169.38C1247.92 1169.76 1247.22 1169.89 1246.44 1169.77C1245.41 1169.61 1244.69 1169.09 1244.28 1168.21C1243.88 1167.33 1243.78 1166.19 1244 1164.8C1244.31 1162.85 1245.09 1161.3 1246.32 1160.16C1247.56 1158.99 1249.18 1158.23 1251.17 1157.86Z" fill="#051C28"/>
<path d="M2197.48 986.738C2196.67 986.598 2196.03 986.213 2195.56 985.582C2195.1 984.93 2194.95 984.155 2195.11 983.256C2195.26 982.379 2195.66 981.71 2196.31 981.25C2196.96 980.789 2197.69 980.629 2198.51 980.769C2199.32 980.909 2199.96 981.305 2200.42 981.957C2200.88 982.609 2201.03 983.374 2200.88 984.251C2200.73 985.15 2200.32 985.829 2199.67 986.29C2199.02 986.729 2198.29 986.878 2197.48 986.738ZM2191.87 1003.98L2191.34 1001.87C2192.78 1001.55 2193.91 1001.03 2194.71 1000.31C2195.52 999.606 2196.04 998.662 2196.29 997.471C2196.2 997.478 2196.11 997.474 2196.03 997.459C2195.94 997.444 2195.86 997.429 2195.77 997.415C2195.02 997.286 2194.41 996.959 2193.93 996.436C2193.47 995.894 2193.32 995.185 2193.47 994.308C2193.61 993.452 2194 992.847 2194.64 992.494C2195.28 992.119 2195.98 991.998 2196.75 992.131C2197.78 992.307 2198.49 992.838 2198.89 993.721C2199.29 994.605 2199.36 995.742 2199.13 997.133C2198.79 999.08 2198 1000.62 2196.74 1001.75C2195.49 1002.9 2193.86 1003.64 2191.87 1003.98Z" fill="#051C28"/>
<path d="M210.513 1166.01C211.139 1166.54 211.49 1167.2 211.566 1167.98C211.627 1168.78 211.361 1169.52 210.768 1170.21C210.189 1170.89 209.502 1171.26 208.706 1171.32C207.91 1171.38 207.199 1171.15 206.572 1170.61C205.946 1170.07 205.602 1169.41 205.54 1168.61C205.479 1167.81 205.738 1167.08 206.317 1166.4C206.91 1165.71 207.604 1165.33 208.4 1165.27C209.182 1165.23 209.886 1165.47 210.513 1166.01ZM224.163 1154.07L223.539 1156.16C222.133 1155.69 220.899 1155.57 219.837 1155.77C218.789 1155.96 217.853 1156.5 217.029 1157.4C217.11 1157.44 217.183 1157.49 217.249 1157.54C217.314 1157.6 217.38 1157.66 217.446 1157.71C218.023 1158.21 218.385 1158.8 218.531 1159.5C218.647 1160.2 218.415 1160.89 217.836 1161.56C217.271 1162.22 216.626 1162.54 215.901 1162.52C215.162 1162.52 214.495 1162.26 213.902 1161.75C213.11 1161.07 212.77 1160.25 212.88 1159.29C212.99 1158.33 213.504 1157.31 214.422 1156.24C215.708 1154.74 217.177 1153.82 218.829 1153.49C220.496 1153.15 222.274 1153.34 224.163 1154.07Z" fill="#051C28"/>
<path d="M284.688 48.9021C283.701 49.3515 282.743 49.6067 281.813 49.6679C280.883 49.7291 280.022 49.6293 279.23 49.3686C278.428 49.0865 277.716 48.66 277.093 48.0891C276.461 47.4967 275.954 46.7824 275.573 45.946C275.261 45.2598 275.074 44.594 275.013 43.9485C274.964 43.2718 275.003 42.6195 275.131 41.9914C275.271 41.3321 275.474 40.6962 275.738 40.0836C276.025 39.4613 276.331 38.8555 276.658 38.2663C275.829 37.5825 275.1 36.8917 274.472 36.194C273.865 35.4866 273.39 34.7576 273.048 34.007C272.726 33.2994 272.53 32.5858 272.462 31.8662C272.414 31.1369 272.492 30.4542 272.694 29.8183C272.908 29.1512 273.246 28.5571 273.708 28.036C274.16 27.4935 274.75 27.0562 275.479 26.7241C276.873 26.0892 278.126 25.9975 279.238 26.4491C280.35 26.9006 281.199 27.7698 281.785 29.0564C282.098 29.7426 282.253 30.4231 282.249 31.0979C282.246 31.7727 282.142 32.4543 281.938 33.1429C281.755 33.8217 281.498 34.5084 281.167 35.2029C280.848 35.8662 280.513 36.5237 280.162 37.1753C281.224 37.8571 282.383 38.4685 283.639 39.0097C284.917 39.5411 286.182 39.9876 287.434 40.3494C287.752 38.2624 287.668 35.9447 287.18 33.3962L290.107 32.0629C290.66 35.1515 290.699 38.1372 290.225 41.02C291.052 41.187 291.824 41.2888 292.54 41.3253C293.255 41.3618 293.91 41.3486 294.502 41.2857L294.885 44.2575C293.284 44.4948 291.453 44.3967 289.391 43.9635C288.941 45.0228 288.342 45.9818 287.594 46.8404C286.836 47.6777 285.867 48.3649 284.688 48.9021ZM275.736 32.7441C275.98 33.2802 276.304 33.7929 276.708 34.282C277.112 34.7712 277.59 35.2525 278.143 35.726C278.705 34.7446 279.135 33.8111 279.431 32.9255C279.738 32.0087 279.691 31.1106 279.291 30.2314C279.027 29.6524 278.663 29.2227 278.199 28.9422C277.746 28.6306 277.187 28.6261 276.523 28.9289C275.879 29.222 275.487 29.7245 275.345 30.4364C275.224 31.1385 275.355 31.9078 275.736 32.7441ZM283.899 46.232C284.499 45.9585 285.02 45.5661 285.46 45.0548C285.901 44.5435 286.275 43.9455 286.585 43.2607C285.239 42.8639 283.902 42.3726 282.573 41.7866C281.266 41.1909 280.03 40.5239 278.865 39.7857C278.531 40.5856 278.307 41.3736 278.194 42.1499C278.094 42.8949 278.209 43.632 278.541 44.3611C279.039 45.4548 279.789 46.1621 280.79 46.4831C281.812 46.7943 282.848 46.7106 283.899 46.232Z" fill="#9CE736"/>
<path d="M973.089 98.2257C972.101 97.7805 971.277 97.2285 970.617 96.5696C969.958 95.9108 969.465 95.1977 969.139 94.4304C968.822 93.6417 968.673 92.8251 968.691 91.9806C968.72 91.1146 968.922 90.2626 969.3 89.4247C969.61 88.7372 969.987 88.1577 970.432 87.6861C970.908 87.2028 971.424 86.8022 971.981 86.4844C972.569 86.1548 973.18 85.8874 973.815 85.6825C974.472 85.4871 975.13 85.3182 975.788 85.1755C975.755 84.101 975.794 83.0975 975.904 82.165C976.035 81.2421 976.27 80.4046 976.609 79.6527C976.928 78.9436 977.336 78.326 977.831 77.7997C978.348 77.2831 978.912 76.8911 979.524 76.6238C980.166 76.3447 980.836 76.2068 981.532 76.2103C982.238 76.1923 982.956 76.3478 983.687 76.6768C985.083 77.3059 985.979 78.1872 986.373 79.3209C986.766 80.4546 986.673 81.666 986.093 82.9551C985.783 83.6426 985.373 84.2076 984.864 84.6501C984.354 85.0926 983.774 85.4641 983.121 85.7647C982.49 86.075 981.805 86.3348 981.064 86.544C980.355 86.7415 979.64 86.9233 978.919 87.0896C979.107 88.3371 979.411 89.6115 979.833 90.9128C980.277 92.2238 980.775 93.4692 981.329 94.6491C983.108 93.5119 984.794 91.9197 986.388 89.8724L989.321 91.1934C987.364 93.6456 985.145 95.6443 982.666 97.1896C983.086 97.9214 983.518 98.5684 983.963 99.1305C984.408 99.6925 984.849 100.176 985.287 100.58L983.306 102.827C982.071 101.78 980.937 100.339 979.903 98.5037C978.81 98.8643 977.695 99.0466 976.556 99.0505C975.426 99.0329 974.271 98.7579 973.089 98.2257ZM979.331 80.8398C979.089 81.3769 978.917 81.9587 978.816 82.585C978.715 83.2114 978.668 83.8883 978.677 84.6157C979.786 84.3915 980.77 84.0985 981.631 83.7367C982.523 83.3632 983.167 82.7359 983.564 81.855C983.825 81.2749 983.908 80.7179 983.813 80.1838C983.749 79.638 983.383 79.2151 982.717 78.9151C982.073 78.6247 981.436 78.6611 980.808 79.024C980.2 79.3966 979.708 80.0019 979.331 80.8398ZM974.576 95.8716C975.178 96.1426 975.816 96.2749 976.49 96.2687C977.165 96.2625 977.862 96.15 978.581 95.931C977.992 94.6576 977.479 93.3284 977.043 91.9433C976.629 90.5678 976.315 89.1989 976.102 87.8364C975.28 88.1123 974.54 88.4639 973.882 88.8913C973.255 89.3069 972.778 89.8799 972.449 90.6104C971.955 91.7061 971.918 92.736 972.336 93.6999C972.777 94.6735 973.523 95.3974 974.576 95.8716Z" fill="#9CE736"/>
<path d="M2330.1 84.8398C2330.21 83.7611 2330.47 82.8041 2330.88 81.9688C2331.3 81.1335 2331.82 80.4388 2332.44 79.8847C2333.08 79.3328 2333.81 78.9309 2334.62 78.679C2335.45 78.4294 2336.32 78.3498 2337.23 78.4401C2337.98 78.5142 2338.65 78.6868 2339.24 78.9581C2339.85 79.2551 2340.4 79.6167 2340.88 80.0428C2341.38 80.4947 2341.82 80.9889 2342.22 81.5253C2342.62 82.0852 2342.99 82.6545 2343.33 83.2333C2344.34 82.8592 2345.3 82.5754 2346.22 82.382C2347.14 82.212 2348.01 82.1675 2348.83 82.2485C2349.6 82.3249 2350.32 82.514 2350.97 82.8156C2351.63 83.1407 2352.18 83.5503 2352.63 84.0445C2353.1 84.5645 2353.44 85.1549 2353.66 85.8159C2353.9 86.4791 2353.98 87.2094 2353.91 88.0067C2353.76 89.531 2353.21 90.6607 2352.26 91.3959C2351.31 92.131 2350.13 92.4291 2348.72 92.2902C2347.97 92.2161 2347.31 92.0082 2346.73 91.6666C2346.14 91.325 2345.61 90.8931 2345.11 90.3709C2344.62 89.872 2344.15 89.3052 2343.72 88.6703C2343.3 88.0612 2342.9 87.4415 2342.52 86.8113C2341.39 87.3872 2340.28 88.0826 2339.18 88.8976C2338.08 89.7361 2337.06 90.6062 2336.12 91.5077C2337.77 92.8305 2339.81 93.9205 2342.26 94.778L2341.95 97.979C2339 96.9065 2336.4 95.4419 2334.14 93.5854C2333.58 94.2168 2333.11 94.8329 2332.71 95.4337C2332.32 96.0345 2332.01 96.607 2331.76 97.1513L2329 95.9906C2329.6 94.4868 2330.6 92.9521 2332.01 91.3863C2331.32 90.4657 2330.79 89.4663 2330.43 88.3882C2330.08 87.3124 2329.97 86.1296 2330.1 84.8398ZM2348.57 85.2068C2347.98 85.1489 2347.38 85.172 2346.75 85.2759C2346.13 85.3799 2345.47 85.5519 2344.78 85.7919C2345.35 86.7713 2345.94 87.6112 2346.56 88.3115C2347.2 89.0376 2348 89.448 2348.96 89.543C2349.59 89.6055 2350.15 89.5063 2350.62 89.2454C2351.12 89.0103 2351.4 88.5293 2351.48 87.8023C2351.55 87.0988 2351.31 86.507 2350.76 86.027C2350.22 85.5705 2349.49 85.2971 2348.57 85.2068ZM2332.81 85.4976C2332.74 86.1542 2332.82 86.8013 2333.04 87.4388C2333.26 88.0763 2333.59 88.7007 2334.03 89.3122C2335.05 88.3472 2336.14 87.4372 2337.32 86.5822C2338.49 85.7507 2339.69 85.0164 2340.91 84.3794C2340.39 83.6884 2339.82 83.0994 2339.2 82.6124C2338.61 82.1513 2337.91 81.8813 2337.11 81.8026C2335.92 81.6846 2334.93 81.9777 2334.15 82.6822C2333.37 83.41 2332.92 84.3485 2332.81 85.4976Z" fill="#9CE736"/>
<path d="M1244.02 187.953C1244.66 188.828 1245.11 189.714 1245.36 190.613C1245.6 191.511 1245.68 192.375 1245.59 193.203C1245.47 194.045 1245.2 194.829 1244.77 195.555C1244.32 196.294 1243.72 196.935 1242.98 197.478C1242.37 197.923 1241.75 198.241 1241.14 198.432C1240.48 198.617 1239.84 198.711 1239.19 198.713C1238.52 198.709 1237.86 198.64 1237.2 198.505C1236.54 198.351 1235.88 198.174 1235.24 197.973C1234.74 198.924 1234.21 199.778 1233.65 200.535C1233.08 201.273 1232.46 201.885 1231.8 202.372C1231.17 202.831 1230.51 203.168 1229.82 203.381C1229.12 203.575 1228.43 203.638 1227.77 203.569C1227.07 203.495 1226.42 203.284 1225.82 202.938C1225.2 202.605 1224.65 202.116 1224.17 201.469C1223.27 200.233 1222.93 199.025 1223.14 197.844C1223.36 196.664 1224.04 195.656 1225.18 194.821C1225.79 194.376 1226.42 194.086 1227.08 193.953C1227.75 193.819 1228.43 193.783 1229.15 193.843C1229.85 193.884 1230.58 193.996 1231.32 194.18C1232.04 194.358 1232.75 194.552 1233.46 194.763C1233.91 193.586 1234.27 192.327 1234.55 190.987C1234.81 189.628 1234.99 188.299 1235.09 186.999C1232.98 187.111 1230.73 187.664 1228.33 188.658L1226.43 186.062C1229.35 184.895 1232.26 184.251 1235.18 184.13C1235.18 183.286 1235.12 182.51 1235.01 181.802C1234.9 181.093 1234.76 180.455 1234.57 179.888L1237.41 178.91C1237.96 180.43 1238.24 182.243 1238.23 184.349C1239.36 184.575 1240.42 184.967 1241.41 185.525C1242.39 186.098 1243.26 186.907 1244.02 187.953ZM1230.02 199.997C1230.49 199.649 1230.93 199.228 1231.33 198.733C1231.72 198.238 1232.1 197.672 1232.45 197.035C1231.37 196.683 1230.37 196.452 1229.45 196.342C1228.49 196.227 1227.62 196.455 1226.84 197.025C1226.32 197.401 1225.98 197.845 1225.79 198.356C1225.58 198.863 1225.69 199.411 1226.12 200C1226.54 200.571 1227.11 200.853 1227.84 200.848C1228.55 200.823 1229.28 200.54 1230.02 199.997ZM1241.57 189.267C1241.18 188.735 1240.69 188.305 1240.1 187.977C1239.51 187.65 1238.85 187.404 1238.11 187.24C1238 188.638 1237.79 190.047 1237.48 191.467C1237.17 192.868 1236.76 194.213 1236.28 195.504C1237.13 195.669 1237.95 195.729 1238.73 195.681C1239.48 195.629 1240.18 195.366 1240.82 194.893C1241.79 194.183 1242.33 193.306 1242.45 192.261C1242.54 191.197 1242.25 190.199 1241.57 189.267Z" fill="#9CE736"/>
<path d="M1706.99 49.2954C1706.1 49.9084 1705.2 50.3254 1704.29 50.5463C1703.39 50.7673 1702.52 50.8178 1701.7 50.6979C1700.86 50.5585 1700.08 50.2614 1699.37 49.8066C1698.65 49.3324 1698.02 48.7164 1697.51 47.9584C1697.08 47.3365 1696.78 46.713 1696.61 46.0877C1696.44 45.4298 1696.37 44.7804 1696.39 44.1396C1696.41 43.4661 1696.5 42.8048 1696.65 42.1557C1696.83 41.4932 1697.03 40.8436 1697.25 40.2067C1696.31 39.6764 1695.47 39.122 1694.74 38.5434C1694.02 37.9515 1693.42 37.3154 1692.96 36.6352C1692.52 35.9939 1692.2 35.3248 1692.01 34.6279C1691.83 33.9177 1691.79 33.232 1691.88 32.5707C1691.98 31.8766 1692.21 31.233 1692.57 30.64C1692.92 30.0276 1693.43 29.4948 1694.09 29.0417C1695.36 28.1756 1696.57 27.8688 1697.75 28.1215C1698.92 28.3741 1699.91 29.0835 1700.71 30.2495C1701.13 30.8714 1701.4 31.515 1701.52 32.1802C1701.63 32.8454 1701.64 33.5348 1701.56 34.2483C1701.5 34.9485 1701.36 35.6692 1701.16 36.4105C1700.96 37.119 1700.74 37.8244 1700.51 38.5268C1701.67 39.0149 1702.92 39.4169 1704.25 39.7329C1705.6 40.0355 1706.92 40.2568 1708.22 40.3968C1708.17 38.2862 1707.69 36.018 1706.77 33.592L1709.42 31.7731C1710.5 34.7198 1711.05 37.6538 1711.09 40.5751C1711.93 40.5967 1712.71 40.5637 1713.42 40.476C1714.13 40.3883 1714.77 40.2622 1715.34 40.0979L1716.23 42.9589C1714.7 43.4692 1712.88 43.689 1710.77 43.6185C1710.51 44.7395 1710.09 45.7876 1709.5 46.7626C1708.9 47.7182 1708.06 48.5625 1706.99 49.2954ZM1695.38 34.927C1695.72 35.4128 1696.13 35.8618 1696.61 36.2738C1697.09 36.6858 1697.64 37.0773 1698.27 37.4482C1698.65 36.3843 1698.92 35.3907 1699.05 34.4673C1699.2 33.5111 1699 32.6346 1698.45 31.8378C1698.09 31.3131 1697.66 30.9527 1697.15 30.7567C1696.65 30.5279 1696.1 30.6201 1695.5 31.0332C1694.92 31.433 1694.62 31.9957 1694.6 32.7215C1694.6 33.4339 1694.86 34.169 1695.38 34.927ZM1705.75 46.8017C1706.3 46.4286 1706.74 45.9521 1707.09 45.3725C1707.43 44.7928 1707.7 44.139 1707.89 43.411C1706.49 43.2527 1705.09 42.9998 1703.68 42.6522C1702.29 42.2912 1700.96 41.8478 1699.68 41.322C1699.49 42.1676 1699.41 42.9825 1699.43 43.7665C1699.46 44.5178 1699.7 45.2238 1700.15 45.8846C1700.83 46.8757 1701.69 47.4429 1702.74 47.5862C1703.8 47.7162 1704.8 47.4547 1705.75 46.8017Z" fill="#9CE736"/>
<path d="M254.048 920.491C252.974 920.343 252.028 920.046 251.209 919.601C250.39 919.155 249.716 918.61 249.186 917.966C248.659 917.299 248.286 916.558 248.065 915.742C247.847 914.904 247.801 914.029 247.927 913.119C248.029 912.372 248.228 911.709 248.521 911.131C248.842 910.533 249.224 910.003 249.668 909.541C250.139 909.059 250.65 908.629 251.201 908.253C251.776 907.881 252.359 907.533 252.95 907.21C252.615 906.188 252.369 905.215 252.211 904.289C252.076 903.367 252.065 902.497 252.177 901.68C252.283 900.91 252.5 900.202 252.826 899.557C253.176 898.916 253.607 898.38 254.118 897.951C254.656 897.502 255.259 897.181 255.928 896.987C256.6 896.77 257.333 896.717 258.126 896.826C259.644 897.035 260.752 897.627 261.45 898.604C262.148 899.58 262.4 900.768 262.208 902.169C262.105 902.916 261.872 903.574 261.508 904.142C261.144 904.71 260.692 905.231 260.151 905.704C259.634 906.179 259.049 906.622 258.398 907.032C257.774 907.422 257.139 907.798 256.494 908.161C257.027 909.305 257.679 910.442 258.451 911.571C259.247 912.703 260.077 913.757 260.942 914.732C262.327 913.139 263.495 911.135 264.446 908.721L267.632 909.16C266.447 912.065 264.884 914.609 262.942 916.792C263.551 917.375 264.149 917.874 264.734 918.287C265.319 918.701 265.879 919.039 266.414 919.303L265.148 922.019C263.668 921.363 262.173 920.301 260.663 918.833C259.716 919.487 258.697 919.977 257.606 920.303C256.518 920.605 255.332 920.668 254.048 920.491ZM255.124 902.05C255.043 902.634 255.043 903.24 255.123 903.87C255.203 904.499 255.349 905.161 255.563 905.857C256.563 905.329 257.425 904.769 258.149 904.179C258.899 903.569 259.34 902.785 259.472 901.828C259.558 901.198 259.48 900.64 259.238 900.155C259.022 899.649 258.552 899.347 257.829 899.247C257.128 899.151 256.528 899.365 256.027 899.891C255.55 900.42 255.249 901.14 255.124 902.05ZM254.809 917.813C255.463 917.903 256.112 917.849 256.758 917.653C257.403 917.456 258.04 917.151 258.668 916.738C257.742 915.683 256.875 914.553 256.066 913.347C255.28 912.145 254.592 910.92 254.003 909.674C253.292 910.171 252.682 910.717 252.171 911.313C251.688 911.888 251.391 912.573 251.282 913.367C251.118 914.557 251.373 915.556 252.047 916.362C252.744 917.172 253.665 917.655 254.809 917.813Z" fill="#9CE736"/>
<path d="M947.003 922.917C945.929 922.77 944.983 922.473 944.164 922.027C943.346 921.581 942.671 921.037 942.142 920.393C941.615 919.726 941.241 918.984 941.02 918.169C940.803 917.33 940.757 916.456 940.882 915.545C940.985 914.798 941.183 914.136 941.477 913.558C941.797 912.96 942.179 912.43 942.624 911.967C943.094 911.485 943.605 911.056 944.157 910.68C944.731 910.307 945.314 909.959 945.906 909.636C945.571 908.615 945.324 907.641 945.166 906.716C945.032 905.793 945.02 904.924 945.133 904.107C945.239 903.336 945.455 902.629 945.782 901.984C946.132 901.342 946.563 900.807 947.074 900.378C947.611 899.928 948.214 899.607 948.883 899.414C949.555 899.197 950.288 899.143 951.082 899.253C952.599 899.461 953.707 900.054 954.405 901.03C955.103 902.006 955.356 903.195 955.163 904.595C955.06 905.342 954.827 906 954.463 906.569C954.1 907.137 953.647 907.657 953.107 908.13C952.589 908.606 952.005 909.049 951.354 909.459C950.729 909.848 950.095 910.225 949.45 910.588C949.982 911.732 950.635 912.868 951.407 913.997C952.203 915.13 953.033 916.183 953.897 917.159C955.282 915.565 956.45 913.562 957.401 911.147L960.588 911.586C959.403 914.491 957.839 917.035 955.898 919.218C956.507 919.802 957.104 920.3 957.69 920.714C958.275 921.127 958.835 921.466 959.37 921.73L958.104 924.446C956.624 923.79 955.129 922.728 953.618 921.259C952.672 921.914 951.653 922.404 950.562 922.729C949.473 923.031 948.287 923.094 947.003 922.917ZM948.079 904.476C947.999 905.06 947.999 905.667 948.078 906.296C948.158 906.925 948.305 907.588 948.518 908.283C949.519 907.755 950.381 907.196 951.104 906.606C951.854 905.995 952.295 905.212 952.427 904.254C952.514 903.624 952.436 903.066 952.194 902.581C951.978 902.076 951.508 901.773 950.784 901.673C950.084 901.577 949.484 901.792 948.983 902.317C948.506 902.846 948.205 903.566 948.079 904.476ZM947.765 920.239C948.418 920.329 949.068 920.276 949.713 920.079C950.359 919.883 950.995 919.578 951.623 919.165C950.698 918.11 949.831 916.979 949.022 915.774C948.236 914.572 947.548 913.347 946.958 912.1C946.248 912.597 945.637 913.143 945.127 913.739C944.643 914.315 944.347 915 944.238 915.793C944.074 916.984 944.329 917.982 945.003 918.789C945.7 919.598 946.621 920.082 947.765 920.239Z" fill="#9CE736"/>
<path d="M995.768 1167.17C995.927 1166.1 996.233 1165.16 996.687 1164.34C997.141 1163.53 997.692 1162.86 998.341 1162.33C999.013 1161.81 999.758 1161.45 1000.58 1161.24C1001.42 1161.03 1002.29 1160.99 1003.2 1161.12C1003.95 1161.23 1004.61 1161.44 1005.18 1161.74C1005.78 1162.06 1006.3 1162.45 1006.76 1162.9C1007.24 1163.38 1007.66 1163.89 1008.03 1164.45C1008.4 1165.02 1008.74 1165.61 1009.06 1166.21C1010.08 1165.88 1011.06 1165.64 1011.99 1165.5C1012.91 1165.37 1013.78 1165.37 1014.6 1165.49C1015.37 1165.6 1016.07 1165.83 1016.71 1166.16C1017.35 1166.52 1017.88 1166.95 1018.31 1167.47C1018.75 1168.01 1019.07 1168.61 1019.25 1169.29C1019.46 1169.96 1019.51 1170.69 1019.39 1171.49C1019.17 1173 1018.56 1174.1 1017.58 1174.79C1016.6 1175.48 1015.41 1175.72 1014.01 1175.51C1013.26 1175.4 1012.61 1175.16 1012.04 1174.79C1011.48 1174.42 1010.96 1173.97 1010.49 1173.42C1010.02 1172.9 1009.59 1172.31 1009.18 1171.66C1008.8 1171.03 1008.43 1170.39 1008.07 1169.74C1006.92 1170.26 1005.78 1170.9 1004.64 1171.66C1003.5 1172.45 1002.44 1173.27 1001.46 1174.12C1003.04 1175.52 1005.03 1176.71 1007.43 1177.69L1006.96 1180.87C1004.07 1179.65 1001.54 1178.07 999.378 1176.1C998.789 1176.71 998.284 1177.3 997.865 1177.88C997.446 1178.46 997.101 1179.02 996.832 1179.55L994.129 1178.26C994.8 1176.78 995.877 1175.3 997.36 1173.8C996.715 1172.85 996.235 1171.83 995.921 1170.73C995.629 1169.64 995.578 1168.45 995.768 1167.17ZM1014.2 1168.43C1013.61 1168.34 1013.01 1168.34 1012.38 1168.41C1011.75 1168.49 1011.08 1168.63 1010.39 1168.83C1010.9 1169.84 1011.46 1170.71 1012.04 1171.43C1012.64 1172.19 1013.42 1172.64 1014.38 1172.78C1015.01 1172.87 1015.56 1172.8 1016.05 1172.56C1016.56 1172.35 1016.87 1171.89 1016.97 1171.16C1017.08 1170.46 1016.87 1169.86 1016.35 1169.36C1015.82 1168.87 1015.11 1168.57 1014.2 1168.43ZM998.439 1167.96C998.342 1168.61 998.389 1169.26 998.579 1169.91C998.769 1170.56 999.068 1171.2 999.474 1171.83C1000.54 1170.91 1001.68 1170.06 1002.89 1169.26C1004.1 1168.49 1005.33 1167.81 1006.59 1167.23C1006.1 1166.52 1005.56 1165.9 1004.96 1165.39C1004.39 1164.9 1003.71 1164.59 1002.92 1164.48C1001.73 1164.3 1000.73 1164.55 999.917 1165.21C999.1 1165.9 998.607 1166.82 998.439 1167.96Z" fill="#9CE736"/>
<path d="M1765.82 1163.93C1765.65 1165 1765.33 1165.94 1764.86 1166.75C1764.4 1167.56 1763.84 1168.22 1763.18 1168.73C1762.5 1169.24 1761.75 1169.6 1760.93 1169.8C1760.09 1170 1759.22 1170.03 1758.31 1169.88C1757.56 1169.76 1756.91 1169.55 1756.33 1169.24C1755.74 1168.91 1755.22 1168.51 1754.77 1168.06C1754.3 1167.58 1753.88 1167.06 1753.52 1166.5C1753.16 1165.91 1752.83 1165.32 1752.52 1164.72C1751.49 1165.03 1750.51 1165.26 1749.58 1165.4C1748.65 1165.51 1747.78 1165.5 1746.97 1165.37C1746.2 1165.24 1745.5 1165.01 1744.86 1164.67C1744.23 1164.31 1743.7 1163.86 1743.29 1163.34C1742.85 1162.79 1742.54 1162.18 1742.36 1161.51C1742.16 1160.83 1742.13 1160.1 1742.25 1159.31C1742.5 1157.8 1743.12 1156.7 1744.11 1156.03C1745.1 1155.35 1746.29 1155.13 1747.69 1155.35C1748.43 1155.47 1749.09 1155.72 1749.65 1156.1C1750.21 1156.47 1750.72 1156.94 1751.18 1157.49C1751.64 1158.02 1752.07 1158.61 1752.46 1159.27C1752.84 1159.91 1753.2 1160.55 1753.55 1161.2C1754.7 1160.7 1755.86 1160.07 1757 1159.32C1758.15 1158.55 1759.23 1157.75 1760.22 1156.91C1758.66 1155.49 1756.68 1154.27 1754.29 1153.27L1754.8 1150.09C1757.68 1151.34 1760.19 1152.96 1762.33 1154.95C1762.92 1154.36 1763.43 1153.77 1763.86 1153.2C1764.29 1152.62 1764.64 1152.07 1764.92 1151.54L1767.6 1152.87C1766.91 1154.33 1765.82 1155.8 1764.31 1157.28C1764.95 1158.24 1765.41 1159.27 1765.71 1160.37C1765.99 1161.46 1766.03 1162.65 1765.82 1163.93ZM1747.41 1162.43C1747.99 1162.53 1748.6 1162.54 1749.23 1162.47C1749.86 1162.41 1750.52 1162.28 1751.22 1162.08C1750.72 1161.07 1750.18 1160.19 1749.61 1159.46C1749.01 1158.69 1748.24 1158.23 1747.29 1158.08C1746.66 1157.98 1746.1 1158.04 1745.61 1158.27C1745.1 1158.48 1744.78 1158.94 1744.67 1159.66C1744.56 1160.36 1744.76 1160.97 1745.27 1161.48C1745.79 1161.97 1746.5 1162.29 1747.41 1162.43ZM1763.16 1163.11C1763.26 1162.46 1763.23 1161.81 1763.04 1161.16C1762.86 1160.51 1762.57 1159.86 1762.17 1159.23C1761.1 1160.13 1759.95 1160.97 1758.72 1161.75C1757.5 1162.51 1756.26 1163.17 1755 1163.73C1755.48 1164.45 1756.02 1165.07 1756.6 1165.6C1757.16 1166.09 1757.84 1166.4 1758.63 1166.53C1759.82 1166.72 1760.82 1166.49 1761.65 1165.84C1762.47 1165.16 1762.98 1164.25 1763.16 1163.11Z" fill="#9CE736"/>
<path d="M2188.82 851.931C2188.65 853.002 2188.33 853.941 2187.86 854.749C2187.4 855.557 2186.84 856.219 2186.18 856.734C2185.5 857.245 2184.75 857.601 2183.93 857.803C2183.09 858.002 2182.22 858.028 2181.31 857.881C2180.56 857.761 2179.91 857.548 2179.33 857.241C2178.74 856.907 2178.22 856.513 2177.77 856.058C2177.3 855.576 2176.88 855.056 2176.52 854.496C2176.16 853.913 2175.83 853.322 2175.52 852.723C2174.49 853.034 2173.51 853.259 2172.58 853.395C2171.65 853.509 2170.78 853.5 2169.97 853.368C2169.2 853.245 2168.5 853.012 2167.86 852.671C2167.23 852.306 2166.7 851.863 2166.29 851.343C2165.85 850.795 2165.54 850.184 2165.36 849.511C2165.16 848.834 2165.13 848.1 2165.25 847.309C2165.5 845.797 2166.12 844.703 2167.11 844.028C2168.1 843.352 2169.29 843.127 2170.69 843.352C2171.43 843.472 2172.09 843.72 2172.65 844.097C2173.21 844.474 2173.72 844.938 2174.18 845.489C2174.64 846.018 2175.07 846.612 2175.46 847.272C2175.84 847.906 2176.2 848.549 2176.55 849.202C2177.7 848.696 2178.86 848.07 2180 847.324C2181.15 846.554 2182.23 845.749 2183.22 844.907C2181.66 843.485 2179.68 842.272 2177.29 841.266L2177.8 838.09C2180.68 839.341 2183.19 840.963 2185.33 842.954C2185.92 842.359 2186.43 841.773 2186.86 841.197C2187.29 840.622 2187.64 840.07 2187.92 839.541L2190.6 840.869C2189.91 842.333 2188.82 843.804 2187.31 845.28C2187.95 846.241 2188.41 847.271 2188.71 848.37C2188.99 849.465 2189.03 850.652 2188.82 851.931ZM2170.41 850.432C2170.99 850.525 2171.6 850.539 2172.23 850.474C2172.86 850.409 2173.52 850.277 2174.22 850.08C2173.72 849.068 2173.18 848.193 2172.61 847.456C2172.01 846.692 2171.24 846.233 2170.29 846.08C2169.66 845.978 2169.1 846.043 2168.61 846.275C2168.1 846.479 2167.78 846.941 2167.67 847.663C2167.56 848.361 2167.76 848.966 2168.27 849.478C2168.79 849.968 2169.5 850.285 2170.41 850.432ZM2186.16 851.109C2186.26 850.457 2186.23 849.807 2186.04 849.157C2185.86 848.507 2185.57 847.864 2185.17 847.226C2184.1 848.127 2182.95 848.968 2181.72 849.749C2180.5 850.507 2179.26 851.167 2178 851.728C2178.48 852.449 2179.02 853.072 2179.6 853.596C2180.16 854.093 2180.84 854.405 2181.63 854.532C2182.82 854.724 2183.82 854.492 2184.65 853.836C2185.47 853.158 2185.98 852.249 2186.16 851.109Z" fill="#9CE736"/>
<path d="M592.461 23.3668L594.062 19.1776L619.478 28.886L617.878 33.0752L592.461 23.3668ZM587.639 35.9927L589.239 31.8034L614.655 41.5119L613.055 45.7011L587.639 35.9927Z" fill="#FF6B00"/>
<path d="M1195.27 312.732L1199.47 311.172L1208.94 336.68L1204.73 338.24L1195.27 312.732ZM1182.6 317.434L1186.8 315.874L1196.27 341.382L1192.06 342.942L1182.6 317.434Z" fill="#FF6B00"/>
<path d="M2062.65 234.686L2065.47 238.173L2044.32 255.283L2041.5 251.796L2062.65 234.686ZM2054.15 224.178L2056.97 227.664L2035.82 244.774L2033 241.288L2054.15 224.178Z" fill="#FF6B00"/>
<path d="M527.774 1063.5L531.366 1060.81L547.652 1082.61L544.059 1085.29L527.774 1063.5ZM516.947 1071.59L520.539 1068.9L536.825 1090.7L533.232 1093.38L516.947 1071.59Z" fill="#FF6B00"/>
<path d="M1223.77 1014.5L1227.37 1011.81L1243.65 1033.61L1240.06 1036.29L1223.77 1014.5ZM1212.95 1022.59L1216.54 1019.9L1232.82 1041.7L1229.23 1044.38L1212.95 1022.59Z" fill="#FF6B00"/>
<path d="M1756.6 984.61L1754 980.957L1776.16 965.178L1778.76 968.831L1756.6 984.61ZM1764.44 995.62L1761.84 991.967L1784 976.188L1786.6 979.841L1764.44 995.62Z" fill="#FF6B00"/>
<path d="M2059.48 1113.43L2055 1113.38L2055.28 1086.18L2059.76 1086.22L2059.48 1113.43ZM2073 1113.57L2068.51 1113.52L2068.79 1086.32L2073.28 1086.36L2073 1113.57Z" fill="#FF6B00"/>
<path d="M35.0831 125.559L33.2836 123.052L41.493 116.83L34.7764 110.469L36.5573 108.182L43.946 113.772L47.7523 104.613L50.5431 105.618L47.6337 115.101L56.8898 115.507L56.8033 118.404L47.5728 119.021L49.9284 129.048L46.9438 129.831L43.7967 119.969L35.0831 125.559Z" fill="#EEA2BF"/>
<path d="M1636.52 263.392L1634.43 265.662L1626.68 258.886L1621.81 266.753L1619.21 265.473L1623.18 257.104L1613.44 255.235L1613.86 252.299L1623.74 253.224L1622.26 244.078L1625.11 243.575L1627.59 252.488L1636.93 248.147L1638.3 250.911L1629.28 255.993L1636.52 263.392Z" fill="#EEA2BF"/>
<path d="M1439.32 113.748L1437.12 111.59L1444.13 104.044L1436.41 98.9384L1437.77 96.3783L1446.02 100.608L1448.18 90.9286L1451.11 91.4367L1449.88 101.279L1459.07 100.08L1459.48 102.949L1450.5 105.151L1454.55 114.621L1451.74 115.908L1446.94 106.737L1439.32 113.748Z" fill="#EEA2BF"/>
<path d="M2.13755 851.789L1.95738 848.708L12.2214 847.841L9.94772 838.874L12.6754 837.894L15.9296 846.568L24.044 840.864L25.8646 843.206L18.3353 849.663L25.9396 854.956L24.3172 857.358L16.1876 852.943L12.8158 862.676L9.87496 861.742L12.4896 851.725L2.13755 851.789Z" fill="#EEA2BF"/>
<path d="M651.316 891.173L651.136 888.093L661.4 887.225L659.126 878.258L661.854 877.278L665.108 885.953L673.222 880.249L675.043 882.591L667.514 889.048L675.118 894.341L673.496 896.742L665.366 892.327L661.994 902.06L659.053 901.126L661.668 891.11L651.316 891.173Z" fill="#EEA2BF"/>
<path d="M1669.53 864.832L1672.61 864.682L1673.38 874.955L1682.37 872.77L1683.32 875.508L1674.61 878.675L1680.24 886.846L1677.88 888.643L1671.5 881.05L1666.13 888.601L1663.74 886.955L1668.24 878.87L1658.54 875.401L1659.5 872.47L1669.49 875.184L1669.53 864.832Z" fill="#EEA2BF"/>
<path d="M2168.63 1215.18L2165.55 1215.29L2164.92 1205.01L2155.9 1207.08L2154.98 1204.33L2163.73 1201.27L2158.21 1193.03L2160.6 1191.26L2166.88 1198.94L2172.35 1191.46L2174.71 1193.14L2170.11 1201.16L2179.76 1204.76L2178.76 1207.68L2168.81 1204.83L2168.63 1215.18Z" fill="#EEA2BF"/>
<path d="M753.919 1158.72L756.624 1160.2L751.901 1169.36L760.704 1172.2L760.084 1175.03L751.007 1173.17L751.523 1183.08L748.571 1183.38L747.106 1173.57L738.58 1177.19L737.409 1174.54L745.471 1170L739.021 1161.97L741.376 1159.98L748.469 1167.52L753.919 1158.72Z" fill="#EEA2BF"/>
<path d="M415.823 132.148C414.014 130.703 412.591 128.985 411.554 126.994C410.518 124.985 410 122.703 410 120.148C410 117.593 410.518 115.32 411.554 113.329C412.591 111.32 414.014 109.593 415.823 108.148L417.272 109.39C415.55 110.906 414.286 112.536 413.478 114.28C412.67 116.007 412.266 117.963 412.266 120.148C412.266 122.333 412.67 124.298 413.478 126.042C414.286 127.787 415.55 129.408 417.272 130.906L415.823 132.148Z" fill="#2260BF"/>
<path d="M997.002 251.7C996.894 249.387 997.248 247.185 998.061 245.092C998.887 242.989 1000.26 241.094 1002.18 239.409C1004.1 237.724 1006.15 236.614 1008.33 236.08C1010.53 235.534 1012.76 235.464 1015.04 235.871L1015.06 237.78C1012.79 237.486 1010.73 237.61 1008.89 238.153C1007.05 238.685 1005.32 239.671 1003.68 241.112C1002.03 242.553 1000.82 244.153 1000.04 245.911C999.266 247.668 998.882 249.688 998.891 251.97L997.002 251.7Z" fill="#2260BF"/>
<path d="M2192.28 156.478C2194.44 155.639 2196.64 155.27 2198.88 155.373C2201.14 155.485 2203.37 156.183 2205.58 157.465C2207.79 158.747 2209.5 160.336 2210.7 162.232C2211.92 164.137 2212.7 166.234 2213.04 168.524L2211.24 169.154C2210.79 166.904 2210.02 164.993 2208.91 163.418C2207.83 161.853 2206.34 160.521 2204.45 159.425C2202.56 158.328 2200.66 157.691 2198.74 157.515C2196.83 157.338 2194.79 157.618 2192.63 158.355L2192.28 156.478Z" fill="#2260BF"/>
<path d="M1298.94 42.6574C1297.89 44.722 1296.49 46.4637 1294.75 47.8824C1293 49.3047 1290.87 50.275 1288.37 50.7933C1285.86 51.3116 1283.53 51.2654 1281.37 50.6546C1279.2 50.0473 1277.22 49.0045 1275.43 47.5261L1276.36 45.8551C1278.19 47.2332 1280.04 48.1409 1281.91 48.5782C1283.77 49.019 1285.77 49.0178 1287.91 48.5746C1290.05 48.1313 1291.89 47.3372 1293.43 46.1921C1294.98 45.047 1296.31 43.4798 1297.43 41.4904L1298.94 42.6574Z" fill="#2260BF"/>
<path d="M1850.54 108.634C1848.51 107.523 1846.81 106.077 1845.44 104.295C1844.08 102.495 1843.17 100.337 1842.73 97.8203C1842.29 95.3036 1842.41 92.9752 1843.08 90.8349C1843.76 88.6772 1844.86 86.7305 1846.39 84.9948L1848.03 85.968C1846.6 87.7581 1845.64 89.582 1845.14 91.4398C1844.64 93.2803 1844.58 95.2767 1844.96 97.4288C1845.34 99.581 1846.08 101.446 1847.17 103.025C1848.27 104.604 1849.8 105.982 1851.75 107.16L1850.54 108.634Z" fill="#2260BF"/>
<path d="M320.341 1060.96C319.585 1058.77 319.302 1056.56 319.491 1054.32C319.69 1052.07 320.472 1049.86 321.838 1047.71C323.205 1045.55 324.858 1043.9 326.799 1042.77C328.748 1041.63 330.874 1040.93 333.176 1040.68L333.736 1042.5C331.471 1042.86 329.531 1043.56 327.915 1044.61C326.309 1045.63 324.921 1047.07 323.753 1048.92C322.584 1050.76 321.875 1052.64 321.625 1054.55C321.375 1056.45 321.577 1058.5 322.23 1060.68L320.341 1060.96Z" fill="#2260BF"/>
<path d="M1457.2 1180.93C1459.39 1180.2 1461.61 1179.94 1463.84 1180.15C1466.09 1180.37 1468.29 1181.17 1470.43 1182.56C1472.58 1183.95 1474.21 1185.62 1475.32 1187.57C1476.44 1189.53 1477.12 1191.66 1477.35 1193.97L1475.52 1194.51C1475.18 1192.24 1474.5 1190.29 1473.47 1188.67C1472.46 1187.05 1471.04 1185.65 1469.2 1184.46C1467.37 1183.28 1465.5 1182.55 1463.6 1182.28C1461.69 1182.01 1459.65 1182.19 1457.45 1182.82L1457.2 1180.93Z" fill="#2260BF"/>
<path d="M1972.06 993.187C1969.86 993.893 1967.64 994.125 1965.41 993.885C1963.16 993.634 1960.98 992.801 1958.85 991.386C1956.72 989.97 1955.12 988.279 1954.03 986.313C1952.93 984.338 1952.28 982.196 1952.08 979.89L1953.92 979.372C1954.23 981.644 1954.89 983.6 1955.89 985.239C1956.88 986.869 1958.28 988.289 1960.1 989.499C1961.92 990.71 1963.78 991.462 1965.68 991.756C1967.58 992.05 1969.63 991.896 1971.83 991.293L1972.06 993.187Z" fill="#2260BF"/>
<path d="M2316.81 888.308C2314.61 889.014 2312.39 889.246 2310.16 889.006C2307.91 888.755 2305.72 887.923 2303.6 886.507C2301.47 885.091 2299.87 883.4 2298.78 881.434C2297.68 879.459 2297.03 877.318 2296.83 875.011L2298.67 874.493C2298.98 876.765 2299.64 878.721 2300.64 880.361C2301.63 881.99 2303.03 883.41 2304.85 884.621C2306.67 885.831 2308.53 886.583 2310.43 886.877C2312.33 887.171 2314.38 887.017 2316.58 886.414L2316.81 888.308Z" fill="#2260BF"/>
<path d="M446.426 1252.68C448.682 1253.21 450.706 1254.14 452.5 1255.49C454.301 1256.86 455.753 1258.7 456.855 1261C457.957 1263.31 458.47 1265.58 458.393 1267.82C458.325 1270.08 457.786 1272.25 456.777 1274.34L454.934 1273.84C455.833 1271.73 456.271 1269.72 456.248 1267.79C456.232 1265.89 455.753 1263.95 454.811 1261.98C453.868 1260.01 452.656 1258.41 451.175 1257.18C449.694 1255.96 447.854 1255.04 445.655 1254.43L446.426 1252.68Z" fill="#2260BF"/>
<path d="M1016.34 1011.96C1015.59 1009.77 1015.3 1007.56 1015.49 1005.32C1015.69 1003.07 1016.47 1000.86 1017.84 998.705C1019.2 996.546 1020.86 994.902 1022.8 993.774C1024.75 992.631 1026.87 991.932 1029.18 991.679L1029.74 993.504C1027.47 993.864 1025.53 994.565 1023.91 995.607C1022.31 996.634 1020.92 998.071 1019.75 999.917C1018.58 1001.76 1017.88 1003.64 1017.63 1005.55C1017.37 1007.45 1017.58 1009.5 1018.23 1011.68L1016.34 1011.96Z" fill="#2260BF"/>
</g>
</svg>
