<svg width="72" height="70" viewBox="0 0 72 70" fill="none" xmlns="http://www.w3.org/2000/svg">
<path d="M35.8824 0C16.0687 0 0 16.0665 0 35.8869C0 51.7418 10.2814 65.1911 24.5414 69.9364C26.3369 70.2669 26.9911 69.1587 26.9911 68.2071C26.9911 67.3567 26.9603 65.0986 26.9427 62.1047C16.9609 64.2725 14.8548 57.2934 14.8548 57.2934C13.2224 53.1474 10.8696 52.0436 10.8696 52.0436C7.61136 49.8186 11.1163 49.8627 11.1163 49.8627C14.7182 50.116 16.6128 53.5615 16.6128 53.5615C19.8138 59.0448 25.0129 57.4608 27.0572 56.5422C27.3833 54.2246 28.3107 52.6429 29.3351 51.7462C21.3669 50.8408 12.9889 47.761 12.9889 34.0099C12.9889 30.093 14.3878 26.8876 16.6833 24.3806C16.3132 23.473 15.0817 19.8226 17.0358 14.8835C17.0358 14.8835 20.0473 13.9185 26.903 18.5625C29.7647 17.765 32.8357 17.3684 35.8869 17.353C38.9358 17.3684 42.0046 17.765 44.8707 18.5625C51.722 13.9185 54.7291 14.8835 54.7291 14.8835C56.6876 19.8226 55.4561 23.473 55.0882 24.3806C57.3881 26.8876 58.776 30.093 58.776 34.0099C58.776 47.7963 50.3848 50.8298 42.3923 51.7176C43.6789 52.8257 44.8266 55.0155 44.8266 58.3641C44.8266 63.16 44.7826 67.0307 44.7826 68.2071C44.7826 69.1676 45.4302 70.2845 47.2499 69.9342C61.4989 65.1779 71.7715 51.7374 71.7715 35.8869C71.7715 16.0665 55.7028 0 35.8824 0Z" fill="#4B6A8A"/>
</svg>
