<svg width="134" height="141" viewBox="0 0 134 141" fill="none" xmlns="http://www.w3.org/2000/svg">
<path d="M85.1099 47.4291L93.9093 70.4734C95.9507 75.8208 95.1925 81.8113 91.8803 86.5052C88.5681 91.1991 83.1229 93.9996 77.3079 94H55.0357C52.9799 93.9863 50.927 93.843 48.8899 93.5709L67 141H77.8174C103.767 141 125.868 121.183 126.79 95.7141C127.682 71.4621 109.617 50.5349 85.1099 47.4291Z" fill="#2AB6CC"/>
<path d="M56.6917 47H78.9642C81.02 47.0137 83.0729 47.157 85.11 47.4291L66.9999 0H56.1825C30.2329 0 8.1318 19.8171 7.20959 45.2859C6.31809 69.5378 24.3825 90.4649 48.8896 93.5709L40.0903 70.5266C38.049 65.1792 38.8071 59.1887 42.1193 54.4948C45.4315 49.8009 50.8767 47.0004 56.6917 47Z" fill="#83C6AE"/>
<path d="M77.308 94C83.123 93.9996 88.5682 91.1991 91.8804 86.5052C95.1926 81.8113 95.9508 75.8208 93.9094 70.4734L85.11 47.4291C83.0729 47.157 81.0201 47.0137 78.9644 47H56.6919C50.8769 47.0004 45.4317 49.8009 42.1195 54.4948C38.8073 59.1887 38.0491 65.1792 40.0905 70.5266L48.8898 93.5709C50.927 93.843 52.9799 93.9863 55.0358 94H77.308Z" fill="#2A7C7C"/>
<ellipse cx="23.9286" cy="117.5" rx="23.9286" ry="23.5" fill="#2AB6CC"/>
<ellipse cx="110.071" cy="23.5" rx="23.9286" ry="23.5" fill="#83C6AE"/>
</svg>
