<svg width="2400" height="1260" viewBox="0 0 2400 1260" fill="none" xmlns="http://www.w3.org/2000/svg">
  <rect width="2400" height="1260" fill="white"/>
  <line x1="-1.31134e-07" y1="131.5" x2="2400" y2="131.5" stroke="#EAECED" stroke-width="3"/>
  <line x1="-1.31134e-07" y1="175.5" x2="2400" y2="175.5" stroke="#EAECED" stroke-width="3"/>
  <line x1="-1.31134e-07" y1="219.5" x2="2400" y2="219.5" stroke="#EAECED" stroke-width="3"/>
  <line x1="-1.31134e-07" y1="263.5" x2="2400" y2="263.5" stroke="#EAECED" stroke-width="3"/>
  <line x1="-1.31134e-07" y1="307.5" x2="2400" y2="307.5" stroke="#EAECED" stroke-width="3"/>
  <rect x="2193" y="127" width="212" height="9" rx="4.5" fill="#2260BF"/>
  <rect x="1971" y="127" width="212" height="9" rx="4.5" fill="#9CE736"/>
  <rect x="1919" y="127" width="42" height="9" rx="4.5" fill="#FF6B00"/>
  <rect x="1774" y="127" width="135" height="9" rx="4.5" fill="#EEA2BF"/>
  <rect x="1660" y="127" width="104" height="9" rx="4.5" fill="#FFD445"/>
  <rect x="1440" y="127" width="210" height="9" rx="4.5" fill="#01A791"/>
  <rect x="2162" y="171" width="243" height="9" rx="4.5" fill="#01A791"/>
  <rect x="2073" y="171" width="79" height="9" rx="4.5" fill="#EEA2BF"/>
  <rect x="1824" y="171" width="239" height="9" rx="4.5" fill="#FFD445"/>
  <rect x="1783" y="171" width="31" height="9" rx="4.5" fill="#2260BF"/>
  <rect x="1625" y="171" width="148" height="9" rx="4.5" fill="#9CE736"/>
  <rect x="1410" y="171" width="205" height="9" rx="4.5" fill="#FF6B00"/>
  <rect x="2314" y="215" width="91" height="9" rx="4.5" fill="#FFD445"/>
  <rect x="2181" y="215" width="123" height="9" rx="4.5" fill="#9CE736"/>
  <rect x="1925" y="215" width="246" height="9" rx="4.5" fill="#01A791"/>
  <rect x="1879" y="215" width="36" height="9" rx="4.5" fill="#FF6B00"/>
  <rect x="1822" y="215" width="47" height="9" rx="4.5" fill="#EEA2BF"/>
  <rect x="1638" y="215" width="174" height="9" rx="4.5" fill="#4B6A8A"/>
  <rect x="1550" y="215" width="78" height="9" rx="4.5" fill="#2260BF"/>
  <rect x="1438" y="215" width="102" height="9" rx="4.5" fill="#EEA2BF"/>
  <rect x="2114" y="259" width="291" height="9" rx="4.5" fill="#FF6B00"/>
  <rect x="1954" y="259" width="150" height="9" rx="4.5" fill="#FFD445"/>
  <rect x="1812" y="259" width="132" height="9" rx="4.5" fill="#9CE736"/>
  <rect x="1757" y="259" width="45" height="9" rx="4.5" fill="#EEA2BF"/>
  <rect x="1654" y="259" width="93" height="9" rx="4.5" fill="#2260BF"/>
  <rect x="1587" y="259" width="57" height="9" rx="4.5" fill="#FF6B00"/>
  <rect x="1382" y="259" width="195" height="9" rx="4.5" fill="#9CE736"/>
  <rect x="2241" y="303" width="164" height="9" rx="4.5" fill="#4B6A8A"/>
  <rect x="2205" y="303" width="26" height="9" rx="4.5" fill="#01A791"/>
  <rect x="2047" y="303" width="148" height="9" rx="4.5" fill="#2260BF"/>
  <rect x="1994" y="303" width="43" height="9" rx="4.5" fill="#FF6B00"/>
  <rect x="1896" y="303" width="88" height="9" rx="4.5" fill="#FFD445"/>
  <rect x="1764" y="303" width="122" height="9" rx="4.5" fill="#01A791"/>
  <rect x="1677" y="303" width="77" height="9" rx="4.5" fill="#9CE736"/>
  <rect x="1495" y="303" width="172" height="9" rx="4.5" fill="#FF6B00"/>
  <rect x="1443" y="303" width="42" height="9" rx="4.5" fill="#FFD445"/>
  <line x1="-1.31134e-07" y1="542.5" x2="2400" y2="542.5" stroke="#EAECED" stroke-width="3"/>
  <line x1="-1.31134e-07" y1="586.5" x2="2400" y2="586.5" stroke="#EAECED" stroke-width="3"/>
  <line x1="-1.31134e-07" y1="630.5" x2="2400" y2="630.5" stroke="#EAECED" stroke-width="3"/>
  <line x1="-1.31134e-07" y1="674.5" x2="2400" y2="674.5" stroke="#EAECED" stroke-width="3"/>
  <line x1="-1.31134e-07" y1="718.5" x2="2400" y2="718.5" stroke="#EAECED" stroke-width="3"/>
  <rect x="2101" y="538" width="304" height="9" rx="4.5" fill="#EEA2BF"/>
  <rect x="1877" y="538" width="214" height="9" rx="4.5" fill="#FFD445"/>
  <rect x="1754" y="538" width="113" height="9" rx="4.5" fill="#9CE736"/>
  <rect x="1659" y="538" width="85" height="9" rx="4.5" fill="#FF6B00"/>
  <rect x="2137" y="582" width="268" height="9" rx="4.5" fill="#FFD445"/>
  <rect x="1843" y="582" width="284" height="9" rx="4.5" fill="#2260BF"/>
  <rect x="1597" y="582" width="236" height="9" rx="4.5" fill="#01A791"/>
  <rect x="2281" y="626" width="124" height="9" rx="4.5" fill="#2260BF"/>
  <rect x="2172" y="626" width="99" height="9" rx="4.5" fill="#FFD445"/>
  <rect x="1944" y="626" width="218" height="9" rx="4.5" fill="#9CE736"/>
  <rect x="1757" y="626" width="177" height="9" rx="4.5" fill="#FF6B00"/>
  <rect x="1614" y="626" width="133" height="9" rx="4.5" fill="#EEA2BF"/>
  <rect x="2213" y="670" width="192" height="9" rx="4.5" fill="#9CE736"/>
  <rect x="2058" y="670" width="145" height="9" rx="4.5" fill="#EEA2BF"/>
  <rect x="1828" y="670" width="220" height="9" rx="4.5" fill="#01A791"/>
  <rect x="1709" y="670" width="109" height="9" rx="4.5" fill="#2260BF"/>
  <rect x="1577" y="670" width="122" height="9" rx="4.5" fill="#FFD445"/>
  <rect x="2169" y="714" width="236" height="9" rx="4.5" fill="#01A791"/>
  <rect x="1976" y="714" width="183" height="9" rx="4.5" fill="#9CE736"/>
  <rect x="1852" y="714" width="114" height="9" rx="4.5" fill="#EEA2BF"/>
  <rect x="1603" y="714" width="239" height="9" rx="4.5" fill="#FF6B00"/>
  <line x1="-1.31134e-07" y1="953.5" x2="2400" y2="953.5" stroke="#EAECED" stroke-width="3"/>
  <line x1="-1.31134e-07" y1="997.5" x2="2400" y2="997.5" stroke="#EAECED" stroke-width="3"/>
  <line x1="-1.31134e-07" y1="1041.5" x2="2400" y2="1041.5" stroke="#EAECED" stroke-width="3"/>
  <line x1="-1.31134e-07" y1="1085.5" x2="2400" y2="1085.5" stroke="#EAECED" stroke-width="3"/>
  <line x1="-1.31134e-07" y1="1129.5" x2="2400" y2="1129.5" stroke="#EAECED" stroke-width="3"/>
  <rect x="2193" y="949" width="212" height="9" rx="4.5" fill="#2260BF"/>
  <rect x="1971" y="949" width="212" height="9" rx="4.5" fill="#9CE736"/>
  <rect x="1774" y="949" width="187" height="9" rx="4.5" fill="#EEA2BF"/>
  <rect x="1660" y="949" width="104" height="9" rx="4.5" fill="#FFD445"/>
  <rect x="1440" y="949" width="210" height="9" rx="4.5" fill="#01A791"/>
  <rect x="2162" y="993" width="243" height="9" rx="4.5" fill="#01A791"/>
  <rect x="2073" y="993" width="79" height="9" rx="4.5" fill="#EEA2BF"/>
  <rect x="1783" y="993" width="280" height="9" rx="4.5" fill="#FFD445"/>
  <rect x="1625" y="993" width="148" height="9" rx="4.5" fill="#9CE736"/>
  <rect x="1410" y="993" width="205" height="9" rx="4.5" fill="#FF6B00"/>
  <rect x="2314" y="1037" width="91" height="9" rx="4.5" fill="#FFD445"/>
  <rect x="2181" y="1037" width="123" height="9" rx="4.5" fill="#9CE736"/>
  <rect x="1925" y="1037" width="246" height="9" rx="4.5" fill="#01A791"/>
  <rect x="1822" y="1037" width="93" height="9" rx="4.5" fill="#EEA2BF"/>
  <rect x="1638" y="1037" width="174" height="9" rx="4.5" fill="#4B6A8A"/>
  <rect x="1550" y="1037" width="78" height="9" rx="4.5" fill="#2260BF"/>
  <rect x="1438" y="1037" width="102" height="9" rx="4.5" fill="#EEA2BF"/>
  <rect x="1954" y="1081" width="150" height="9" rx="4.5" fill="#FFD445"/>
  <rect x="1812" y="1081" width="132" height="9" rx="4.5" fill="#9CE736"/>
  <rect x="1654" y="1081" width="148" height="9" rx="4.5" fill="#2260BF"/>
  <rect x="1382" y="1081" width="262" height="9" rx="4.5" fill="#FFD445"/>
  <rect x="2241" y="1125" width="164" height="9" rx="4.5" fill="#4B6A8A"/>
  <rect x="2047" y="1125" width="184" height="9" rx="4.5" fill="#2260BF"/>
  <rect x="1896" y="1125" width="141" height="9" rx="4.5" fill="#FFD445"/>
  <rect x="1764" y="1125" width="122" height="9" rx="4.5" fill="#01A791"/>
  <rect x="1677" y="1125" width="77" height="9" rx="4.5" fill="#9CE736"/>
  <rect x="1495" y="1125" width="172" height="9" rx="4.5" fill="#FF6B00"/>
  <rect x="1400" y="1125" width="85" height="9" rx="4.5" fill="#2260BF"/>
  <rect x="2114" y="1081" width="291" height="9" rx="4.5" fill="#FF6B00"/>
</svg>
