<svg width="2400" height="1260" viewBox="0 0 2400 1260" fill="none" xmlns="http://www.w3.org/2000/svg">
  <rect width="2400" height="1260" fill="white"/>
  <circle cx="2238.5" cy="118.5" r="393.5" fill="#2260BF" stroke="#2260BF" stroke-width="6"/>
  <path d="M2353.78 305.979C2361.56 290.092 2366.72 271.417 2359.69 267.975L2304.14 240.751C2297.1 237.302 2285.45 252.793 2277.66 268.681C2269.88 284.568 2264.71 303.236 2271.81 306.717L2327.37 333.941C2334.39 337.383 2345.99 321.867 2353.78 305.979ZM2292.22 311.941C2290.32 311.006 2290.64 298.867 2300.05 279.652C2309.47 260.438 2318.8 252.714 2320.77 253.681L2334.13 260.225C2327.73 264.543 2320.31 275.576 2314.77 286.866C2309.24 298.156 2305.07 310.781 2305.58 318.484L2292.22 311.941ZM2310.73 321.011C2308.84 320.082 2309.22 307.975 2318.64 288.761C2328.06 269.546 2337.39 261.823 2339.28 262.751L2352.65 269.301C2346.25 273.619 2338.83 284.653 2333.3 295.943C2327.76 307.232 2323.59 319.857 2324.1 327.561L2310.73 321.011ZM2349.91 304.084C2340.47 323.35 2331.13 331.004 2329.26 330.088C2327.39 329.172 2327.72 317.103 2337.16 297.837C2346.6 278.572 2355.91 270.899 2357.81 271.828C2359.7 272.756 2359.35 284.819 2349.91 304.084ZM2281.6 270.607C2291.04 251.341 2300.34 243.669 2302.31 244.635L2315.62 251.154C2309.24 255.402 2301.72 266.468 2296.19 277.757C2290.65 289.047 2286.48 301.672 2287.07 309.414L2273.7 302.864C2271.83 301.948 2272.15 289.873 2281.6 270.607Z" fill="white"/>
  <path d="M2228.16 381.618C2229.65 384.128 2229 387.303 2226.74 389.01L2226.2 389.377L2164.52 425.613C2161.82 427.196 2158.34 426.287 2156.73 423.584C2155.24 421.074 2155.89 417.899 2158.15 416.192L2158.7 415.825L2220.38 379.589C2223.07 378.007 2226.56 378.915 2228.16 381.618ZM2187.73 371.549C2187.53 374.432 2185.21 376.647 2182.39 376.784L2181.68 376.773L2160.91 375.196L2165.37 395.541C2165.99 398.37 2164.39 401.151 2161.73 402.07L2161.04 402.26C2158.21 402.857 2155.42 401.232 2154.47 398.568L2154.28 397.881L2148.19 370.136C2147.44 366.684 2149.97 363.481 2153.38 363.303L2154.12 363.312L2182.45 365.464C2185.57 365.702 2187.94 368.426 2187.73 371.549ZM2230.42 406.634L2230.62 407.321L2236.7 435.066C2237.46 438.518 2234.93 441.721 2231.52 441.9L2230.77 441.89L2202.45 439.738C2199.32 439.5 2196.96 436.776 2197.17 433.653C2197.37 430.77 2199.69 428.555 2202.51 428.419L2203.22 428.429L2223.99 430.006L2219.53 409.661C2218.91 406.832 2220.51 404.051 2223.17 403.132L2223.86 402.942C2226.68 402.345 2229.48 403.97 2230.42 406.634Z" fill="white"/>
  <path d="M2119.44 43.1299C2114.96 42.0619 2110.29 42.056 2105.81 43.1124C2101.34 44.1689 2097.19 46.2577 2093.7 49.2083C2090.21 52.1589 2087.49 55.8874 2085.74 60.0891C2084 64.2908 2083.29 68.8464 2083.67 73.3835C2084.06 77.9206 2085.52 82.3104 2087.94 86.1941C2090.37 90.0778 2093.69 93.3452 2097.62 95.7291C2101.56 98.113 2106.01 99.5459 2110.6 99.9105C2115.19 100.275 2119.8 99.5611 2124.05 97.8269L2134.87 115.164C2135.51 116.189 2136.53 116.923 2137.71 117.206C2138.9 117.488 2140.14 117.295 2141.17 116.67C2142.21 116.044 2142.94 115.037 2143.22 113.87C2143.5 112.704 2143.3 111.472 2142.66 110.448L2131.84 93.1102C2135.92 89.6639 2138.95 85.1621 2140.6 80.1038C2142.24 75.0456 2142.43 69.6285 2141.14 64.453C2139.86 59.2774 2137.15 54.5456 2133.32 50.7819C2129.49 47.0182 2124.68 44.3697 2119.44 43.1299V43.1299ZM2108.16 90.3976C2104.3 89.4773 2100.8 87.4494 2098.1 84.5703C2095.4 81.6913 2093.62 78.0905 2092.98 74.2232C2092.34 70.3559 2092.88 66.3959 2094.52 62.8438C2096.16 59.2918 2098.84 56.3073 2102.21 54.2678C2105.58 52.2282 2109.49 51.2252 2113.45 51.3857C2117.41 51.5461 2121.24 52.8627 2124.45 55.169C2127.67 57.4753 2130.13 60.6677 2131.51 64.3425C2132.9 68.0173 2133.16 72.0095 2132.25 75.8142C2131.02 80.9129 2127.8 85.3118 2123.29 88.0458C2118.77 90.7798 2113.33 91.6256 2108.16 90.3976V90.3976Z" fill="white"/>
  <path d="M2031.67 316.516L2039.39 322.95L2052.26 307.518L2044.54 301.084L2031.67 316.516Z" fill="white"/>
  <path d="M2008.53 297.214L2008.53 297.216C2001.42 305.733 2002.57 318.408 2011.09 325.514L2026.52 338.38C2035.04 345.482 2047.71 344.341 2054.82 335.819L2067.69 320.386C2074.79 311.869 2073.65 299.194 2065.12 292.088L2049.69 279.22C2041.18 272.118 2028.5 273.262 2021.4 281.783L2009.82 272.132L1999.53 276.631L1991.82 270.197L1998.25 262.481L1990.53 256.047L1984.1 263.763L1976.39 257.33L1982.82 249.614L1975.1 243.18L1962.24 258.611L2008.53 297.214ZM2029.11 288.217C2032.66 283.964 2039 283.386 2043.26 286.936L2058.69 299.804C2062.95 303.353 2063.52 309.699 2059.97 313.952L2047.1 329.385C2043.56 333.638 2037.21 334.215 2032.96 330.666L2017.52 317.798C2013.27 314.249 2012.69 307.906 2016.24 303.651L2029.11 288.217Z" fill="white"/>
  <path d="M2283.86 86.4125C2281.06 84.756 2277.83 83.9675 2274.58 84.1466C2271.33 84.3257 2268.21 85.4645 2265.61 87.4188C2263 89.3732 2261.04 92.0554 2259.96 95.1263C2258.88 98.1972 2258.74 101.519 2259.55 104.671C2260.36 107.823 2262.09 110.665 2264.51 112.836C2266.94 115.007 2269.95 116.411 2273.17 116.869C2276.39 117.327 2279.68 116.82 2282.61 115.411C2285.55 114.002 2288 111.754 2289.65 108.953C2291.87 105.195 2292.5 100.711 2291.42 96.4856C2290.33 92.26 2287.62 88.6374 2283.86 86.4125V86.4125ZM2270.04 109.801C2268.21 108.722 2266.75 107.127 2265.83 105.217C2264.91 103.306 2264.58 101.167 2264.88 99.0685C2265.18 96.9703 2266.09 95.0078 2267.51 93.429C2268.92 91.8502 2270.77 90.7261 2272.82 90.1989C2274.88 89.6717 2277.04 89.765 2279.04 90.467C2281.04 91.169 2282.78 92.4483 2284.06 94.1429C2285.33 95.8376 2286.07 97.8716 2286.19 99.9877C2286.3 102.104 2285.79 104.207 2284.71 106.031C2283.27 108.477 2280.91 110.249 2278.15 110.956C2275.4 111.663 2272.48 111.247 2270.04 109.801V109.801ZM2301 123.178C2303.92 119.945 2306.16 116.158 2307.59 112.044L2320.06 110.237C2320.74 110.148 2321.37 109.817 2321.83 109.304C2322.28 108.792 2322.54 108.132 2322.56 107.445L2322.67 94.7311C2322.68 94.0464 2322.44 93.3816 2322 92.8566C2321.56 92.3317 2320.95 91.9812 2320.27 91.8685L2307.87 89.8022C2306.48 85.6777 2304.32 81.8527 2301.51 78.5281L2306.19 66.8482C2306.44 66.2093 2306.46 65.5019 2306.23 64.8527C2306.01 64.2035 2305.56 63.655 2304.97 63.3053L2293.99 56.8095C2293.4 56.4604 2292.7 56.3332 2292.02 56.4506C2291.35 56.568 2290.74 56.9223 2290.3 57.4501L2282.32 67.1823C2278.05 66.3222 2273.66 66.2747 2269.38 67.0424L2261.59 57.1689C2261.16 56.6314 2260.56 56.2633 2259.89 56.131C2259.22 55.9988 2258.52 56.111 2257.92 56.4476L2246.79 62.646C2246.19 62.9826 2245.74 63.5218 2245.5 64.1662C2245.27 64.8105 2245.27 65.5175 2245.51 66.159L2249.94 77.9575C2247.02 81.1908 2244.78 84.9771 2243.36 89.0918L2230.89 90.8982C2230.21 90.9954 2229.58 91.3324 2229.13 91.8482C2228.68 92.364 2228.43 93.0244 2228.42 93.71L2228.3 106.44C2228.29 107.125 2228.53 107.789 2228.97 108.311C2229.41 108.834 2230.03 109.18 2230.7 109.286L2243.11 111.353C2244.49 115.481 2246.65 119.307 2249.47 122.627L2244.79 134.307C2244.54 134.946 2244.52 135.653 2244.74 136.302C2244.97 136.951 2245.41 137.5 2246 137.85L2256.94 144.316C2257.53 144.665 2258.23 144.792 2258.9 144.675C2259.58 144.558 2260.19 144.203 2260.63 143.675L2268.61 133.943C2272.88 134.812 2277.27 134.859 2281.55 134.083L2289.34 143.957C2289.76 144.498 2290.36 144.87 2291.03 145.005C2291.7 145.141 2292.4 145.031 2292.99 144.694L2304.19 138.509C2304.79 138.172 2305.24 137.633 2305.48 136.989C2305.71 136.344 2305.71 135.637 2305.46 134.996L2301 123.178ZM2292.4 138.519L2285.02 129.155C2284.68 128.728 2284.23 128.407 2283.71 128.228C2283.2 128.049 2282.64 128.019 2282.11 128.143C2277.57 129.231 2272.83 129.186 2268.31 128.012C2267.78 127.871 2267.23 127.886 2266.7 128.054C2266.18 128.223 2265.72 128.538 2265.37 128.963L2257.74 138.119L2251.15 134.223L2255.49 123.12C2255.7 122.608 2255.75 122.049 2255.64 121.508C2255.54 120.968 2255.27 120.47 2254.89 120.075C2251.69 116.682 2249.36 112.553 2248.13 108.052C2247.98 107.526 2247.69 107.053 2247.28 106.688C2246.88 106.322 2246.38 106.079 2245.84 105.986L2234.09 104.043L2234.24 96.2814L2246.05 94.5744C2246.59 94.4986 2247.1 94.2671 2247.51 93.908C2247.93 93.5489 2248.23 93.0775 2248.38 92.5511C2249.67 88.0654 2252.08 83.9834 2255.39 80.6921C2255.78 80.306 2256.05 79.8155 2256.16 79.2801C2256.28 78.7446 2256.24 78.1872 2256.04 77.6754L2251.74 66.5291L2258.47 62.6627L2265.85 72.0269C2266.19 72.4536 2266.65 72.7751 2267.16 72.9542C2267.68 73.1332 2268.23 73.1625 2268.76 73.0386C2273.3 71.9604 2278.04 72.0054 2282.56 73.1697C2283.11 73.33 2283.69 73.3225 2284.23 73.1482C2284.77 72.9739 2285.25 72.6407 2285.6 72.1919L2293.24 63.0362L2299.83 66.9318L2295.49 78.0352C2295.28 78.5465 2295.23 79.1061 2295.34 79.6464C2295.44 80.1868 2295.7 80.6847 2296.09 81.08C2299.28 84.4784 2301.61 88.6052 2302.85 93.103C2303 93.6286 2303.29 94.1016 2303.7 94.4672C2304.1 94.8328 2304.6 95.076 2305.14 95.1688L2316.9 97.1212L2316.76 104.883L2304.94 106.59C2304.4 106.666 2303.89 106.897 2303.48 107.257C2303.07 107.616 2302.77 108.087 2302.61 108.613C2301.32 113.099 2298.91 117.181 2295.6 120.472C2295.21 120.859 2294.95 121.349 2294.83 121.884C2294.71 122.42 2294.76 122.977 2294.95 123.489L2299.24 134.626L2292.4 138.519Z" fill="white"/>
  <path d="M2183.89 169.077L2113.2 189.317C2110.99 189.954 2109.13 191.443 2108.02 193.46C2106.91 195.477 2106.64 197.856 2107.27 200.077L2120.27 245.473C2120.91 247.691 2122.4 249.567 2124.41 250.691C2126.42 251.814 2128.78 252.093 2130.99 251.466L2201.69 231.226C2203.89 230.589 2205.75 229.1 2206.86 227.083C2207.97 225.066 2208.24 222.687 2207.61 220.465L2194.59 174.973C2193.93 172.779 2192.44 170.931 2190.43 169.828C2188.43 168.725 2186.08 168.455 2183.89 169.077V169.077ZM2116.36 209.979L2142.45 216.189L2125.68 242.537L2116.36 209.979ZM2148.61 217.804L2151.79 218.572C2154.09 219.123 2156.5 219.071 2158.77 218.42C2161.05 217.768 2163.12 216.54 2164.78 214.853L2167.07 212.518L2196.33 226.571L2131.24 245.205L2148.61 217.804ZM2171.5 207.873L2191.82 187.139L2201.81 222.043C2201.85 222.144 2201.88 222.248 2201.9 222.354L2171.5 207.873ZM2114.86 195.134L2185.56 174.894C2186.23 174.707 2186.95 174.794 2187.57 175.136C2188.18 175.479 2188.64 176.05 2188.83 176.726L2189.94 180.604C2189.83 180.69 2189.73 180.784 2189.63 180.883L2160.6 210.595C2159.67 211.544 2158.5 212.235 2157.22 212.602C2155.94 212.968 2154.59 212.997 2153.3 212.686L2114.42 203.192L2113.03 198.325C2112.87 197.656 2112.97 196.952 2113.31 196.359C2113.65 195.765 2114.21 195.326 2114.86 195.134Z" fill="white"/>
  <path d="M1976.43 80.7876C1990.92 84.0372 1998.63 98.2813 1995.94 111.1C2003.49 115.663 2007.67 124.581 2005.67 133.517C2003.15 144.729 1991.82 151.806 1980.46 149.257L1927.25 137.317C1914.78 134.519 1907.46 123.834 1909.86 113.145C1911.69 104.963 1918.71 98.2279 1927.37 97.5096C1929.5 91.5225 1933.78 87.3712 1938.78 85.747C1943.54 84.203 1948.71 84.8467 1953.09 87.3021C1958.69 81.9574 1967.07 78.6867 1976.43 80.7876ZM1974.99 87.2203C1966.98 85.4225 1960.08 88.7007 1956.11 93.5065C1955.55 94.1777 1954.74 94.5994 1953.86 94.6791C1952.98 94.7587 1952.1 94.4898 1951.42 93.9313C1948.46 91.5446 1944.41 90.8722 1940.87 92.0213C1937.33 93.1704 1934.24 95.9995 1933.01 101.449C1932.84 102.205 1932.4 102.873 1931.77 103.338C1931.15 103.802 1930.38 104.033 1929.59 103.99C1923.44 103.641 1917.71 108.649 1916.37 114.607C1914.76 121.779 1919.07 128.726 1928.69 130.884L1981.91 142.825C1989.74 144.583 1997.42 139.79 1999.15 132.055C2000.68 125.25 1997.05 118.509 1990.86 115.801C1990.09 115.473 1989.47 114.872 1989.12 114.117C1988.78 113.361 1988.73 112.507 1988.99 111.723C1992.26 101.964 1986.6 89.8252 1974.99 87.2203Z" fill="white"/>
</svg>
