<svg width="86" height="70" viewBox="0 0 86 70" fill="none" xmlns="http://www.w3.org/2000/svg">
<path d="M83.5609 8.07849C82.2178 8.67422 80.8368 9.17701 79.4258 9.5852C81.0964 7.69596 82.37 5.473 83.1475 3.04043C83.3218 2.49517 83.1412 1.89834 82.693 1.54173C82.2454 1.18484 81.6234 1.14209 81.1306 1.43417C78.134 3.21143 74.901 4.48866 71.5112 5.23553C68.0965 1.89889 63.4586 0 58.6641 0C48.5436 0 40.3098 8.23349 40.3098 18.3537C40.3098 19.1508 40.3603 19.9435 40.4601 20.7251C27.9015 19.6224 16.226 13.4497 8.20845 3.61493C7.92272 3.26438 7.48255 3.07546 7.03189 3.11159C6.58095 3.14689 6.1758 3.40118 5.94799 3.79199C4.32186 6.58227 3.46219 9.77357 3.46219 13.0206C3.46219 17.443 5.04115 21.6391 7.83033 24.9178C6.98224 24.6241 6.15925 24.257 5.37377 23.8209C4.95207 23.5862 4.43742 23.5898 4.01848 23.8301C3.59926 24.0703 3.33643 24.5121 3.32539 24.995C3.32346 25.0764 3.32346 25.1578 3.32346 25.2402C3.32346 31.8415 6.87633 37.7848 12.3082 41.0241C11.8416 40.9774 11.3752 40.9099 10.9119 40.8213C10.4342 40.73 9.94297 40.8975 9.62083 41.2618C9.29814 41.6258 9.19141 42.1333 9.34007 42.5967C11.3507 48.8739 16.5272 53.4911 22.7851 54.8988C17.5948 58.1496 11.6593 59.8524 5.42838 59.8524C4.12825 59.8524 2.82068 59.7761 1.54096 59.6246C0.905238 59.5491 0.297372 59.9244 0.0808683 60.529C-0.135636 61.1338 0.0938308 61.8082 0.634677 62.1548C8.63926 67.2872 17.8949 70 27.4004 70C46.087 70 57.7768 61.1881 64.2926 53.7958C72.4177 44.5783 77.0777 32.3777 77.0777 20.3227C77.0777 19.8191 77.0699 19.3105 77.0545 18.8036C80.2601 16.3884 83.0201 13.4654 85.2659 10.1059C85.6071 9.59567 85.5701 8.92134 85.1749 8.45165C84.7802 7.98169 84.1225 7.82972 83.5609 8.07849Z" fill="#4B6A8A"/>
</svg>
