<svg width="70" height="70" viewBox="0 0 70 70" fill="none" xmlns="http://www.w3.org/2000/svg">
<path d="M35 0C54.3112 0 70 15.6888 70 35C70 54.3112 54.3112 70 35 70C15.6888 70 0 54.3112 0 35C0 15.6888 15.6888 0 35 0ZM36.5909 3.38068V18.2955H47.8515C47.18 16.0178 46.3769 13.9192 45.4652 12.081C43.006 7.12254 39.8827 4.12087 36.5909 3.38068ZM33.4091 3.38068C30.1173 4.12087 26.994 7.12254 24.5348 12.081C23.6231 13.9192 22.82 16.0178 22.1485 18.2955H33.4091V3.38068ZM44.1974 4.54901C45.7503 6.2334 47.126 8.29902 48.299 10.6641C49.4272 12.9388 50.388 15.5103 51.1577 18.2955H62.0952C58.0578 11.7557 51.7148 6.81036 44.1974 4.54901ZM25.8026 4.54901C18.2852 6.81036 11.9422 11.7557 7.90483 18.2955H18.8423C19.612 15.5103 20.5728 12.9388 21.701 10.6641C22.874 8.29902 24.2498 6.2334 25.8026 4.54901ZM63.8104 21.4773H51.9282C52.7123 25.1757 53.1759 29.2 53.2706 33.4091H66.7685C66.5597 29.1529 65.5268 25.1306 63.8104 21.4773ZM48.6719 21.4773H36.5909V33.4091H50.0888C49.9878 29.1601 49.4898 25.1242 48.6719 21.4773ZM33.4091 21.4773H21.3281C20.5102 25.1242 20.0122 29.1601 19.9112 33.4091H33.4091V21.4773ZM18.0718 21.4773H6.18959C4.47316 25.1306 3.44026 29.1529 3.23153 33.4091H16.7294C16.8241 29.2 17.2877 25.1757 18.0718 21.4773V21.4773ZM66.7685 36.5909H53.2706C53.1771 40.807 52.7137 44.8233 51.9282 48.5227H63.8104C65.5211 44.8747 66.5601 40.8391 66.7685 36.5909ZM50.0888 36.5909H36.5909V48.5227H48.6719C49.49 44.8716 49.9892 40.8448 50.0888 36.5909ZM33.4091 36.5909H19.9112C20.0109 40.8448 20.51 44.8716 21.3281 48.5227H33.4091V36.5909ZM16.7294 36.5909H3.23153C3.43986 40.8391 4.47889 44.8747 6.18959 48.5227H18.0718C17.2863 44.8233 16.8229 40.807 16.7294 36.5909V36.5909ZM62.0952 51.7045H51.1577C50.388 54.4855 49.4272 57.0362 48.299 59.3111C47.1259 61.6763 45.7504 63.787 44.1974 65.4759C51.7148 63.2145 58.0578 58.2443 62.0952 51.7045ZM47.8515 51.7045H36.5909V66.6442C39.8827 65.904 43.006 62.8774 45.4652 57.919C46.3799 56.0747 47.1786 53.991 47.8515 51.7045ZM33.4091 51.7045H22.1485C22.8214 53.991 23.6201 56.0747 24.5348 57.919C26.994 62.8774 30.1173 65.904 33.4091 66.6442V51.7045V51.7045ZM18.8423 51.7045H7.90483C11.9422 58.2443 18.2852 63.2145 25.8026 65.4759C24.2496 63.787 22.8741 61.6763 21.701 59.3111C20.5728 57.0362 19.612 54.4855 18.8423 51.7045Z" fill="#4B6A8A"/>
</svg>
