<svg width="256" height="256" viewBox="0 0 256 256" class="icon">
  <path
    d="M55.4914 31.1453C84.8412 53.1399 116.41 97.7358 128.001 121.669C139.592 97.7376 171.159 53.1394 200.51 31.1453C221.687 15.2748 256 2.99519 256 42.0697C256 49.8734 251.518 107.625 248.889 117.001C239.751 149.597 206.453 157.911 176.834 152.879C228.608 161.675 241.778 190.81 213.335 219.945C159.315 275.279 135.692 206.062 129.636 188.326C128.527 185.075 128.008 183.554 128 184.847C127.992 183.554 127.473 185.075 126.363 188.326C120.31 206.062 96.6884 275.281 42.6652 219.945C14.2212 190.81 27.3914 161.673 79.1658 152.879C49.5459 157.911 16.2475 149.597 7.11102 117.001C4.48209 107.624 0 49.8725 0 42.0697C0 2.99519 34.3135 15.2748 55.4899 31.1453H55.4914Z"
  />
</svg>
