<svg width="256" height="256" viewBox="0 0 256 256" class="icon">
  <path d="M39.5 46.8758V17.3758C39.5 13.2946 42.7946 10 46.8758 10C50.957 10 54.2484 13.2946 54.2484 17.3758V46.8758C54.2484 50.957 50.957 54.2484 46.8758 54.2484C42.7946 54.2484 39.5 50.957 39.5 46.8758ZM164.876 54.2484C168.957 54.2484 172.248 50.957 172.248 46.8758V17.3758C172.248 13.2946 168.957 10 164.876 10C160.795 10 157.5 13.2946 157.5 17.3758V46.8758C157.5 50.957 160.795 54.2484 164.876 54.2484ZM246 187C246 219.584 219.584 246 187 246C154.416 246 128 219.584 128 187C128 154.416 154.416 128 187 128C219.584 128 246 154.416 246 187ZM231.248 187C231.248 162.601 211.399 142.752 187 142.752C162.601 142.752 142.752 162.601 142.752 187C142.752 211.399 162.601 231.248 187 231.248C211.399 231.248 231.248 211.399 231.248 187ZM69 98.5H39.5V128H69V98.5ZM39.5 172.248H69V142.752H39.5V172.248ZM83.7516 128H113.248V98.5H83.7516V128ZM83.7516 172.248H113.248V142.752H83.7516V172.248ZM24.7516 185.524V83.7516H187V113.248H201.752V55.7242C201.752 46.7657 194.609 39.5 185.77 39.5H179.624V46.8758C179.624 55.0005 173.013 61.6242 164.876 61.6242C156.739 61.6242 150.124 55.0005 150.124 46.8758V39.5H61.6242V46.8758C61.6242 55.0005 55.0131 61.6242 46.8758 61.6242C38.7385 61.6242 32.1242 55.0005 32.1242 46.8758V39.5H25.9788C17.1524 39.5 10 46.7657 10 55.7242V185.537C10 194.461 17.1524 201.752 25.9788 201.752H113.248V187H25.9788C25.3148 187 24.7516 186.311 24.7516 185.524ZM157.5 128V98.5H128V128H157.5ZM209.124 187H187V164.876C187 160.795 183.705 157.5 179.624 157.5C175.543 157.5 172.248 160.795 172.248 164.876V194.376C172.248 198.457 175.543 201.752 179.624 201.752H209.124C213.205 201.752 216.5 198.457 216.5 194.376C216.5 190.295 213.205 187 209.124 187Z" />
</svg>
