<svg width="256" height="256" viewBox="0 0 256 256" class="icon">
  <path d="M189.44 245.64H59.6556C32.311 245.64 10 223.465 10 196.12V70.6887C10 43.3441 32.311 21.1692 59.6556 21.1692H125.364C130.67 21.1692 134.887 25.3865 134.887 30.6922C134.887 35.9978 130.67 40.2152 125.364 40.2152H59.6556C42.7863 40.2152 29.046 53.9555 29.046 70.8248V196.256C29.046 213.125 42.7863 226.73 59.6556 226.73H189.44C206.31 226.73 219.914 212.989 219.914 196.256V134.221C219.914 128.915 224.131 124.698 229.437 124.698C234.742 124.698 238.96 128.915 238.96 134.221V196.256C239.096 223.465 216.785 245.64 189.44 245.64Z" />
  <path d="M189.44 245.64H59.6556C32.311 245.64 10 223.465 10 196.12V70.6887C10 43.3441 32.311 21.1692 59.6556 21.1692H125.364C130.67 21.1692 134.887 25.3865 134.887 30.6922C134.887 35.9978 130.67 40.2152 125.364 40.2152H59.6556C42.7863 40.2152 29.046 53.9555 29.046 70.8248V196.256C29.046 213.125 42.7863 226.73 59.6556 226.73H189.44C206.31 226.73 219.914 212.989 219.914 196.256V134.221C219.914 128.915 224.131 124.698 229.437 124.698C234.742 124.698 238.96 128.915 238.96 134.221V196.256C239.096 223.465 216.785 245.64 189.44 245.64Z" />
  <path d="M99.1079 173.945C94.4825 173.945 89.9931 172.04 86.7281 168.639C82.7828 164.558 81.1503 158.708 82.3747 152.995L88.7687 124.426C89.4489 121.297 91.0814 118.304 93.3941 116.127L193.522 15.9996C200.188 9.33348 211.071 9.33348 217.737 15.9996L241 39.2629C247.667 45.929 247.667 56.8124 241 63.4785L141.009 163.47C138.56 165.919 135.431 167.551 132.03 168.231L102.237 173.673C101.149 173.809 100.06 173.945 99.1079 173.945ZM107.27 129.187L101.693 154.355L127.949 149.593L226.172 51.3707L205.629 30.8282C205.629 30.8282 107.27 129.187 107.27 129.187Z" />
</svg>
