<svg width="256" height="256" viewBox="0 0 256 256" class="icon">
  <path fill-rule="evenodd" clip-rule="evenodd" d="M174.898 189.878C204.468 186.347 230.214 168.127 233.45 151.48C238.549 125.255 238.128 87.4826 238.128 87.4826C238.128 36.287 204.586 21.2807 204.586 21.2807C187.674 13.5131 158.633 10.2467 128.461 10H127.72C97.5486 10.2467 68.5266 13.5131 51.6132 21.2807C51.6132 21.2807 18.0698 36.287 18.0698 87.4826C18.0698 90.5862 18.0537 93.8507 18.037 97.2491C17.9907 106.687 17.9392 117.158 18.2122 128.088C19.4303 178.154 27.3911 227.497 73.6813 239.75C95.0247 245.399 113.35 246.581 128.108 245.77C154.872 244.286 169.896 236.219 169.896 236.219L169.013 216.8C169.013 216.8 149.887 222.831 128.408 222.096C107.127 221.366 84.6607 219.801 81.2187 193.673C80.9009 191.378 80.7419 188.924 80.7419 186.347C80.7419 186.347 101.633 191.453 128.108 192.666C144.297 193.409 159.478 191.717 174.898 189.878ZM198.563 153.444V91.4542C198.563 78.785 195.337 68.7173 188.859 61.2688C182.176 53.8204 173.425 50.0021 162.564 50.0021C149.995 50.0021 140.478 54.8325 134.187 64.4946L128.068 74.7492L121.951 64.4946C115.659 54.8325 106.141 50.0021 93.5739 50.0021C82.7115 50.0021 73.961 53.8204 67.2793 61.2688C60.7997 68.7173 57.5739 78.785 57.5739 91.4542V153.444H82.1329V93.2762C82.1329 80.593 87.4694 74.1555 98.1436 74.1555C109.946 74.1555 115.862 81.7921 115.862 96.8924V129.825H140.276V96.8924C140.276 81.7921 146.191 74.1555 157.993 74.1555C168.667 74.1555 174.004 80.593 174.004 93.2762V153.444H198.563Z" />
</svg>
