<svg width="256" height="256" viewBox="0 0 256 256" class="icon">
  <path d="M120.844 67.605C139.642 99.5141 150.545 133.256 153.881 169.63C153.975 170.382 153.27 170.992 152.518 170.851C127 165.024 101.201 163.661 75.2127 166.669C68.0226 167.515 60.9264 168.878 53.7833 170.1C52.5615 170.335 52.0445 169.912 51.4336 168.925C43.9145 156.847 39.497 143.689 38.2282 129.496C38.1342 128.228 38.6511 127.805 39.638 127.335C67.8816 114.552 92.4126 96.6475 113.56 74.0902C115.44 72.0695 117.085 69.8607 118.917 67.464C119.434 66.8531 120.421 66.9001 120.844 67.605Z" />
  <path d="M91.3788 226.587C86.7264 224.519 84.0477 220.007 81.51 215.684C77.8445 209.387 75.2128 202.62 73.615 195.523C72.2522 189.508 68.7276 185.232 64.1221 181.566C63.1353 180.814 62.1484 180.109 61.2085 179.216C59.5637 177.666 59.7047 176.303 61.7724 175.504C64.7801 174.376 67.8347 173.342 70.9833 172.637C81.745 170.288 92.6477 169.348 103.644 170.382C105.289 170.522 106.088 171.227 105.994 172.731C105.853 175.551 105.853 178.418 105.289 181.19C104.161 186.595 102.939 204.17 109.472 214.086C111.868 217.752 114.97 219.303 116.756 220.9C118.307 222.263 117.978 224.754 116.098 225.647C108.626 229.359 95.7493 228.513 91.3788 226.587Z" />
  <path d="M32.307 131.799C33.7168 145.757 38.0873 158.633 45.3714 170.805C45.6533 171.274 45.3714 171.885 44.8544 172.026C39.5911 173.154 34.8917 175.833 29.4403 175.41C21.7333 174.799 16.1409 171.086 13.1803 164.037C11.2535 159.526 9.42075 154.826 10.1727 149.657C11.3005 142.138 15.483 137.016 22.4852 134.243C25.3048 133.115 28.1715 132.175 31.2261 131.141C31.696 130.953 32.26 131.282 32.307 131.799Z" />
  <path d="M165.818 171.321C165.959 172.872 165.395 174.047 163.985 174.611C162.293 175.316 160.507 176.303 158.769 174.752C158.346 174.376 158.111 173.577 158.064 172.966C154.069 133.538 142.086 96.7416 122.207 62.4827C120.891 60.227 122.207 59.1931 126.484 58.1123C127.376 57.8773 128.269 58.3002 128.739 59.0991C139.454 78.4608 148.806 98.3864 155.291 119.581C159.239 132.504 164.878 164.037 165.254 166.575C165.348 166.528 165.677 169.724 165.818 171.321Z" />
  <path d="M204.165 150.315L196.975 146.556C213 115.68 200.969 77.7089 170.094 61.6838L173.854 54.4467C174.559 53.0369 176.297 52.5199 177.66 53.3188C211.12 72.3515 224.373 114.176 207.972 149.046C207.267 150.456 205.528 151.02 204.165 150.315Z" />
  <path d="M234.241 158.727L229.354 155.86C227.474 154.78 226.628 152.101 227.427 149.798C234.1 130.295 234.57 108.725 228.649 88.5645C222.728 68.404 211.026 51.909 195.612 41.6642C193.779 40.4424 193.027 37.7637 193.92 35.508L196.223 29.6337C197.163 27.237 199.607 26.2971 201.58 27.566C220.049 39.6905 234.006 59.3811 241.056 83.3952C248.152 107.409 247.588 133.162 239.505 156.377C238.659 158.821 236.262 159.902 234.241 158.727Z" />
  <path d="M176.72 139.694L172.35 137.439C170.94 136.687 170.329 134.995 170.94 133.538C178.177 116.62 171.88 96.8825 156.278 87.2017C154.915 86.3558 154.445 84.617 155.15 83.2072L157.406 78.8367C158.205 77.2859 160.178 76.722 161.682 77.6619C182.266 90.1624 190.49 116.15 180.856 138.191C180.198 139.835 178.271 140.54 176.72 139.694Z" />
</svg>
