<svg width="256" height="256" viewBox="0 0 256 256" class="icon">
  <path d="M136.316 158.126H122.823C117.916 158.126 113.942 154.151 113.942 149.245C113.942 144.339 117.916 140.364 122.823 140.364H146.57C149.808 140.364 152.458 137.715 152.458 134.477C152.458 131.238 149.808 128.589 146.57 128.589H135.432V120.395C135.432 117.157 132.783 114.507 129.545 114.507C126.306 114.507 123.657 117.157 123.657 120.395V128.589H122.823C111.44 128.589 102.167 137.862 102.167 149.245C102.167 160.628 111.44 169.901 122.823 169.901H136.316C141.222 169.901 145.196 173.875 145.196 178.782C145.196 183.688 141.222 187.662 136.316 187.662H112.127C108.889 187.662 106.239 190.312 106.239 193.55C106.239 196.788 108.889 199.438 112.127 199.438H123.706V207.828C123.706 211.066 126.356 213.716 129.594 213.716C132.832 213.716 135.482 211.066 135.482 207.828V199.438H136.463C136.512 199.438 136.561 199.438 136.61 199.438C147.895 199.291 156.972 190.067 156.972 178.782C156.972 167.399 147.699 158.126 136.316 158.126Z" />
  <path d="M218.057 144.78C211.875 130.551 203.338 116.764 192.543 103.86C179.492 88.1597 166.49 77.6599 159.867 72.8025L184.889 26.3875C186.116 24.0815 185.724 21.2358 183.81 19.4204C177.333 13.0911 170.464 10 162.81 10C155.794 10 149.367 12.6495 143.773 15.0046C139.358 16.82 135.187 18.5863 131.802 18.5863C130.771 18.5863 129.888 18.4391 129.005 18.0956C117.328 13.827 108.349 11.1775 99.6645 11.1775C88.674 11.1775 79.3027 15.5933 70.1277 25.0137C68.2141 26.9763 67.9198 30.0674 69.4408 32.3734L96.4262 73.1459C89.7534 78.1015 76.9967 88.5031 64.1909 103.86C53.4457 116.764 44.8595 130.551 38.6773 144.78C30.9252 162.689 27 181.382 27 200.321C27 225.491 47.5089 246 72.679 246H184.055C209.225 246 229.734 225.491 229.734 200.321C229.734 181.382 225.809 162.689 218.057 144.78ZM82.0012 29.9202C87.6927 25.0137 93.1389 22.8549 99.6645 22.8549C106.632 22.8549 114.482 25.21 124.933 29.0861C127.091 29.8711 129.398 30.2636 131.753 30.2636C137.493 30.2636 142.988 28.0067 148.238 25.7988C153.292 23.689 158.1 21.6773 162.761 21.6773C165.018 21.6773 168.207 22.0699 172.231 24.9156L148.68 68.6811H107.662L82.0012 29.9202ZM184.055 234.225H72.679C53.9854 234.225 38.7755 219.015 38.7755 200.321C38.7755 168.871 50.3056 139.039 72.9734 111.662C87.3002 94.3418 101.872 83.5967 106.288 80.4566H150.348C154.813 83.5476 169.336 94.3418 183.663 111.662C206.38 139.039 217.861 168.822 217.861 200.321C217.959 219.015 202.749 234.225 184.055 234.225Z" />
</svg>
