<svg xmlns="http://www.w3.org/2000/svg" viewBox="0 0 57.9999 62">
  <path fill="#FFFFFF" style="fill-opacity: 0.5;" d="M36.6,21.2l3.7,9.8c1.8,4.8-1.8,10-6.9,10H24c-0.9,0-1.7-0.1-2.6-0.2L29,61h4.5c10.8,0,20.1-8.4,20.5-19.3
	C54.4,31.2,46.6,22.5,36.6,21.2z" />
  <path fill="#FFFFFF" style="fill-opacity: 0.3;" d="M24.7,21H34c0.9,0,1.7,0.1,2.6,0.2L29,1h-4.5C13.6,1,4.4,9.4,4,20.3c-0.4,10.5,7.4,19.3,17.4,20.5L17.8,31
	C15.9,26.2,19.5,21,24.7,21z" />
  <path fill="#FFFFFF" style="fill-opacity: 0.75;" d="M33.3,41c5.2,0,8.8-5.2,6.9-10l-3.7-9.8C35.7,21.1,34.9,21,34,21h-9.3c-5.2,0-8.8,5.2-6.9,10l3.7,9.8
	c0.8,0.1,1.7,0.2,2.6,0.2H33.3z" />
  <circle fill="#FFFFFF" style="fill-opacity: 0.5;" cx="11" cy="51" r="10" />
  <circle fill="#FFFFFF" style="fill-opacity: 0.3;" cx="47" cy="11" r="10" />
</svg>
