<svg width="256" height="256" viewBox="0 0 256 256" class="icon">
  <path d="M102.102 10C51.4068 10 10 51.3903 10 102.067C10 152.744 51.4065 194.135 102.102 194.135C122.261 194.135 140.957 187.584 156.158 176.512L221.458 241.787C227.077 247.404 236.165 247.405 241.785 241.787C247.405 236.17 247.405 226.995 241.785 221.377L176.576 156.193C187.677 140.986 194.205 122.245 194.205 102.067C194.205 51.3903 152.798 10 102.102 10V10ZM102.102 38.771C137.243 38.771 165.423 66.9396 165.423 102.067C165.423 137.195 137.243 165.364 102.102 165.364C66.9618 165.364 38.7819 137.195 38.7819 102.067C38.7819 66.9396 66.9615 38.771 102.102 38.771Z" />
</svg>
