<svg width="256" height="256" viewBox="0 0 256 256" class="icon">
  <path d="M128 10C193.106 10 246 62.8937 246 128C246 193.106 193.106 246 128 246C62.8938 246 10 193.106 10 128C10 62.8937 62.8938 10 128 10ZM133.364 21.3977V71.6818H171.328C169.064 64.003 166.356 56.9274 163.283 50.7301C154.992 34.0131 144.462 23.8932 133.364 21.3977ZM122.636 21.3977C111.538 23.8932 101.008 34.0131 92.7175 50.7301C89.6436 56.9274 86.936 64.003 84.672 71.6818H122.636V21.3977ZM159.009 25.3366C164.244 31.0155 168.882 37.9795 172.837 45.9531C176.64 53.6224 179.88 62.292 182.474 71.6818H219.349C205.738 49.6335 184.353 32.9607 159.009 25.3366ZM96.9915 25.3366C71.6472 32.9607 50.2621 49.6335 36.6506 71.6818H73.5256C76.1205 62.292 79.3596 53.6224 83.1632 45.9531C87.1181 37.9795 91.7563 31.0155 96.9915 25.3366ZM225.132 82.4091H185.072C187.716 94.8782 189.279 108.446 189.598 122.636H235.105C234.401 108.287 230.919 94.7261 225.132 82.4091ZM174.094 82.4091H133.364V122.636H178.871C178.53 108.311 176.851 94.7046 174.094 82.4091ZM122.636 82.4091H81.9063C79.1485 94.7046 77.4697 108.311 77.1291 122.636H122.636V82.4091ZM70.9277 82.4091H30.8678C25.0809 94.7261 21.5986 108.287 20.8949 122.636H66.4019C66.7213 108.446 68.2842 94.8782 70.9277 82.4091V82.4091ZM235.105 133.364H189.598C189.283 147.578 187.721 161.119 185.072 173.591H225.132C230.9 161.292 234.403 147.686 235.105 133.364ZM178.871 133.364H133.364V173.591H174.094C176.852 161.281 178.535 147.705 178.871 133.364ZM122.636 133.364H77.1291C77.4652 147.705 79.148 161.281 81.9063 173.591H122.636V133.364ZM66.4019 133.364H20.8949C21.5973 147.686 25.1002 161.292 30.8678 173.591H70.9277C68.2794 161.119 66.7172 147.578 66.4019 133.364V133.364ZM219.349 184.318H182.474C179.88 193.694 176.64 202.294 172.837 209.963C168.882 217.937 164.244 225.053 159.009 230.747C184.353 223.123 205.738 206.366 219.349 184.318ZM171.328 184.318H133.364V234.686C144.462 232.191 154.992 221.987 163.283 205.27C166.367 199.052 169.059 192.027 171.328 184.318ZM122.636 184.318H84.672C86.9406 192.027 89.6334 199.052 92.7175 205.27C101.008 221.987 111.538 232.191 122.636 234.686V184.318V184.318ZM73.5256 184.318H36.6506C50.2621 206.366 71.6472 223.123 96.9915 230.747C91.7558 225.053 87.1184 217.937 83.1632 209.963C79.3596 202.294 76.1205 193.694 73.5256 184.318Z" />
</svg>
