<svg width="1400" height="636" viewBox="0 0 1400 636" fill="none" xmlns="http://www.w3.org/2000/svg">
  <path d="M328.899 634.335C323.525 632.324 322.022 630.355 323.298 626.998C323.89 625.442 325.026 624.17 325.822 624.17C326.619 624.17 330.108 626.003 333.574 628.244C337.041 630.484 341.28 632.827 342.994 633.449L346.111 634.581L342.277 634.664C340.168 634.71 337.074 634.946 335.401 635.189C333.728 635.431 330.802 635.047 328.899 634.335V634.335ZM316.702 624.013C315.691 623.446 314.004 623.256 312.954 623.589C311.632 624.009 310.611 623.383 309.632 621.555C308.855 620.104 307.463 618.656 306.538 618.337C304.416 617.607 299.967 610.4 297.491 603.679C296.24 600.285 294.558 597.939 292.562 596.804C289.019 594.788 288.765 593.874 291.507 593.004C294.645 592.008 295.228 586.478 292.587 582.769C291.327 580.999 290.664 578.921 291.044 577.931C291.492 576.764 290.255 574.715 287.26 571.663C283.48 567.812 282.781 566.412 282.612 562.353C282.503 559.726 281.863 556.914 281.191 556.104C280.344 555.083 280.171 551.42 280.628 544.178C281.124 536.33 280.835 531.486 279.47 524.734C277.442 514.708 276.406 496.027 276.933 478.983C277.045 475.347 276.574 470.355 275.885 467.889C274.209 461.885 266.495 454.307 256.962 449.297C250.143 445.714 249.184 444.796 246.519 439.292C244.904 435.959 241.819 430.978 239.663 428.223C237.507 425.467 235.162 421.421 234.453 419.231C232.203 412.28 228.235 405.295 225.531 403.523C224.091 402.58 222.45 400.128 221.883 398.074C220.965 394.751 221.207 393.823 224.079 389.648C227.194 385.12 227.231 384.936 225.126 384.385C219.954 383.033 222.129 376.12 231.413 364.404C237.583 356.618 239.391 350.686 237.682 343.834C237.03 341.222 236.447 338.491 236.385 337.763C236.324 337.036 235.86 336.441 235.355 336.441C234.85 336.441 234.947 335.487 235.571 334.321C236.533 332.524 236.29 332.011 233.979 330.958C230.611 329.424 225.525 330.941 225.506 333.486C225.482 336.538 224.14 336.763 219.714 334.456C217.344 333.221 214.882 332.21 214.243 332.21C213.604 332.21 211.12 330.52 208.722 328.454C206.324 326.389 203.768 324.228 203.04 323.652C202.313 323.077 201.718 321.508 201.718 320.167C201.718 318.826 200.784 316.883 199.642 315.849C198.5 314.816 197.021 312.319 196.354 310.299C195.478 307.645 194.823 306.947 193.987 307.782C192.245 309.525 189.664 309.194 183.402 306.424C180.128 304.977 176.717 302.504 175.355 300.59C174.054 298.764 171.569 296.535 169.833 295.637C166.967 294.155 166.251 294.167 162.076 295.761L157.477 297.517L143.367 290.68C134.688 286.474 127.951 282.462 125.865 280.255C122.63 276.834 122.525 276.463 123.602 272.222C124.588 268.337 124.42 267.135 122.276 262.704C120.926 259.915 117.976 255.631 115.72 253.184C113.465 250.737 111.876 248.321 112.189 247.814C112.502 247.308 110.914 243.893 108.659 240.227C106.097 236.062 104.289 231.6 103.84 228.335C103.265 224.149 102.594 222.868 100.47 221.901C98.2195 220.875 97.59 221.006 96.3012 222.767C94.4859 225.246 95.002 227.864 99.0157 236.538C100.647 240.063 102.332 245.288 102.761 248.149C103.191 251.011 104.458 255.148 105.578 257.344C108.231 262.544 106.518 262.452 102.334 257.17C99.8671 254.055 99.2007 252.346 99.691 250.392C100.215 248.306 99.6991 247.302 97.1346 245.405C93.2452 242.53 92.422 240.675 93.8507 238.005C94.6839 236.448 94.3018 234.741 92.186 230.566C90.0373 226.326 89.5879 224.271 90.1199 221.123C90.9895 215.975 88.6801 211.316 84.375 209.533C81.8893 208.504 81.0324 207.352 80.526 204.36C80.1677 202.242 79.4814 198.967 79.0009 197.081C78.5012 195.119 78.5375 193.398 79.0859 193.059C79.6131 192.733 79.2682 191.282 78.3194 189.834C76.9221 187.701 76.8264 186.692 77.8157 184.52C78.4874 183.046 78.741 181.361 78.3791 180.775C78.0173 180.19 78.919 178.44 80.3829 176.888C81.8469 175.335 83.7959 172.238 84.7141 170.006C85.6322 167.774 88.4617 163.636 91.0018 160.811C93.542 157.986 96.7622 153.037 98.1579 149.814C100.095 145.339 101.231 143.948 102.958 143.935C104.203 143.925 105.155 144.512 105.074 145.239C104.737 148.27 107.133 147.336 109.825 143.388C111.412 141.06 112.268 138.998 111.727 138.804C111.187 138.61 110.745 137.734 110.745 136.858C110.745 135.982 108.555 133.137 105.878 130.536C101.439 126.221 101.154 125.649 102.63 124.018C103.826 122.696 103.967 121.727 103.169 120.302C101.768 117.797 103.979 112.188 106.377 112.166C107.368 112.156 107.651 111.819 107.043 111.372C105.678 110.37 105.06 108.093 105.252 104.777C105.558 99.4802 104.399 97.2646 100.461 95.6192C98.3366 94.7317 95.0955 92.859 93.2582 91.4576C91.4209 90.0562 89.0898 88.9096 88.0781 88.9096C87.0663 88.9096 82.4673 87.9468 77.8581 86.7699C70.4477 84.8779 69.1416 84.8032 66.5747 86.1243C61.2549 88.8622 55.6188 89.9782 53.3211 88.7485C51.5976 87.8261 49.7168 88.3957 43.1583 91.8263C38.7319 94.1417 33.4443 96.3954 31.4079 96.8345C29.3716 97.2737 25.4746 98.7571 22.7479 100.131C15.0135 104.028 3.93412 107.957 0.869473 107.889C-1.10839 107.845 0.228812 106.977 5.49119 104.89C14.4346 101.344 23.6244 96.7252 24.4745 95.3498C25.5214 93.6558 23.2488 93.048 20.5189 94.2919C18.509 95.2077 17.2703 95.122 14.9509 93.9068L11.968 92.3438L15.2128 90.6659C18.8809 88.769 20.0347 86.623 19.192 83.2652C18.3758 80.0131 22.8761 77.6236 32.5709 76.1615C37.7801 75.3759 41.7401 74.0682 44.4063 72.2532C49.1078 69.0527 48.3001 66.6338 43.231 68.7335C40.8313 69.7275 39.0834 69.7383 35.5296 68.7814C31.2108 67.6185 31.0569 67.4525 32.9887 66.0399C36.221 63.6764 42.9062 62.2548 47.2985 62.9968C50.0779 63.4664 52.3546 63.1377 54.6911 61.9294L58.0675 60.1834L55.8449 57.8176C54.6225 56.5164 53.6223 55.172 53.6223 54.83C53.6223 53.8486 59.9905 51.8857 63.1746 51.8857C64.764 51.8857 69.1209 50.7352 72.8568 49.329C76.5927 47.9228 85.2119 46.0031 92.0105 45.0629C103.037 43.538 105.372 43.5194 113.641 44.8904C118.739 45.7357 125.766 46.7439 129.257 47.1308C132.748 47.5177 138.926 48.7459 142.987 49.86C152.419 52.4476 158.562 52.4161 169.099 49.7258C173.751 48.5379 178.454 47.8502 179.549 48.1977C180.644 48.5451 182.505 48.3126 183.685 47.6809C185.312 46.8105 186.573 46.9158 188.893 48.1157C190.99 49.1999 193.578 49.5093 197.101 49.0971C200.818 48.6623 204.073 49.1126 208.825 50.7193C212.443 51.9427 216.461 52.9435 217.754 52.9435C220.045 52.9435 220.053 52.9824 218.052 54.4547C216.09 55.8985 216.085 55.9992 217.927 56.713C218.987 57.124 222.668 57.1661 226.107 56.8067C232.317 56.1576 232.371 56.1759 234.103 59.5246L235.846 62.8961L238.109 60.0579C239.41 58.4269 242.5 56.5793 245.375 55.714C249.72 54.4064 251.039 54.4108 255.403 55.7472C258.483 56.6906 262.17 57.0343 264.932 56.6354C268.448 56.1276 270.08 56.4439 272.374 58.0775C275.271 60.1397 275.351 60.1408 277.92 58.15C279.353 57.039 282.303 55.6349 284.475 55.0297C289.674 53.5811 291.438 50.4941 288.315 48.3071C286.107 46.7604 286.204 46.6424 292.008 43.7957C296.337 41.6726 298.286 41.1905 299.13 42.0343C299.974 42.878 299.965 43.8061 299.099 45.4252C297.622 48.1848 299.46 52.356 301.764 51.4721C302.592 51.1543 303.966 51.1614 304.816 51.4879C306.153 52.0007 306.131 52.4356 304.659 54.6825C300.592 60.8899 309.71 59.1311 315.883 52.5176C318.393 49.8288 322.281 49.0136 325.926 50.4121C328.28 51.3154 328.059 52.0548 324.161 56.3288C319.516 61.4222 317.139 62.464 310.162 62.464C306.79 62.464 302.809 63.1945 300.955 64.1537C298.387 65.4815 297.135 65.5919 295.11 64.6692C291.334 62.9489 290.02 64.3808 292.728 67.2636L295.04 69.7244L290.428 71.0335C287.891 71.7534 283.673 72.4121 281.055 72.4972C277.258 72.6205 276.293 73.0327 276.288 74.5336C276.282 75.8179 274.435 77.1694 270.469 78.7906C257.619 84.0434 246.718 93.5144 250.665 95.9974C251.404 96.4627 252.578 98.1393 253.273 99.7232C254.074 101.547 255.617 102.819 257.482 103.193C259.102 103.517 263.284 105.189 266.774 106.908C270.265 108.627 274.549 110.344 276.295 110.725C281.1 111.772 281.142 111.882 278.904 117.56C276.989 122.418 276.951 123.111 278.435 125.98C279.324 127.7 280.634 129.09 281.347 129.07C284.813 128.969 288.063 125.77 290.082 120.472C292.007 115.421 292.884 114.479 298.409 111.528C306.562 107.173 309.952 102.884 309.049 98.0683C308.46 94.9312 308.766 94.195 311.451 92.283C313.143 91.0781 315.384 88.1943 316.43 85.8746C318.768 80.6893 322.525 78.8919 328.861 79.9277C334.48 80.8463 341.125 84.4136 341.927 86.9424C342.257 87.9804 341.983 89.8447 341.319 91.0852C340.314 92.964 340.504 93.7573 342.457 95.8363L344.801 98.332L348.63 96.3474C350.735 95.2558 354.11 93.1265 356.13 91.6156L359.801 88.8684L360.664 91.2001C361.138 92.4825 361.273 94.1923 360.963 94.9997C360.653 95.8071 360.894 97.3916 361.498 98.5207C362.178 99.791 362.231 101.228 361.637 102.289C360.967 103.486 361.415 105.304 363.117 108.301C365.556 112.595 365.557 112.599 363.415 114.099C360.596 116.073 362.405 118.167 365.498 116.511C368.57 114.867 372.087 115.081 374.256 117.044C377.462 119.945 374.796 123.416 366.286 127.42C357.03 131.775 352.904 132.638 340.822 132.744C331.901 132.823 330.719 133.108 322.046 137.266C316.955 139.706 312.79 142.122 312.79 142.633C312.79 144.816 314.394 144.626 320.548 141.715C324.174 139.999 328.848 138.629 331.075 138.628C334.877 138.628 335.016 138.745 333.828 140.964C333.141 142.249 331.657 144.046 330.532 144.957C328.763 146.39 328.659 146.994 329.766 149.425C331.427 153.07 335.765 154.824 340.953 153.949L345.054 153.257L341.901 155.432C340.167 156.629 337.311 157.918 335.554 158.297C333.797 158.676 330.186 160.082 327.53 161.42C324.834 162.778 322.125 163.497 321.398 163.047C319.724 162.013 321.491 160.46 326.93 158.188C331.767 156.167 330.994 154.02 325.781 154.998C323.75 155.378 317.166 157.859 311.148 160.509C301.756 164.646 300.118 165.738 299.571 168.228C298.899 171.288 296.606 172.735 288.544 175.188C285.972 175.97 282.64 177.861 281.139 179.39C279.638 180.918 276.765 183.207 274.753 184.476C272.741 185.744 270.815 187.967 270.473 189.415C269.909 191.801 269.777 191.858 269.071 190.02C267.747 186.575 265.753 189.943 265.638 195.816C265.521 201.833 262.47 205.938 255.78 209.081C248.922 212.304 239.162 219.919 237.184 223.591C235.438 226.833 235.365 228.096 236.441 236.428C237.444 244.202 237.384 246.153 236.064 248.706C235.078 250.613 233.927 251.525 232.97 251.157C230.7 250.286 227.924 240.946 228.702 236.799C229.242 233.918 228.884 232.826 226.738 230.809C225.007 229.184 223.41 228.566 222.053 228.997C220.919 229.356 217.715 228.674 214.929 227.48C210.66 225.65 209.298 225.497 206.25 226.502C204.184 227.184 202.13 228.802 201.458 230.277C200.458 232.473 199.796 232.754 197.033 232.16C195.246 231.776 192.499 230.805 190.928 230.002C187.058 228.025 184.891 228.163 180.545 230.662C178.518 231.828 174.381 234.059 171.352 235.62C167.871 237.414 165.48 239.456 164.853 241.17C164.307 242.661 162.357 248.474 160.519 254.088L157.176 264.295L158.883 270.884C162.02 282.989 166.384 286.613 175.477 284.662C182.332 283.192 186.449 280.213 187.962 275.628C188.923 272.716 189.96 271.753 193.063 270.892C197.733 269.594 199.684 269.546 201.478 270.685C202.958 271.624 202.438 273.17 195.81 287.52C191.262 297.365 191.59 298.246 199.381 297.122C206.479 296.098 212.968 296.884 213.726 298.859C214.021 299.629 213.54 304.825 212.658 310.406C211.078 320.389 211.089 320.612 213.363 324.291C214.634 326.347 217.017 328.724 218.659 329.573C221.279 330.928 222.101 330.925 225.398 329.548C230.638 327.358 233.483 327.59 237.122 330.501C240.031 332.829 240.443 332.895 242.729 331.397C244.087 330.508 245.938 328.304 246.844 326.499C248.886 322.43 252.328 319.57 255.218 319.539C256.426 319.527 258.532 318.326 259.898 316.871C262.673 313.917 267.56 312.955 265.172 315.833C263.167 318.248 262.021 326.015 263.313 328.429C264.389 330.439 264.475 330.427 266.432 328.01C267.826 326.289 268.107 325.186 267.345 324.424C265.529 322.607 266.076 321.097 269.456 318.598C272.966 316.003 275.682 316.269 278.711 319.505C280.931 321.878 292.789 325.086 296.188 324.233C301.363 322.934 315.346 331.437 320.601 339.077C323.102 342.715 331.094 346.376 334.609 345.494C341.838 343.679 351.749 350.922 354.067 359.713C354.757 362.331 355.798 364.77 356.379 365.132C357.923 366.094 355.611 369.893 350.557 374.7C347.328 377.772 346.557 379.094 347.466 380.003C348.374 380.911 349.867 380.115 353.452 376.81C358.667 372.004 360.407 371.516 363.019 374.128C364.609 375.717 364.56 376.041 362.382 378.359C361.085 379.74 359.273 380.9 358.356 380.937C357.39 380.976 357.781 381.44 359.285 382.04C361.352 382.865 362.43 382.633 364.574 380.9C370.159 376.388 371.473 376.171 376.434 378.943C379.659 380.745 380.951 382.117 380.788 383.567C380.336 387.601 381.287 388.494 384.084 386.662C386.307 385.206 387.832 385.136 395.269 386.155C403.18 387.238 404.216 387.67 408.011 391.465C410.829 394.283 413.998 396.136 417.98 397.293C423.325 398.847 423.906 399.321 424.876 402.922C426.281 408.142 424.634 413.935 420.18 419.438C418.277 421.789 415.945 425.239 414.997 427.106C414.049 428.973 412.034 431.741 410.518 433.257C407.952 435.822 407.81 436.464 408.449 442.556C409.699 454.457 403.877 476.661 398.262 481.409C396.434 482.955 394.87 483.318 391.971 482.869C389.588 482.5 387.824 482.738 387.359 483.492C386.944 484.163 384.634 485.578 382.225 486.637C379.817 487.696 376.231 489.943 374.257 491.629C370.84 494.547 370.725 494.87 371.875 498.354C373.201 502.372 372.308 507.128 369.467 511.184C368.548 512.496 367.797 514.727 367.797 516.143C367.797 517.558 366.693 520.189 365.344 521.99C363.995 523.79 361.393 527.911 359.562 531.148C355.056 539.111 352.347 540.49 345.813 538.149C340.143 536.116 337.12 535.874 337.12 537.451C337.12 538.045 338.25 539.046 339.631 539.676C341.013 540.305 343.166 542.867 344.415 545.37C346.276 549.096 346.473 550.39 345.503 552.518C344.001 555.816 338.255 558.585 332.915 558.585C328.185 558.585 327.012 559.742 328.645 562.794C329.654 564.678 328.976 567.71 327.025 570.034C326.867 570.223 325.211 569.587 323.345 568.622C318.89 566.318 317.312 567.786 319.564 572.14C320.48 573.911 322.221 575.675 323.434 576.06C325.518 576.721 325.54 576.868 323.846 578.74C322.859 579.83 322.347 581.485 322.707 582.422C323.093 583.429 322.231 585.604 320.596 587.748C317.938 591.233 317.9 591.475 319.604 594.076C320.578 595.563 322.098 597.057 322.982 597.396C326.168 598.619 326.696 602.796 324.266 607.557C321.833 612.327 321.459 617.11 323.343 619.38C325.056 621.443 319.294 625.463 316.702 624.013H316.702ZM238.742 165.858C241.568 159.951 246.828 155.553 251.063 155.553C254.112 155.553 254.148 156.047 251.357 159.596L249.162 162.387L251.414 164.21C253.228 165.679 254.164 165.806 256.233 164.864C257.645 164.221 259.092 162.774 259.449 161.65C259.935 160.119 260.724 159.762 262.587 160.229C264.311 160.662 265.39 160.292 266.1 159.024C268.249 155.183 262.779 150.271 258.753 152.426C255.872 153.968 252.107 150.901 252.911 147.665C253.208 146.466 252.596 144.379 251.535 142.979C249.349 140.093 246.022 139.789 238.742 141.81C236.124 142.537 233.138 143.099 232.108 143.059C231.077 143.019 230.51 143.434 230.848 143.981C231.186 144.527 231.077 144.985 230.606 144.998C230.135 145.011 228.566 145.932 227.118 147.044L224.486 149.066L227.442 150.19C229.753 151.069 231.115 150.944 233.682 149.616C236.699 148.056 237.257 148.057 240.55 149.627C242.533 150.573 245.24 151.058 246.611 150.714C247.974 150.372 249.381 150.565 249.738 151.142C250.103 151.732 248.613 152.492 246.335 152.876C240.144 153.922 236.928 156.5 232.437 164.015C228.687 170.292 228.472 171.05 229.967 172.709C231.433 174.337 231.839 174.363 233.851 172.955C235.086 172.091 237.287 168.897 238.742 165.858V165.858ZM257.961 172.387C261.726 170.466 262.089 169.984 260.762 168.656C259.435 167.329 258.596 167.416 254.279 169.326C249.21 171.568 247.601 174.594 251.478 174.594C252.665 174.594 255.582 173.601 257.961 172.387ZM276.717 164.394C278.921 162.851 279.002 162.548 277.448 161.678C275.161 160.398 268.361 162.604 268.361 164.626C268.361 166.71 273.619 166.564 276.717 164.394ZM356.161 621.208C356.161 620.743 356.732 619.79 357.43 619.092C358.128 618.394 358.3 617.823 357.811 617.823C357.323 617.823 356.352 618.604 355.654 619.558C354.653 620.927 353.961 621.045 352.364 620.119C351.223 619.456 350.946 618.931 351.727 618.913C352.489 618.895 352.818 618.405 352.458 617.823C351.768 616.706 353.583 616.401 358.805 616.758C363.466 617.076 363.935 617.757 361.054 620.023C358.37 622.134 356.161 622.669 356.161 621.208V621.208ZM1239.59 594.659C1236.56 592.742 1242.86 588.508 1258.49 581.961C1262.85 580.133 1269.5 576.31 1273.26 573.465C1279.66 568.628 1280.19 568.418 1281.46 570.229C1283.39 572.977 1282.25 574.967 1277.55 577.087C1275.3 578.1 1272.48 580.064 1271.27 581.451C1270.07 582.838 1268.13 583.973 1266.96 583.973C1265.79 583.973 1263.05 585.576 1260.87 587.535C1253.4 594.242 1243.93 597.411 1239.59 594.659ZM1165.55 580.917C1164.45 580.221 1164.39 579.504 1165.29 577.83C1165.93 576.63 1166.46 574.158 1166.46 572.335C1166.46 569.355 1166.7 569.105 1168.84 569.858C1170.14 570.318 1172.88 570.757 1174.92 570.833C1176.95 570.909 1178.99 571.041 1179.44 571.125C1181.19 571.454 1176.51 576.788 1172.3 579.256C1167.28 582.194 1167.49 582.143 1165.55 580.917V580.917ZM1287.79 571.667C1287.42 571.299 1288.29 570.075 1289.73 568.948C1291.88 567.25 1292.14 566.533 1291.19 564.769C1289.83 562.217 1291.86 559.479 1296.55 557.533C1300.19 556.026 1301.11 552.967 1300.13 545.584C1299.46 540.505 1299.54 540.188 1301.18 541.541C1302.47 542.604 1302.78 543.943 1302.32 546.385C1301.82 549.062 1302.27 550.453 1304.5 553.106C1306.92 555.972 1307.63 556.283 1309.51 555.279C1311.38 554.278 1311.6 554.37 1311.01 555.904C1310.63 556.892 1310.32 557.887 1310.32 558.115C1310.32 558.343 1308.77 559.322 1306.88 560.291C1304.99 561.259 1301.3 563.82 1298.68 565.981C1294.43 569.496 1290.05 572.336 1288.88 572.336C1288.65 572.336 1288.16 572.035 1287.79 571.667V571.667ZM1175.93 558.005C1173.7 555.634 1173.29 555.542 1171.15 556.945C1168.42 558.732 1163.3 557.687 1159.19 554.508C1157 552.812 1156.85 552.265 1157.98 550.153C1158.94 548.352 1158.97 547.089 1158.1 545.178C1157.46 543.77 1156.94 541.688 1156.94 540.552C1156.94 537.989 1155.27 537.867 1153.89 540.328C1153.33 541.342 1152.56 541.868 1152.19 541.497C1151.82 541.127 1153.04 539.083 1154.91 536.956C1159.51 531.721 1157.71 530.3 1151.64 534.366C1149.03 536.118 1146.72 538.032 1146.51 538.62C1146.3 539.207 1145.04 537.394 1143.72 534.591C1142.27 531.551 1139.78 528.497 1137.55 527.023C1134.18 524.809 1133.05 524.626 1126.59 525.269C1117.12 526.211 1107.98 528.546 1102 531.552C1099.29 532.919 1093.98 534.317 1089.89 534.747C1085.89 535.167 1079.52 536.673 1075.75 538.095C1069.97 540.27 1068.32 540.498 1065.4 539.532C1061.47 538.236 1059.84 535.565 1062.38 534.591C1063.3 534.238 1064.97 531.81 1066.09 529.196C1067.88 525.012 1067.98 523.709 1066.92 518.303C1066.04 513.83 1066.01 509.595 1066.83 502.708C1067.44 497.509 1067.68 492.231 1067.35 490.98C1067.02 489.729 1067.54 486.665 1068.49 484.173C1070.17 479.778 1070.57 479.491 1081.92 474.684C1088.36 471.958 1094.95 469.727 1096.56 469.727C1100.93 469.727 1106.35 465.567 1109.33 459.914C1111.18 456.42 1112.46 455.091 1113.56 455.519C1116.65 456.713 1117.26 456.479 1117.03 454.188C1116.87 452.715 1117.51 451.643 1118.77 451.243C1119.85 450.898 1121.87 448.971 1123.24 446.963C1124.64 444.907 1127.53 442.59 1129.84 441.66C1133.7 440.11 1134.09 440.133 1136.19 442.042C1140.06 445.565 1142.81 446.594 1144.12 445.013C1144.76 444.245 1144.98 443.313 1144.61 442.943C1143.4 441.733 1148.94 434.781 1151.65 434.113C1153.1 433.754 1156.09 432.561 1158.28 431.461C1161.71 429.746 1162.91 429.632 1166.75 430.662C1175.02 432.882 1175.29 433.246 1172.21 437.894C1168.26 443.872 1169.31 446.209 1179.01 453.039C1183.49 456.193 1187.72 458.585 1188.41 458.355C1189.1 458.125 1191.28 455.711 1193.25 452.99C1195.94 449.281 1196.98 446.584 1197.41 442.224C1198.03 436.029 1200.99 427.414 1202.51 427.414C1203.01 427.414 1204.16 429.962 1205.07 433.076C1205.97 436.189 1207.87 439.823 1209.28 441.151C1212.58 444.253 1214.5 452.929 1213.02 458.055C1212.04 461.451 1212.23 461.997 1215.59 465.46C1217.59 467.516 1220.76 472.53 1222.62 476.603C1224.49 480.676 1227.85 486.438 1230.1 489.408L1234.18 494.809L1233.02 503.153C1232.18 509.206 1230.87 513.241 1228.27 517.851C1224.28 524.912 1218.32 531.65 1215.18 532.648C1214.05 533.006 1211.43 535.657 1209.36 538.537C1207.29 541.418 1205.13 543.775 1204.56 543.775C1203.99 543.775 1201.58 546.247 1199.19 549.269C1195.2 554.308 1194.47 554.769 1190.32 554.847C1187.13 554.907 1184.7 555.771 1182.08 557.766L1178.37 560.599L1175.93 558.005H1175.93ZM660.112 535.764C657.872 533.523 657.497 532.378 657.998 529.292C658.469 526.389 658.02 524.681 656.008 521.72C654.579 519.617 653.41 517.379 653.41 516.746C653.41 516.113 651.539 513.089 649.253 510.024C645.719 505.288 644.993 503.396 644.411 497.404C643.382 486.831 640.007 475.387 635.469 467.092C633.238 463.014 631.095 457.72 630.707 455.326C629.88 450.234 631.948 442.654 636.67 433.47L639.811 427.361L638.046 422.048C637.058 419.075 636.576 415.558 636.951 414.064C637.39 412.316 636.918 410.234 635.585 408.033C634.465 406.184 632.803 402.053 631.89 398.853C630.671 394.579 628.972 391.8 625.487 388.38C618.782 381.802 617.911 379.213 619.991 372.056C624.227 357.485 619.651 348.987 608.472 350.663C604.12 351.316 603.953 351.235 603.338 348.16C602.867 345.801 601.588 344.413 598.377 342.775C594.205 340.646 592.419 340.638 587.296 342.725C586.132 343.199 581.372 344.841 576.718 346.375C569.719 348.681 567.618 348.978 564.571 348.094C561.685 347.257 559.254 347.474 553.348 349.094C547.246 350.768 545.034 350.948 541.736 350.038C534.856 348.138 523.035 337.484 521.354 331.666C520.053 327.165 511.96 316.673 509.206 315.917C507.456 315.437 507.241 315.065 508.313 314.374C509.39 313.678 509.203 313.326 507.519 312.886C504.846 312.187 504.58 310.002 507.165 309.979C508.747 309.965 508.786 309.814 507.43 308.938C506.431 308.292 506.319 307.906 507.13 307.896C507.97 307.885 507.65 306.581 506.208 304.138C504.179 300.699 504.137 300.244 505.687 298.532C510.42 293.302 511.457 282.042 507.859 274.948C506.142 271.562 507.246 266.884 510.911 262.02C512.291 260.189 514.985 255.734 516.898 252.119C520.245 245.796 527.704 237.005 529.723 237.005C531.957 237.005 539.165 229.256 539.165 226.854C539.165 221.432 542.407 216.025 547.692 212.634C550.533 210.811 553.861 207.695 555.088 205.709C557.599 201.646 557.955 201.513 560.879 203.551C562.027 204.351 564.878 205.326 567.216 205.718C570.781 206.317 572.486 205.886 577.794 203.047C586.928 198.162 592.573 196.942 603.024 197.594C609.917 198.024 613.02 197.749 616.361 196.413C621.281 194.444 625.535 195.609 624.383 198.61C624.037 199.512 624.249 200.845 624.853 201.574C625.614 202.49 625.608 203.803 624.834 205.838C623.862 208.395 624.077 209.156 626.486 211.67C628.01 213.261 630.738 214.858 632.548 215.22C641.05 216.921 643.467 218.022 645.223 220.994C646.509 223.171 648.195 224.288 650.982 224.811C653.15 225.218 656.298 226.261 657.977 227.13C660.829 228.605 661.199 228.551 663.577 226.316C665.176 224.814 665.901 223.224 665.526 222.042C665.198 221.007 665.448 219.19 666.082 218.004C667.719 214.946 672.366 215.247 679.621 218.879C687.526 222.836 702.516 225.66 707.83 224.192C710.387 223.487 712.844 223.477 715.082 224.165C722.391 226.412 726.134 224.653 727.132 218.504C727.463 216.462 728.029 214.791 728.39 214.791C729.073 214.791 729.431 211.72 729.53 205.006C729.562 202.824 730.078 201.039 730.676 201.039C731.388 201.039 731.353 200.273 730.574 198.817C729.273 196.387 726.635 196.442 720.321 199.033C717.327 200.262 716.494 200.21 713.811 198.625C710.333 196.57 706.763 196.262 705.734 197.928C704.969 199.166 699.56 198.298 696.626 196.466C694.519 195.15 692.55 191.232 692.55 188.356C692.55 187.252 691.478 185.595 690.169 184.673C688.143 183.246 688.025 182.842 689.376 181.958C690.249 181.387 692.044 181.174 693.365 181.485C695.051 181.881 696.6 181.217 698.557 179.261C700.398 177.42 702.637 176.404 705.146 176.27C707.236 176.159 710.263 175.201 711.873 174.139C715.369 171.836 723.305 172.476 729.462 175.558C737.766 179.714 745.14 179.47 748.108 174.94C749.652 172.584 749.66 172.088 748.195 169.852C747.302 168.49 743.013 165.35 738.665 162.876L730.757 158.377L732.239 155.512C733.054 153.937 733.454 152.381 733.128 152.055C732.802 151.729 732.926 150.835 733.405 150.07C733.883 149.304 734.367 148.062 734.481 147.311C734.724 145.709 733.018 146.151 724.606 149.871C719.722 152.031 718.996 152.693 720.08 153.998C720.789 154.853 722.383 155.574 723.62 155.599C725.357 155.636 724.945 156.135 721.822 157.783C718.029 159.784 717.606 159.81 715.139 158.194C713.031 156.813 712.755 156.17 713.754 154.966C714.746 153.77 714.598 153.31 713.032 152.722C711.948 152.315 710.551 151.301 709.927 150.469C706.897 146.431 697.284 157.055 694.488 167.532C693.176 172.45 693.22 172.705 695.69 174.569L698.254 176.503L693.55 177.473C690.964 178.006 687.477 178.068 685.803 177.611C682.713 176.767 678.798 178.039 678.798 179.887C678.798 180.43 678.078 180.598 677.198 180.26C676.317 179.922 674.92 180.208 674.092 180.895C672.809 181.96 672.954 182.833 675.081 186.834C677.386 191.168 677.457 191.761 676.02 194.642C674.219 198.252 672.544 197.984 670 193.677C668.226 190.674 668.238 190.605 670.584 190.272C673.546 189.852 673.737 187.966 670.864 187.507C664.31 186.459 660.815 183.006 660.815 177.578C660.815 173.342 656.888 168.673 652.127 167.246C649.653 166.505 646.963 164.948 646.149 163.787C645.336 162.626 642.956 160.96 640.86 160.084C638.763 159.208 636.417 157.59 635.646 156.489C634.539 154.909 633.811 154.719 632.191 155.586C631.062 156.191 630.138 157.366 630.138 158.198C630.138 160.944 643.621 173.37 650.211 176.697C657.199 180.224 658.291 181.484 653.436 180.417C649.107 179.467 647.928 180.418 649.409 183.668C650.449 185.95 650.278 186.645 648.186 188.655L645.756 190.99L646.309 187.839C647.187 182.837 640.592 175.651 635.123 175.651C633.118 175.651 625.415 168.18 623.398 164.278C621.241 160.108 618.842 159.303 615.444 161.607C610.324 165.079 606.485 166.253 602.469 165.574C597.134 164.673 593.778 166.533 594.628 169.92C595.072 171.689 594.825 172.478 593.827 172.478C593.034 172.478 591.002 173.667 589.311 175.121C587.621 176.575 585.874 177.765 585.429 177.766C584.12 177.768 580.428 184.451 580.424 186.825C580.419 189.096 576.283 193.57 572.291 195.621C571.02 196.274 568.062 196.808 565.717 196.808C562.491 196.808 561.169 197.34 560.284 198.993C559.125 201.159 559.09 201.154 556.379 198.443C553.835 195.9 552.371 195.263 547.238 194.469C544.541 194.052 544.086 187.947 546.103 179.25C546.965 175.532 547.388 171.366 547.043 169.992C546.041 165.998 549.179 163.643 554.428 164.449C566.549 166.311 573.639 166.414 575.301 164.752C577.584 162.468 578.614 154.937 577.221 150.715C576.312 147.961 575.062 146.835 571.332 145.41C565.846 143.315 565.73 141.289 571.094 141.235C573.137 141.214 576.085 140.361 577.644 139.34C579.204 138.318 580.928 137.759 581.476 138.098C582.972 139.022 588.634 135.758 590.515 132.888C591.424 131.501 593.213 130.1 594.492 129.774C595.77 129.448 599.196 126.964 602.105 124.254C606.229 120.413 608.393 119.208 611.93 118.786C616.311 118.263 620.717 114.66 618.648 113.292C617.363 112.442 616.289 107.319 617.005 105.454C617.344 104.569 618.841 103.047 620.333 102.07L623.044 100.293L622.348 104.646C621.744 108.424 621.898 108.958 623.515 108.687C624.539 108.516 626.456 107.784 627.773 107.06C629.78 105.958 630.272 106.011 630.801 107.389C631.707 109.752 629.187 112.53 627.447 111.086C626.486 110.288 625.876 110.317 625.339 111.186C624.786 112.082 624.352 112.033 623.716 111.003C623.239 110.231 622.605 109.841 622.308 110.138C622.012 110.435 622.857 112.043 624.188 113.711C626.43 116.524 626.858 116.657 630.054 115.543C632.791 114.589 634.106 114.654 636.436 115.859C639.067 117.22 639.955 117.155 645.012 115.233C649.443 113.55 651.189 113.334 653.15 114.227C654.954 115.049 656.29 115.032 657.966 114.166C662.724 111.708 664.042 109.854 663.451 106.451C662.576 101.407 664.179 99.7549 668.403 101.349C671.277 102.434 672.117 102.391 673.416 101.092C674.791 99.7167 674.673 99.2087 672.419 96.8095C670.25 94.5013 670.099 93.9275 671.421 93.0356C672.278 92.457 675.492 92.2497 678.562 92.5749C684.18 93.17 691.181 90.9752 689.961 89.0013C688.893 87.2727 682.444 86.7732 676.981 87.9958C672.136 89.0802 670.864 88.9925 667.15 87.3178C661.382 84.7169 660.703 81.6739 664.659 76.1602C669.751 69.0632 670.682 66.8016 669.232 65.0538C667.084 62.4658 664.974 63.3096 660.067 68.7184C657.474 71.5765 653.941 74.4997 652.216 75.2144C650.491 75.929 648.356 77.9111 647.473 79.6189C646.035 82.4002 646.037 82.983 647.495 85.2077C648.39 86.5738 650.087 87.9976 651.266 88.3719C654.511 89.4018 653.869 91.3349 649.228 94.5107C647.8 95.4874 645.896 98.2507 644.996 100.651C643.869 103.66 642.155 105.712 639.481 107.256C635.713 109.432 635.542 109.44 633.459 107.555C632.28 106.488 631.029 104.312 630.679 102.72C630.33 101.127 628.741 98.2639 627.149 96.357L624.255 92.89L620.585 95.1272C618.566 96.3577 615.963 97.3556 614.799 97.3449C611.442 97.3139 607.556 93.6878 607.296 90.344C607.167 88.6824 606.735 86.508 606.337 85.5119C605.389 83.1426 610.126 78.699 615.048 77.3398C619.989 75.9757 630.009 68.9531 631.717 65.658C632.476 64.1922 635.05 61.2427 637.436 59.1035C639.822 56.9643 641.774 54.7426 641.774 54.1663C641.774 53.5901 644.035 52.3129 646.798 51.3281C649.562 50.3433 654.203 48.5565 657.112 47.3574C660.684 45.8852 665.15 45.1069 670.864 44.9607C680.849 44.7053 687.378 46.0288 692.766 49.3999C695.47 51.0913 697.603 51.6684 699.645 51.2601C703.297 50.5297 722.766 56.5642 723.577 58.6781C724.392 60.8028 718.808 62.8085 714.004 62.1165C711.804 61.7996 707.253 60.9521 703.892 60.2332C699.366 59.2655 697.471 59.235 696.59 60.1156C695.71 60.9962 696.15 61.6462 698.286 62.6194C699.873 63.3423 701.859 65.2645 702.7 66.8909C704.841 71.0322 711.7 74.4081 715.239 73.0627C718.639 71.77 718.616 71.3622 715.028 69.4161C711.71 67.616 713.242 67.2269 717.409 68.8112C720.736 70.0761 724.505 68.5024 723.628 66.2149C723.216 65.1435 724.372 64.3699 727.634 63.5342C734.613 61.7459 735.124 61.4903 734.545 60.075C732.355 54.7218 732.325 54.8757 735.51 55.2394C737.21 55.4335 738.452 56.1605 738.311 56.8789C738.171 57.5888 739.057 58.7048 740.28 59.359C742.116 60.3418 743.564 59.9917 748.613 57.3451C756.017 53.4643 761.781 52.199 763.93 53.9829C765.129 54.9775 767.116 54.9845 772.868 54.0143C776.936 53.3281 780.727 53.0523 781.292 53.4013C781.856 53.7504 782.63 53.5313 783.012 52.9145C783.845 51.5657 781.54 48.5052 780.278 49.2852C778.754 50.2268 773.751 48.54 774.84 47.4517C775.935 46.3558 805.374 53.2157 807.136 54.9774C808.324 56.1651 812.084 54.5808 812.084 52.8926C812.084 52.3238 809.984 50.8383 807.418 49.5916C799.462 45.7262 798.951 39.5355 806.434 37.6576C810.776 36.5676 812.654 37.8249 818.66 45.8435C826.458 56.2539 826.259 55.7243 823.712 59.3022C821.825 61.9516 821.712 62.5716 823.02 63.0739C825.5 64.0256 830.808 60.6954 831.555 57.7191C832.431 54.2316 830.796 51.2594 826.893 49.2412C823.825 47.6546 821.604 44.7472 821.604 42.3172C821.604 41.4889 822.755 41.2823 825.042 41.7C828.471 42.3264 831.308 41.0828 839.073 35.5483C840.849 34.2825 843.852 33.4485 846.879 33.3798C853.019 33.2406 855.007 32.2097 853.24 30.0806C852.547 29.2456 852.2 28.3422 852.469 28.0731C853.82 26.7221 871.235 24.2877 875.246 24.8892C879.105 25.4679 880.3 25.1548 883.475 22.733C885.518 21.1748 887.19 19.4804 887.19 18.9676C887.19 17.6746 877.946 17.7901 877.14 19.0932C876.032 20.8862 874.596 20.2623 875 18.1635C875.341 16.3915 874.446 16.1031 866.741 15.5032C845.701 13.865 843.991 13.4806 846.515 10.9566C848.734 8.7374 854.177 8.78042 858.733 11.0531C860.6 11.9843 863.692 12.7462 865.604 12.7462C867.517 12.7462 869.376 13.2222 869.735 13.804C870.095 14.3858 871.948 14.8619 873.853 14.8619C879.129 14.8619 889.329 17.1407 888.689 18.1764C888.377 18.6806 889.364 19.0932 890.882 19.0932C892.4 19.0932 895.165 19.9129 897.027 20.9149C899.531 22.2623 903.029 22.747 910.462 22.7768C918.452 22.8088 921.107 23.2192 923.42 24.7792C925.02 25.8583 926.322 27.0435 926.314 27.413C926.306 27.7824 923.864 29.4278 920.889 31.0693C913.703 35.0338 915.222 36.7615 923.914 34.5093C929.544 33.0505 930.837 33.0411 935.498 34.4254C939.322 35.5611 941.71 35.7068 944.304 34.963C946.893 34.2205 949.55 34.3799 954.06 35.5484C958.765 36.7675 961.203 36.8916 964.185 36.0634C970.99 34.1733 979.362 34.7072 984.22 37.3407C986.634 38.6498 991.086 41.0719 994.113 42.7233C999.48 45.6505 999.713 45.6828 1003.44 44.0142C1006.55 42.6175 1008.29 42.5006 1012.88 43.3791C1017.45 44.2523 1019.11 44.1459 1021.69 42.8157C1024.2 41.5144 1024.61 40.8748 1023.65 39.7175C1021.79 37.4795 1028.38 36.6476 1036.48 38.0978C1040.18 38.762 1044.89 39.4251 1046.92 39.5712C1048.96 39.7174 1052.94 40.8778 1055.76 42.15C1060.07 44.09 1063.33 44.5295 1075.94 44.8759C1087.9 45.2046 1091.71 45.6835 1094.6 47.2219C1097.53 48.7835 1100.87 49.1808 1111.98 49.2891C1122.2 49.3887 1126.78 49.8734 1129.81 51.1764C1134.7 53.2797 1136.66 52.5083 1134 49.5263C1132.08 47.3813 1132.09 47.3783 1139.48 48.1124C1151.86 49.3425 1166.72 52.052 1171.74 53.998C1174.36 55.0113 1179.35 56.1887 1182.83 56.6145C1186.31 57.0403 1191.39 58.5193 1194.12 59.9011C1198.26 61.9984 1199.6 62.2301 1202.26 61.3036C1205.9 60.0366 1208.25 60.949 1213.8 65.7699L1217.25 68.7654L1214.65 69.4177C1212.05 70.0723 1205.12 68.3577 1202.73 66.4665C1202.03 65.9104 1201.05 65.7087 1200.55 66.0183C1200.04 66.3279 1197.57 65.87 1195.05 65.0008C1189.14 62.9649 1186.51 63.7296 1189.21 66.7034C1191.04 68.7343 1191 68.777 1187.5 68.5325C1180.94 68.075 1182.74 70.012 1192.37 73.7682C1197.61 75.8105 1202.12 77.6987 1202.39 77.964C1203.38 78.9251 1200.11 80.1164 1197.73 79.6611C1195.11 79.1612 1188.67 81.9678 1188.67 83.6066C1188.67 84.1508 1187.65 85.5447 1186.41 86.7041C1184.33 88.6408 1183.9 88.6849 1181.12 87.247C1178.52 85.9014 1177.68 85.8874 1175.18 87.1474C1173.58 87.9534 1170.85 88.956 1169.11 89.3753C1167.36 89.7946 1165.35 90.6295 1164.62 91.2307C1162.49 92.9975 1166.25 98.1403 1171.53 100.7C1174.41 102.093 1176.5 103.961 1177.12 105.702C1177.66 107.23 1178.81 109.739 1179.68 111.278C1181.09 113.786 1181.08 114.143 1179.56 114.724C1178.45 115.151 1178.12 116.005 1178.61 117.216C1179.01 118.229 1179.47 120.248 1179.63 121.702C1179.78 123.157 1180.25 125.137 1180.66 126.103C1181.2 127.36 1180.76 128.068 1179.09 128.597C1177.23 129.186 1175.98 128.477 1172.93 125.103C1170.82 122.774 1167.31 119.568 1165.12 117.978C1162.93 116.388 1159.01 112.254 1156.41 108.791C1151.82 102.682 1151.73 102.404 1153.25 99.4571C1154.11 97.7865 1154.84 95.3249 1154.86 93.987C1154.88 92.649 1155.55 90.3721 1156.35 88.9272C1157.88 86.1673 1157.29 83.9638 1154.02 80.2167C1151.88 77.7565 1148.06 79.6007 1149.02 82.6325C1149.91 85.4255 1147.19 86.3306 1144.06 84.2834C1142.71 83.3959 1139.58 82.3485 1137.12 81.956C1132.9 81.282 1132.59 81.4116 1131.49 84.2826C1130.86 85.9549 1130.59 88.5984 1130.9 90.1571C1131.38 92.5858 1131.05 93.0828 1128.55 93.6315C1126.85 94.005 1123.94 93.5632 1121.56 92.5717C1118.96 91.4827 1116.5 91.1535 1114.74 91.6559C1113.22 92.0873 1108.09 92.4789 1103.34 92.5262C1095.81 92.6011 1094.36 92.9298 1092.07 95.0793C1090.62 96.4362 1088.89 99.7683 1088.21 102.484C1087.53 105.2 1086.29 108.481 1085.46 109.776C1084.01 112.015 1084.15 112.241 1088.29 114.356C1092.79 116.651 1097.7 117.256 1101.42 115.974C1104.28 114.985 1113.04 121.807 1115.77 127.163C1116.89 129.357 1118.74 131.652 1119.88 132.263C1124.2 134.576 1125.08 149.748 1121.46 159.667C1118.96 166.535 1116.16 168.78 1112.05 167.217C1110.48 166.62 1109.04 166.131 1108.84 166.131C1108.65 166.131 1107.47 168.084 1106.23 170.471C1104.59 173.605 1104.27 175.184 1105.08 176.155C1106.62 178.012 1105.48 180.428 1102.4 181.833C1100.98 182.481 1099.81 183.472 1099.81 184.035C1099.81 184.599 1103.12 187.337 1107.17 190.121C1112.31 193.663 1115.06 196.383 1116.32 199.18C1117.32 201.378 1117.93 203.351 1117.7 203.565C1117.46 203.778 1115.3 204.945 1112.89 206.158L1108.52 208.364L1105.88 202.322C1102.94 195.559 1100.41 192.839 1095.96 191.641C1093.72 191.038 1092.94 190.182 1092.94 188.33C1092.94 186.632 1091.84 185.189 1089.51 183.824C1086.11 181.834 1086.04 181.836 1082.43 184.07C1078.81 186.305 1078.77 186.307 1077.66 184.231C1077.04 183.08 1076.54 181.409 1076.54 180.519C1076.54 179.628 1075.65 178.424 1074.56 177.842C1072.95 176.977 1071.93 177.5 1068.96 180.714C1066.96 182.875 1064.4 185.169 1063.27 185.812C1061.52 186.809 1061.42 187.23 1062.63 188.687C1063.41 189.626 1066.1 191.541 1068.61 192.943C1072.6 195.173 1073.36 195.3 1074.71 193.954C1075.99 192.675 1077.03 192.629 1080.89 193.676L1085.53 194.936L1082.94 196.666C1078.15 199.873 1076.63 201.556 1075.95 204.451C1075.39 206.826 1075.72 207.541 1077.85 208.512C1079.28 209.161 1081.44 211.748 1082.66 214.262C1083.88 216.775 1086.32 219.683 1088.08 220.722C1091.95 223.009 1093.08 225.439 1090.84 226.691C1088.76 227.857 1089.75 229.601 1092.5 229.601C1095.8 229.601 1095.82 231.566 1092.63 242.909C1088.78 256.645 1085.3 261.229 1076.19 264.561C1072.6 265.873 1068.24 267.026 1066.49 267.122C1062.43 267.347 1059.29 269.065 1056.54 272.555L1054.36 275.324L1053.35 272.652C1052.02 269.165 1048.98 268.288 1044.62 270.134C1040.62 271.826 1037.98 274.524 1036.92 278.012C1035.97 281.134 1039.34 286.625 1044.92 291.042C1049.5 294.67 1054.63 303.771 1055.84 310.394C1056.89 316.154 1055.03 319.935 1050.04 322.184C1047.77 323.209 1045.64 324.889 1045.32 325.918C1044.53 328.39 1039.84 331.466 1038.97 330.073C1038.62 329.492 1038.6 328.137 1038.94 327.06C1039.29 325.984 1039.27 324.331 1038.91 323.387C1038.38 322.028 1037.81 321.906 1036.14 322.8C1034.4 323.731 1033.73 323.495 1032.32 321.458C1028.87 316.453 1018.86 308.409 1016.09 308.409C1015.11 308.409 1014.74 309.584 1014.9 312.111C1015.04 314.148 1014.62 318.118 1013.98 320.934C1012.94 325.522 1013.04 326.362 1015.01 329.026C1016.22 330.66 1017.51 333.194 1017.88 334.657C1018.25 336.142 1021.31 339.533 1024.81 342.339C1030.64 347.016 1031.25 347.94 1033.71 355.709C1035.16 360.299 1036.34 364.505 1036.34 365.057C1036.34 366.851 1034.13 366.124 1029.52 362.812C1024.75 359.389 1021.71 353.972 1019.17 344.398C1018.07 340.241 1016.86 338.459 1013.43 335.936C1009.22 332.841 1009.09 332.57 1009.43 327.45C1009.63 324.541 1010.1 320.417 1010.49 318.287C1011.04 315.287 1010.59 313.138 1008.48 308.766C1006.98 305.661 1005.21 300.891 1004.55 298.167C1003.06 292.081 1000.96 291.062 997.238 294.624C995.701 296.097 994.146 297.302 993.783 297.302C992.1 297.302 989.786 293.718 990.341 291.969C991.349 288.794 985.152 277.726 981.525 276.223C979.541 275.401 977.727 273.408 976.513 270.716C974.403 266.038 972.037 264.248 969.673 265.542C968.815 266.011 965.382 266.956 962.043 267.64C955.922 268.896 953.726 270.749 954.564 273.953C954.873 275.133 953.802 276.273 951.233 277.497C949.151 278.49 946.908 280.487 946.248 281.935C945.589 283.382 944.136 284.857 943.021 285.211C941.905 285.565 940.184 287.184 939.196 288.808C938.208 290.433 935.266 293.402 932.658 295.407C929.088 298.15 927.974 299.684 928.152 301.614C929.189 312.895 927.597 322.333 923.713 327.937C919.925 333.404 919.658 333.557 916.453 332.096C914.689 331.292 913.603 329.722 913.153 327.325C912.784 325.361 910.654 319.824 908.418 315.023C894.892 285.972 892.892 280.429 894.045 275.182C894.823 271.637 892.955 266.288 891.15 266.894C890.426 267.137 889.822 268.009 889.806 268.831C889.716 273.66 884.292 274.401 880.055 270.164L877.247 267.356L879.662 266.463C882.38 265.458 882.131 262.746 879.366 263.243C878.384 263.42 876.136 262.349 874.37 260.863C872.604 259.378 870.752 258.162 870.254 258.162C869.757 258.162 869.045 257.205 868.674 256.035C867.699 252.963 862.087 250.29 859.275 251.558C856.744 252.7 833.783 252.461 829.939 251.254C828.555 250.819 825.994 248.829 824.249 246.831C821.095 243.221 821.046 243.207 816.315 244.482C811.832 245.691 811.181 245.577 805.143 242.529C799.925 239.895 798.362 238.474 796.751 234.902C794.696 230.345 790.132 227.045 787.357 228.11C786.483 228.445 785.462 230.111 785.088 231.813C784.552 234.256 785.099 235.843 787.692 239.37C789.498 241.826 791.466 245.655 792.065 247.88C793.351 252.658 795.892 254.079 797.998 251.199C799.269 249.461 799.612 249.4 800.472 250.762C801.022 251.632 801.318 252.82 801.131 253.402C800.543 255.23 806.647 258.239 809.495 257.525C810.934 257.163 814.01 254.712 816.329 252.077C819.984 247.925 821.26 247.645 820.635 251.131C820.215 253.478 822.061 256.228 825.117 257.808C829.838 260.248 836.414 265.684 836.414 267.146C836.414 267.82 835.178 269.526 833.666 270.936C832.155 272.346 829.98 275.331 828.833 277.568C826.046 283.004 817.968 290.955 815.233 290.955C812.071 290.955 807.368 293.624 805.496 296.482C804.609 297.835 802.277 299.745 800.314 300.725C790.26 305.744 778.154 310.833 774.748 311.472C771.105 312.155 770.81 311.99 768.881 308.184C767.763 305.981 766.495 301.559 766.063 298.359C765.501 294.198 764.412 291.552 762.235 289.067C760.562 287.156 759.193 285.133 759.193 284.572C759.193 284.011 757.284 281.585 754.951 279.181C752.045 276.187 750.167 272.938 748.99 268.866C748.045 265.597 746.122 261.494 744.716 259.749C735.008 247.693 732.133 243.442 730.686 239.003C728.768 233.119 727.146 232.169 726.398 236.491L725.866 239.558L722.288 235.04C716.773 228.078 716.079 231.243 721.255 239.742C723.705 243.764 727.61 250.863 729.933 255.517C732.256 260.172 735.267 265.453 736.625 267.253C738.023 269.107 739.094 272.005 739.094 273.934C739.094 277.921 740.283 280.408 744.955 286.194C746.834 288.522 748.69 291.919 749.079 293.745C749.579 296.086 751.621 298.534 756.011 302.055C762.682 307.406 767.005 312.991 768.078 317.646C768.481 319.394 770.007 321.189 771.943 322.19C774.893 323.715 775.932 323.674 785.255 321.654C790.816 320.449 796.707 318.77 798.346 317.922L801.326 316.381L802.034 320.568C802.676 324.373 801.985 326.206 794.454 340.649C786.357 356.179 785.978 356.692 777.927 363.048C773.396 366.626 768.653 371.006 767.389 372.781C766.124 374.557 762.079 379.353 758.399 383.439C747.659 395.363 746.199 405.85 753.322 419.907C755.132 423.477 755.838 426.18 755.409 427.888C755.053 429.309 755.281 432.898 755.917 435.864C756.919 440.533 756.806 441.782 755.072 445.178C752.571 450.079 750.581 451.84 743.59 455.344C740.535 456.875 738.036 458.579 738.036 459.132C738.036 459.684 735.894 462.548 733.276 465.496C730.658 468.444 728.516 471.335 728.516 471.92C728.516 472.506 729.497 474.909 730.696 477.26C734.293 484.309 731.876 489.417 723.256 492.987C719.622 494.492 718.429 497.565 719.328 503.105C719.799 506.007 719.5 506.973 717.855 507.853C716.72 508.461 714.667 510.723 713.294 512.879C708.958 519.689 696.493 531.739 690.83 534.596C686.105 536.979 684.896 537.189 681.424 536.23C678.364 535.385 675.893 535.519 670.761 536.808C662.449 538.896 663.331 538.983 660.112 535.764L660.112 535.764ZM799.443 198.368C802.173 196.955 802.563 196.178 802.563 192.15C802.563 189.262 801.946 187.034 800.907 186.172C799.996 185.416 798.52 183.384 797.627 181.657C796.149 178.8 796.155 178.575 797.696 179.166C799.731 179.947 802.563 179.008 802.563 177.553C802.563 176.978 801.579 175.125 800.376 173.436C798.565 170.891 797.839 170.552 796.145 171.458C794.776 172.191 794.101 172.198 794.101 171.479C794.101 170.888 792.213 169.442 789.905 168.265C784.798 165.659 782.981 162.773 784.574 159.796C785.779 157.544 790.086 155.966 791.925 157.102C794.405 158.635 795.135 156.376 793.09 153.502C788.128 146.535 781.22 146.993 772.653 154.859C767.124 159.935 766.644 161.284 769.771 162.957C770.934 163.58 771.886 164.798 771.886 165.663C771.886 166.528 773.768 169.277 776.068 171.772C781.364 177.518 782.336 180.144 781.68 186.944L781.153 192.419L788.42 196.148C792.417 198.199 795.83 199.901 796.005 199.929C796.179 199.958 797.726 199.255 799.442 198.368H799.443ZM770.3 493.851C767.313 492.157 766.889 491.263 766.108 485.019C765.485 480.03 765.745 478.945 768.73 474.094C771.764 469.164 771.982 468.214 771.313 462.859C770.347 455.127 771.991 451.064 776.485 450.078C780.719 449.149 789.881 441.061 792.076 436.314L793.753 432.686L794.919 435.245C797.853 441.683 797.554 444.512 792.451 458.634C789.72 466.19 786.79 475.228 785.94 478.719C783.22 489.891 781.674 492.584 777.219 493.919C772.475 495.341 772.934 495.345 770.3 493.851V493.851ZM1291.39 475.46C1288.01 471.767 1285.99 468.598 1285.99 466.997C1285.99 463.448 1286.56 463.758 1289.61 468.967C1291.07 471.457 1293.71 474.879 1295.48 476.569C1297.24 478.26 1298.68 480.03 1298.68 480.503C1298.68 482.538 1296.43 480.982 1291.39 475.46V475.46ZM819.489 473.959C819.489 473.377 819.965 472.901 820.547 472.901C821.128 472.901 821.604 473.377 821.604 473.959C821.604 474.54 821.128 475.016 820.547 475.016C819.965 475.016 819.489 474.54 819.489 473.959ZM1376.55 472.029C1376.18 471.425 1376.39 470.613 1377.02 470.223C1378.59 469.252 1379.14 470.024 1378.1 471.722C1377.53 472.631 1376.99 472.74 1376.55 472.029V472.029ZM826.893 470.319C826.893 470.062 827.37 469.558 827.951 469.198C828.533 468.839 829.009 469.049 829.009 469.665C829.009 470.281 828.533 470.785 827.951 470.785C827.37 470.785 826.893 470.575 826.893 470.319ZM1349.04 459.582C1348.01 456.897 1349.32 455.956 1352.23 457.285C1354.75 458.431 1354.81 458.607 1353.05 459.889C1350.6 461.683 1349.82 461.624 1349.04 459.582ZM1355.74 454.878C1353.68 453.601 1355.11 452.58 1358.4 452.987C1360.97 453.305 1361.03 453.422 1359.19 454.556C1358.02 455.281 1356.61 455.413 1355.74 454.878V454.878ZM1306.35 450.996C1304.18 446.318 1304.94 444.521 1307.19 449.024C1309.53 453.71 1309.57 453.863 1308.47 453.852C1308.03 453.847 1307.08 452.562 1306.35 450.996V450.996ZM1310.4 450.246C1310.36 449.13 1310.61 448.506 1310.96 448.857C1311.31 449.209 1311.35 450.121 1311.04 450.885C1310.7 451.729 1310.45 451.478 1310.4 450.246H1310.4ZM1396.52 440.089C1395.55 438.523 1396.47 437.723 1398.73 438.163C1400.38 438.486 1400.4 438.657 1398.91 439.895C1397.72 440.881 1397.04 440.936 1396.52 440.089V440.089ZM771.358 434.819C770.998 434.237 771.208 433.761 771.824 433.761C772.44 433.761 772.944 434.237 772.944 434.819C772.944 435.401 772.734 435.877 772.478 435.877C772.221 435.877 771.717 435.401 771.358 434.819ZM1235.74 424.881C1229.05 422.77 1226.01 420.809 1223.38 416.893C1220.37 412.42 1214.86 409.033 1212.05 409.926C1210.91 410.287 1209 412.25 1207.79 414.287C1205.75 417.756 1205.36 417.947 1201.64 417.286C1199.45 416.897 1196.4 415.401 1194.85 413.96C1192.89 412.129 1191.38 411.551 1189.85 412.037C1188.64 412.42 1186.89 412.308 1185.96 411.787C1184.51 410.974 1184.65 410.592 1186.98 409.068C1189.67 407.303 1189.68 407.279 1187.87 403.489C1186.42 400.445 1184.41 398.858 1177.87 395.565C1173.36 393.301 1168.27 391.448 1166.55 391.448C1162.62 391.448 1160.99 387.822 1163.96 385.655C1165.72 384.366 1165.46 384.046 1160.86 381.812C1155.98 379.44 1155.91 379.339 1158.24 378.044C1159.56 377.312 1161.68 376.697 1162.96 376.676C1165.44 376.636 1168.57 380.212 1168.57 383.078C1168.57 384.034 1169.6 386.124 1170.86 387.722C1173.11 390.586 1173.17 390.598 1174.82 388.53C1175.75 387.375 1178.7 385.174 1181.38 383.637L1186.26 380.842L1193.02 383.892C1196.74 385.569 1202.01 387.747 1204.75 388.732C1207.48 389.716 1212.94 392.644 1216.89 395.236C1224.43 400.188 1227.71 404.363 1225.83 406.626C1224.3 408.471 1230.31 416.875 1236.54 421.59C1243.38 426.773 1243.26 427.252 1235.74 424.881V424.881ZM1281.78 424.795C1280.95 423.79 1280.87 423.183 1281.57 423.183C1282.85 423.183 1284.34 425.19 1283.6 425.923C1283.34 426.19 1282.52 425.682 1281.78 424.795V424.795ZM1104.04 420.489C1102.51 419.641 1102.07 419.018 1102.99 419.005C1104.88 418.98 1107.9 420.74 1107.19 421.452C1106.91 421.727 1105.5 421.294 1104.04 420.489ZM1121.93 419.091C1124.93 414.879 1129.62 413.075 1133.96 414.469C1137.13 415.485 1137.17 415.57 1134.66 415.67C1133.18 415.73 1129.71 417.206 1126.96 418.952C1120.68 422.934 1119.16 422.977 1121.93 419.091V419.091ZM1275.41 420.538C1273.98 418.816 1274.32 418.601 1276.91 419.594C1277.83 419.947 1278.59 420.661 1278.59 421.18C1278.59 422.644 1276.87 422.297 1275.41 420.538V420.538ZM1280.37 419.605C1279.97 418.569 1279.67 416.927 1279.71 415.956C1279.76 414.787 1280.12 415.054 1280.8 416.745C1281.36 418.15 1281.66 419.792 1281.45 420.394C1281.25 420.996 1280.76 420.641 1280.37 419.605ZM1362.15 420.601C1362.15 420.344 1362.63 419.84 1363.21 419.48C1363.79 419.121 1364.27 419.331 1364.27 419.947C1364.27 420.563 1363.79 421.067 1363.21 421.067C1362.63 421.067 1362.15 420.857 1362.15 420.601ZM1091.61 416.158C1090.88 415.85 1090.55 415.162 1090.88 414.63C1091.69 413.322 1098.46 413.395 1099.28 414.72C1099.64 415.302 1099.31 415.785 1098.55 415.793C1097.79 415.801 1096.22 416.012 1095.05 416.263C1093.89 416.513 1092.34 416.466 1091.61 416.158V416.158ZM1107.31 415.364C1105.39 413.048 1107.61 412.343 1112.59 413.685C1117.61 415.036 1117.59 415.248 1112.39 416.187C1109.69 416.675 1108.2 416.434 1107.31 415.364V415.364ZM1266.14 414.72C1265.41 413.548 1265.27 412.605 1265.85 412.605C1266.41 412.605 1267.38 413.557 1268.01 414.72C1268.63 415.884 1268.76 416.836 1268.3 416.836C1267.84 416.836 1266.86 415.884 1266.14 414.72V414.72ZM1272.76 413.656C1269.93 410.531 1271.45 410.039 1274.36 413.138C1275.72 414.59 1276.35 415.778 1275.76 415.778C1275.17 415.778 1273.82 414.823 1272.76 413.656V413.656ZM1074.42 413.472C1070.64 412.948 1065.31 411.785 1062.58 410.887C1059.84 409.99 1056.62 409.568 1055.41 409.95C1052.99 410.719 1042.69 407.69 1042.69 406.21C1042.69 402.828 1052.17 402.572 1057.21 405.817C1059.09 407.028 1060.58 407.109 1064.55 406.217C1068.96 405.23 1069.88 405.352 1072.47 407.266C1074.08 408.457 1075.88 409.431 1076.46 409.431C1078.55 409.431 1084.9 412.97 1084.37 413.837C1084.07 414.323 1083.25 414.654 1082.56 414.573C1081.87 414.492 1078.21 413.997 1074.42 413.472V413.472ZM1264.3 408.373C1263.25 407.21 1262.87 406.258 1263.45 406.258C1264.03 406.258 1265.37 407.21 1266.42 408.373C1267.47 409.537 1267.86 410.489 1267.28 410.489C1266.7 410.489 1265.36 409.537 1264.3 408.373ZM1257.63 407.033C1257.03 406.309 1256.23 404.291 1255.86 402.549C1255.26 399.743 1255.32 399.623 1256.45 401.497C1257.15 402.661 1258.4 404.399 1259.23 405.359C1260.11 406.377 1260.32 407.365 1259.73 407.728C1259.18 408.07 1258.23 407.758 1257.63 407.033ZM1235.23 403.67L1232.6 402.215L1236.68 401.451C1238.92 401.031 1242.36 399.273 1244.33 397.545C1246.48 395.658 1247.9 394.975 1247.89 395.834C1247.87 397.985 1246.57 399.643 1242.61 402.56C1238.48 405.607 1238.68 405.578 1235.23 403.67V403.67ZM1036.8 399.551C1032.91 397.337 1025.9 388.771 1023.62 383.447C1022.39 380.575 1019.57 375.845 1017.35 372.936C1015.13 370.027 1012.59 366.219 1011.7 364.473C1010.8 362.728 1008.09 359.396 1005.67 357.069C1000.56 352.162 997.415 347.006 999.557 347.043C1002.33 347.09 1009.48 351.063 1012.54 354.263C1021 363.088 1022.73 364.659 1026.72 367.118C1030.57 369.491 1032.39 371.961 1032.58 375.052C1032.61 375.634 1033.71 377.3 1035.01 378.754C1036.32 380.209 1038.78 382.944 1040.48 384.833C1042.18 386.722 1043.89 389.669 1044.26 391.383C1045.49 396.99 1040.98 401.932 1036.8 399.551V399.551ZM823.72 398.853C823.72 398.271 824.196 397.795 824.778 397.795C825.36 397.795 825.836 398.271 825.836 398.853C825.836 399.435 825.36 399.911 824.778 399.911C824.196 399.911 823.72 399.435 823.72 398.853ZM1103.51 398.843C1103.15 398.256 1103.14 396.85 1103.5 395.718C1103.86 394.585 1103.42 392.545 1102.53 391.179C1101.05 388.93 1101.07 388.459 1102.68 386.163C1103.65 384.769 1104.8 381.026 1105.24 377.845C1105.77 373.921 1106.82 371.263 1108.51 369.575C1110.82 367.266 1111.4 367.164 1116.59 368.148C1121.04 368.993 1122.8 368.889 1125.22 367.634C1129.28 365.534 1129.58 365.628 1128.23 368.588C1126.52 372.351 1123.09 373.554 1119.48 371.661C1113.03 368.281 1104.47 373.305 1108.98 377.82C1110.64 379.48 1111.56 379.631 1114.64 378.749C1119.91 377.238 1121.98 377.515 1118.71 379.293C1115.01 381.306 1114.3 383.54 1116.21 387.231C1117.08 388.911 1117.79 391.516 1117.79 393.019C1117.79 395.427 1117.54 395.618 1115.67 394.621C1114.51 393.997 1112.83 391.747 1111.94 389.619C1110.34 385.781 1110.31 385.767 1108.26 387.82C1106.46 389.62 1106.33 390.42 1107.32 393.988C1108.21 397.213 1108.15 398.279 1107.04 398.983C1105.17 400.168 1104.3 400.133 1103.51 398.843H1103.51ZM1248.64 393.201C1247.65 391.679 1245.36 389.675 1243.57 388.747C1241.77 387.82 1240.54 386.823 1240.84 386.532C1242.48 384.887 1251.66 392.358 1250.88 394.705C1250.64 395.426 1249.68 394.78 1248.64 393.201ZM1082.53 389.681C1080.93 388.844 1078.78 388.428 1077.75 388.756C1075.12 389.591 1064.66 387.464 1063.63 385.882C1062.8 384.624 1060.38 376.873 1059.08 371.349C1058.73 369.83 1059.08 367.86 1059.92 366.72C1061.13 365.065 1061.75 364.94 1063.67 365.966C1065.69 367.049 1066.12 366.864 1067.23 364.428C1067.93 362.905 1070.24 360.77 1072.37 359.684C1074.62 358.534 1076.79 356.38 1077.56 354.526C1078.44 352.388 1080.06 350.952 1082.48 350.153C1084.46 349.499 1087.33 347.336 1088.84 345.347C1090.36 343.358 1092.17 341.73 1092.85 341.73C1093.54 341.73 1095.63 343.302 1097.49 345.222L1100.88 348.714L1098.16 352.363C1095.08 356.507 1095.24 360.072 1098.74 364.976L1100.85 367.946L1098.22 369.672C1096.77 370.621 1095.58 371.982 1095.59 372.696C1095.6 375.119 1088.82 389.084 1087.12 390.145C1085.93 390.884 1084.56 390.745 1082.53 389.681V389.681ZM1143.98 389.661C1141.79 389.089 1141.48 387.217 1143.58 387.217C1144.38 387.217 1146.62 387.534 1148.56 387.921C1151.54 388.517 1151.76 388.749 1150.01 389.433C1147.71 390.332 1146.69 390.37 1143.98 389.661V389.661ZM1312.44 376.172C1312.44 375.915 1312.91 375.411 1313.49 375.052C1314.08 374.692 1314.55 374.902 1314.55 375.518C1314.55 376.134 1314.08 376.639 1313.49 376.639C1312.91 376.639 1312.44 376.429 1312.44 376.172ZM1140.27 373.303C1139.43 372.457 1139.38 371.477 1140.11 370.108C1140.69 369.021 1140.88 367.676 1140.54 367.118C1139.59 365.575 1141.97 361.829 1143.91 361.829C1145.47 361.829 1145.46 362.011 1143.85 363.797C1142.45 365.341 1142.29 366.363 1143.12 368.548C1144.8 372.964 1142.98 376.008 1140.27 373.303H1140.27ZM608.981 369.825C608.981 369.569 609.457 369.064 610.039 368.705C610.621 368.345 611.097 368.555 611.097 369.171C611.097 369.787 610.621 370.292 610.039 370.292C609.457 370.292 608.981 370.082 608.981 369.825ZM1342.58 367.118C1342.22 366.536 1342.43 366.06 1343.05 366.06C1343.67 366.06 1344.17 366.536 1344.17 367.118C1344.17 367.7 1343.96 368.176 1343.7 368.176C1343.45 368.176 1342.94 367.7 1342.58 367.118ZM615.328 357.131C615.328 356.875 615.804 356.37 616.386 356.011C616.968 355.651 617.444 355.861 617.444 356.477C617.444 357.094 616.968 357.598 616.386 357.598C615.804 357.598 615.328 357.388 615.328 357.131ZM1124.15 341.226C1122.14 336.52 1121.87 336.308 1118.76 336.99C1115.67 337.67 1115.56 337.587 1116.72 335.42C1117.68 333.625 1118.57 333.269 1120.84 333.769C1123.04 334.251 1124.44 333.764 1126.59 331.772C1128.15 330.323 1129.44 328.282 1129.46 327.236C1129.49 324.566 1133.42 333.52 1134.31 338.307C1134.99 341.942 1134.91 342.14 1133.26 340.77C1130.8 338.737 1128.44 340.846 1130.45 343.272C1131.26 344.24 1131.36 344.904 1130.71 344.904C1130.1 344.904 1128.86 345.191 1127.94 345.542C1126.71 346.013 1125.72 344.883 1124.15 341.226V341.226ZM931.281 343.096C930.099 341.175 929.426 332.554 930.281 330.267C931.187 327.841 931.255 327.871 933.95 331.854C937.18 336.627 938.214 339.689 937.148 341.323C936.128 342.888 931.934 344.155 931.281 343.096ZM1167.51 337.624C1167.51 337.042 1167.99 336.272 1168.57 335.912C1169.15 335.553 1169.63 335.734 1169.63 336.316C1169.63 336.898 1169.15 337.668 1168.57 338.028C1167.99 338.387 1167.51 338.206 1167.51 337.624ZM1333.59 337.499C1333.59 336.917 1333.8 336.441 1334.06 336.441C1334.32 336.441 1334.82 336.917 1335.18 337.499C1335.54 338.081 1335.33 338.557 1334.71 338.557C1334.1 338.557 1333.59 338.081 1333.59 337.499ZM1093.47 331.387C1093.47 330.935 1095.59 328.198 1098.18 325.305C1101.98 321.066 1102.9 320.467 1102.94 322.218C1102.97 323.414 1101.37 326.151 1099.41 328.301C1096.07 331.946 1093.47 333.298 1093.47 331.387V331.387ZM1116.38 328.565C1115.99 327.561 1116.07 326.036 1116.55 325.176C1117.3 323.844 1117.61 323.831 1118.65 325.089C1119.59 326.216 1119.54 327.018 1118.48 328.478C1117.17 330.271 1117.03 330.277 1116.38 328.565V328.565ZM306.304 324.443C306.952 323.662 307.169 322.71 306.786 322.328C306.403 321.945 307.077 321.631 308.283 321.631C309.955 321.631 310.345 322.134 309.923 323.747C309.602 324.976 308.48 325.863 307.248 325.863C305.593 325.863 305.385 325.551 306.304 324.443ZM1123.48 324.163C1123.08 323.062 1122.57 321.803 1122.33 321.367C1122.09 320.931 1122.35 320.574 1122.9 320.574C1123.95 320.574 1125.44 324.917 1124.65 325.704C1124.4 325.958 1123.87 325.264 1123.48 324.163V324.163ZM1112.76 321.403C1111.27 319.613 1112.72 317.065 1114.94 317.561C1116.33 317.872 1116.38 318.312 1115.27 320.381C1114.19 322.377 1113.72 322.567 1112.76 321.403V321.403ZM1125.26 317.768C1124.05 316.224 1123.23 314.785 1123.45 314.569C1124.31 313.71 1127.28 315.604 1128.86 318.018C1131.3 321.731 1128.21 321.516 1125.26 317.768ZM1107.87 313.673C1106.93 312.731 1106.16 311.412 1106.16 310.743C1106.16 310.073 1107.2 310.57 1108.48 311.847C1109.76 313.123 1110.53 314.442 1110.19 314.777C1109.86 315.111 1108.81 314.615 1107.87 313.673ZM277.529 313.521C277.141 313.134 276.824 312.324 276.824 311.723C276.824 311.06 277.316 311.123 278.075 311.882C278.764 312.57 279.081 313.38 278.781 313.68C278.48 313.981 277.917 313.909 277.529 313.521V313.521ZM271.535 312.111C271.535 311.529 271.744 311.053 272.001 311.053C272.258 311.053 272.762 311.529 273.121 312.111C273.481 312.693 273.271 313.169 272.655 313.169C272.039 313.169 271.535 312.693 271.535 312.111ZM321.252 309.995C321.252 309.414 321.462 308.938 321.719 308.938C321.975 308.938 322.48 309.414 322.839 309.995C323.199 310.577 322.989 311.053 322.373 311.053C321.757 311.053 321.252 310.577 321.252 309.995ZM1118.51 309.834C1117.45 309.236 1115.44 309.034 1114.04 309.384C1112 309.898 1110.58 309.074 1106.75 305.129C1101.33 299.556 1100.28 297.206 1101.87 294.238C1102.48 293.09 1102.99 290.72 1102.99 288.971C1102.99 283.229 1106.83 283.461 1109.65 289.373C1111.21 292.649 1111.22 293.352 1109.76 296.865C1108.17 300.647 1108.21 300.816 1111.02 303.758C1113.06 305.884 1114.59 306.605 1116.2 306.201C1117.56 305.86 1119.02 306.283 1119.83 307.247C1121.73 309.543 1120.9 311.18 1118.51 309.834H1118.51ZM314.905 303.182C314.905 302.925 315.381 302.421 315.963 302.062C316.545 301.702 317.021 301.912 317.021 302.528C317.021 303.144 316.545 303.648 315.963 303.648C315.381 303.648 314.905 303.439 314.905 303.182V303.182ZM480.984 299.417C480.984 298.835 481.46 298.359 482.042 298.359C482.624 298.359 483.1 298.835 483.1 299.417C483.1 299.999 482.624 300.475 482.042 300.475C481.46 300.475 480.984 299.999 480.984 299.417ZM311.732 295.311C311.732 294.729 312.208 293.959 312.79 293.599C313.372 293.239 313.848 293.421 313.848 294.003C313.848 294.585 313.372 295.355 312.79 295.715C312.208 296.074 311.732 295.892 311.732 295.311ZM302.748 290.967C302.377 290.367 302.802 290.19 303.743 290.551C305.576 291.254 305.911 292.012 304.39 292.012C303.842 292.012 303.103 291.542 302.748 290.967ZM470.935 290.955C470.575 290.373 470.785 289.897 471.401 289.897C472.017 289.897 472.522 290.373 472.522 290.955C472.522 291.536 472.312 292.012 472.055 292.012C471.799 292.012 471.294 291.536 470.935 290.955V290.955ZM306.972 288.839C306.612 288.257 306.822 287.781 307.438 287.781C308.054 287.781 308.558 288.257 308.558 288.839C308.558 289.421 308.349 289.897 308.092 289.897C307.835 289.897 307.331 289.421 306.972 288.839ZM311.732 288.839C311.732 288.257 311.942 287.781 312.198 287.781C312.455 287.781 312.959 288.257 313.319 288.839C313.678 289.421 313.468 289.897 312.852 289.897C312.236 289.897 311.732 289.421 311.732 288.839ZM239.006 286.023C238.279 285.729 237.684 285.053 237.684 284.519C237.684 282.994 242.354 283.387 244.622 285.103C246.573 286.578 246.517 286.653 243.502 286.606C241.757 286.579 239.734 286.316 239.006 286.023V286.023ZM265.774 285.423C264.825 284.892 262.729 284.747 261.116 285.101C259.503 285.456 257.022 285.281 255.603 284.713C253.321 283.8 253.523 283.693 257.349 283.782C262.974 283.914 264.475 282.998 263.038 280.312C262.017 278.406 262.324 278.261 267.371 278.261C272.252 278.261 279.295 280.5 280.488 282.431C281.282 283.715 267.668 286.483 265.774 285.423ZM286.065 286.091C284.811 284.838 286.369 283.55 289.139 283.55C290.803 283.55 291.645 284.048 291.374 284.872C290.886 286.353 287.178 287.205 286.065 286.091ZM1051.38 284.409C1048.58 281.608 1051.35 278.261 1056.47 278.261C1058.74 278.261 1058.74 278.279 1056.79 281.614C1054.52 285.501 1053.17 286.2 1051.38 284.409ZM294.807 284.192C294.807 283.963 295.521 283.502 296.393 283.167C297.266 282.832 297.98 283.019 297.98 283.583C297.98 284.146 297.266 284.608 296.393 284.608C295.521 284.608 294.807 284.421 294.807 284.192V284.192ZM249.079 276.609C248.753 276.283 246.52 275.988 244.117 275.955C240.802 275.909 240.007 275.583 240.82 274.604C241.606 273.657 240.477 272.396 236.588 269.876C228.963 264.935 224.706 263.97 219.583 266.019C214.78 267.941 214.412 267.996 214.412 266.785C214.412 264.571 222.831 262.136 228.893 262.597C234.691 263.038 237.937 264.272 249.32 270.361C258.677 275.367 258.687 275.377 255.667 276.238C252.238 277.216 249.822 277.352 249.079 276.609V276.609ZM256.725 267.682C258.776 266.357 259.898 266.357 259.898 267.682C259.898 268.264 258.827 268.733 257.518 268.724C255.594 268.711 255.442 268.512 256.725 267.682ZM1099.18 265.806C1098.54 265.384 1097.44 263.943 1096.73 262.604C1095.67 260.586 1095.78 259.606 1097.38 256.871C1099.84 252.646 1101.51 252.119 1102.31 255.31C1103.15 258.666 1100.72 266.824 1099.18 265.806V265.806ZM263.67 264.397C264.376 263.254 268.361 263.125 268.36 264.244C268.36 264.681 267.173 265.106 265.723 265.19C264.272 265.274 263.349 264.917 263.67 264.397V264.397ZM242.752 254.202C241.06 252.26 241.307 249.699 243.185 249.699C243.786 249.699 244.035 250.629 243.738 251.764C243.441 252.9 243.742 254.025 244.408 254.264C245.073 254.503 245.337 255.005 244.994 255.379C244.651 255.753 243.642 255.223 242.752 254.202V254.202ZM248.897 245.891C248.521 244.91 248.451 243.869 248.741 243.578C249.032 243.288 249.578 243.852 249.955 244.833C250.331 245.814 250.401 246.855 250.11 247.146C249.82 247.437 249.274 246.872 248.897 245.891ZM242.268 244.939C242.268 244.066 243.175 243.352 244.283 243.352C246.074 243.352 246.122 243.529 244.711 244.939C243.838 245.812 242.932 246.526 242.696 246.526C242.461 246.526 242.268 245.812 242.268 244.939V244.939ZM1129.43 221.748C1129.43 220.92 1128.28 218.869 1126.86 217.191C1123.51 213.206 1124.7 210.547 1128.67 213.148C1131.52 215.018 1133.01 218.839 1131.96 221.583C1131.16 223.664 1129.43 223.777 1129.43 221.748V221.748ZM308.558 215.382C308.558 215.126 309.034 214.622 309.616 214.262C310.198 213.903 310.674 214.112 310.674 214.729C310.674 215.345 310.198 215.849 309.616 215.849C309.034 215.849 308.558 215.639 308.558 215.382ZM1135.33 214.082C1134.64 212.295 1136.26 210.606 1138.69 210.576C1140.37 210.555 1140.4 212.92 1138.74 214.579C1137.02 216.304 1136.13 216.175 1135.33 214.082ZM1144.99 210.221C1142.94 207.086 1140.04 206.656 1133.4 208.501C1130.69 209.251 1128.83 209.259 1127.58 208.527C1126.56 207.935 1126.29 207.436 1126.97 207.418C1127.65 207.401 1129.65 206.179 1131.4 204.705C1133.66 202.802 1135.32 202.206 1137.1 202.655C1139 203.13 1141.04 202.221 1145.34 198.991C1153.71 192.703 1154.46 190.72 1151.06 184.001C1147.79 177.552 1148.7 175.476 1153.55 178.336C1157.07 180.418 1160.39 186.381 1159.43 188.895C1159.08 189.8 1159.6 192.64 1160.58 195.206C1161.96 198.837 1162.09 200.364 1161.17 202.093C1159.81 204.632 1156.03 206.328 1151.73 206.328C1149.32 206.328 1148.6 206.947 1147.81 209.692L1146.85 213.055L1144.99 210.221V210.221ZM716.456 206.61C715.194 205.348 715.865 204.213 717.875 204.213C719.004 204.213 720.222 203.737 720.582 203.155C721.565 201.564 723.242 201.883 722.606 203.541C721.954 205.241 717.373 207.527 716.456 206.61ZM680.384 204.78L677.211 203.327L681.442 203.255C686.712 203.166 690.595 204.155 689.831 205.391C688.98 206.768 684.026 206.447 680.384 204.78V204.78ZM637.652 194.228C633.418 192.06 633.219 191.79 635.429 191.212C638.076 190.52 643.935 191.381 643.815 192.444C643.774 192.808 643.417 193.894 643.022 194.857C642.372 196.441 641.857 196.38 637.652 194.228V194.228ZM616.449 182.783C615.534 180.157 615.606 179.152 616.796 177.962C618.946 175.811 620.617 177.323 620.617 181.419C620.617 186.257 617.963 187.125 616.449 182.783V182.783ZM591.644 183.662C592.394 181.706 595.613 181.376 594.965 183.321C594.723 184.048 593.733 184.797 592.765 184.984C591.538 185.222 591.199 184.822 591.644 183.662V183.662ZM1144.36 171.588C1142.42 168.868 1142.37 168.367 1143.8 166.326C1145.21 164.32 1145.2 163.719 1143.75 160.921C1141.37 156.319 1141.71 156.041 1145.83 159.189C1147.87 160.745 1151.9 162.718 1154.78 163.573C1160.73 165.34 1162.17 166.728 1159.07 167.713C1157.89 168.085 1156.94 169.08 1156.94 169.925C1156.94 171.075 1156.21 171.274 1154.03 170.716C1148.44 169.288 1146.86 169.637 1147.22 172.213C1147.66 175.371 1146.94 175.215 1144.36 171.588H1144.36ZM618.149 172.831C616.922 171.604 617.384 169.554 619.031 168.922C620.177 168.482 620.617 169.038 620.617 170.924C620.617 173.464 619.582 174.263 618.149 172.831ZM1137.65 150.528C1136.75 149.51 1134.59 145.82 1132.84 142.328C1131.1 138.836 1126.48 132.423 1122.58 128.078C1118.23 123.223 1116.02 120.004 1116.84 119.728C1117.58 119.481 1119.17 120.587 1120.37 122.186C1123.28 126.061 1126.87 129.427 1132.52 133.594C1137.21 137.048 1139.53 140.246 1136.5 139.085C1133.02 137.747 1133.89 140.923 1138.4 146.005C1141.03 148.968 1143.18 151.614 1143.18 151.886C1143.18 153.172 1139.1 152.169 1137.65 150.528ZM363.565 148.677C363.565 147.804 364.027 147.09 364.59 147.09C365.154 147.09 365.341 147.804 365.006 148.677C364.671 149.55 364.21 150.264 363.981 150.264C363.753 150.264 363.565 149.55 363.565 148.677ZM358.038 145.263L354.097 144.85L361.513 137.507C365.591 133.469 369.462 130.165 370.113 130.165C370.801 130.165 370.595 130.942 369.622 132.017C367.42 134.45 368.922 137.184 372.946 138.068C374.703 138.454 376.454 139.8 377.131 141.285C378.217 143.669 378.033 143.912 374.368 144.93C370.523 145.998 365.933 146.091 358.038 145.263V145.263ZM100.279 137.674C96.6142 134.251 96.2055 132.809 98.6353 131.877C100.811 131.042 104.828 133.764 106.351 137.105C107.948 140.612 107.92 140.743 105.568 140.743C104.466 140.743 102.085 139.362 100.279 137.674ZM566.139 132.3C567.303 131.726 569.593 130.774 571.228 130.184C574.83 128.884 574.233 127.499 569.676 126.588C566.551 125.963 566.441 125.804 568.229 124.496C569.294 123.718 569.855 122.579 569.476 121.966C569.088 121.339 570.176 120.366 571.959 119.745C573.703 119.136 575.131 118.169 575.131 117.595C575.131 115.152 572.926 111.041 571.701 111.201C568.877 111.57 567.568 111.072 568.024 109.802C568.285 109.074 568.07 107.646 567.546 106.628C566.184 103.981 569.313 98.5057 572.222 98.4463C572.658 98.4382 572.896 99.0138 572.751 99.7272C572.605 100.441 573.603 101.194 574.969 101.401L577.452 101.778L575.079 104.303L572.707 106.828L575.381 107.845C578.252 108.936 581.018 112.491 583.835 118.709C585.185 121.688 586.073 122.467 587.648 122.055C590.881 121.21 591.264 123.4 588.231 125.387C586.177 126.734 585.787 127.492 586.687 128.392C587.587 129.292 585.813 129.896 579.659 130.784C575.132 131.437 569.762 132.28 567.726 132.658C564.894 133.182 564.521 133.098 566.139 132.3V132.3ZM548.3 126.456C547.938 125.513 548.351 123.371 549.218 121.695C550.212 119.773 550.404 118.409 549.739 117.997C547.906 116.865 548.593 115.419 551.286 114.743C552.717 114.384 554.441 113.423 555.118 112.607C556.527 110.909 563.044 110.596 564.022 112.18C564.381 112.761 563.933 114.295 563.027 115.589C562.121 116.883 561.379 119.207 561.379 120.754C561.379 123.113 560.654 123.819 556.883 125.128C554.411 125.986 551.616 127.022 550.673 127.43C549.567 127.908 548.725 127.562 548.3 126.456V126.456ZM567.726 115.947C567.726 115.69 568.202 115.186 568.784 114.826C569.366 114.467 569.842 114.677 569.842 115.293C569.842 115.909 569.366 116.413 568.784 116.413C568.202 116.413 567.726 116.203 567.726 115.947ZM98.2624 110.85C97.2261 109.601 97.2921 109.019 98.5924 107.94C100.742 106.156 101.808 107.366 100.557 110.17C99.6944 112.104 99.3805 112.197 98.2624 110.85V110.85ZM96.6081 102.894C96.2509 102.316 96.6674 101.255 97.5337 100.536C99.2536 99.1087 99.6128 100.228 98.167 102.51C97.6146 103.382 97.0026 103.533 96.6081 102.894ZM28.2344 102.219C28.2344 101.475 31.442 100.174 35.9923 99.0715C37.7173 98.6536 38.7371 98.7544 38.3944 99.3089C38.0669 99.8389 36.4799 100.539 34.8679 100.864C33.2558 101.189 31.1038 101.778 30.0856 102.172C29.0675 102.565 28.2344 102.587 28.2344 102.22V102.219ZM656.848 90.3247C654.896 89.5372 655.242 88.3234 657.465 88.156C658.532 88.0756 659.404 88.6883 659.404 89.5176C659.404 91.0926 659.038 91.2083 656.848 90.3247ZM424.39 84.9181C417.696 81.2676 414.497 75.6591 416.436 70.9764C417.354 68.7602 417.382 67.3666 416.54 65.7939C414.789 62.5208 417.074 58.6851 422.919 55.0888C425.695 53.3807 428.467 51.0482 429.078 49.9054C430.773 46.7393 429.264 41.3135 426.315 39.97C424.822 39.29 424.01 38.2147 424.34 37.3554C425.091 35.3985 421.569 28.7148 418.061 25.4401C415.48 23.0299 414.369 22.7898 405.529 22.732C393.491 22.6531 391.248 21.9839 391.447 18.5298C391.53 17.095 391.848 15.9208 392.154 15.9204C392.461 15.92 396.745 15.4235 401.675 14.817C407.97 14.0427 413.613 12.4459 420.63 9.45377C431.493 4.82121 432.321 4.73068 458.241 5.33992C466.426 5.53231 473.956 4.92657 483.629 3.29757C492.637 1.78055 499.265 1.20868 502.844 1.63971C505.886 2.00594 510.289 1.76439 512.775 1.09499C518.544 -0.458425 533.532 1.41019 539.428 4.41773C542.913 6.19577 544.757 6.43055 550.638 5.84507C556.99 5.21264 557.47 5.29583 555.561 6.69816C554.397 7.55277 550.827 8.59672 547.627 9.01805C540.684 9.93233 534.303 14.8813 535.994 18.0413C536.724 19.4044 536.201 20.5678 533.842 22.8273C532.129 24.4692 530.476 26.6029 530.169 27.5688C529.432 29.8893 520.081 34.208 515.444 34.369C510.293 34.5479 509.755 35.6427 513.738 37.8365C515.619 38.8728 518.366 40.6386 519.841 41.7605L522.524 43.8002L520.098 44.6973C518.239 45.385 516.731 44.9417 513.638 42.7979C509.44 39.8888 504.923 39.8742 507.333 42.7775C508.273 43.9097 508.046 44.3496 506.288 44.8094C502.357 45.8374 505.137 47.8702 509.473 47.1378C512.232 46.6716 513.784 46.9173 514.647 47.957C515.673 49.194 514.334 49.7668 506.63 51.3862C501.543 52.4554 494.762 53.3694 491.562 53.4172C485.618 53.506 481.334 55.2126 475.032 60.0022C472.977 61.564 468.61 63.1119 463.5 64.0896C452.82 66.1331 449.21 68.4964 442.775 77.6601C437.606 85.0204 434.489 87.7637 431.266 87.7896C430.394 87.7968 427.299 86.5045 424.39 84.9181V84.9181ZM349.386 77.8432C347.114 76.4474 344.33 73.8441 343.199 72.0581C340.992 68.5715 338.956 68.1285 332.997 69.8378C330.979 70.4164 328.715 70.4721 327.81 69.9655C324.677 68.2125 330.335 66.4884 336.637 67.2757C341.429 67.8745 342.494 67.7039 343.053 66.2475C344.176 63.3214 349.315 61.2243 352.173 62.5263C353.932 63.3278 355.531 63.3054 357.777 62.4479C360.8 61.2942 360.842 61.1901 358.868 59.7404C357.738 58.9111 356.449 58.2327 356.003 58.2327C355.557 58.2327 353.947 56.1076 352.425 53.5103C350.902 50.913 348.05 47.7945 346.085 46.5803C342.746 44.5168 342.304 44.4806 339.318 46.0249C336.707 47.375 335.199 47.4696 331.068 46.542C328.287 45.9177 324.405 45.7074 322.441 46.0747C319.033 46.7119 312.79 45.0443 312.79 43.4969C312.79 40.6543 321.749 34.2749 327.07 33.3279L331.302 32.575L328.277 35.7974C324.105 40.2426 325.674 42.2884 330.205 38.3104C332.126 36.623 335.448 34.9142 337.586 34.5131C340.852 33.9003 342.252 34.2999 346.354 37.0168C351.811 40.6316 352.231 40.7285 355.309 39.0814C357.162 38.0896 357.85 38.362 359.862 40.886C361.254 42.6318 364.363 44.5329 367.395 45.4921C372.226 47.0209 372.557 47.3534 372.557 50.6858C372.557 53.1847 373.278 54.7616 374.974 55.975C382.073 61.0519 381.919 60.8422 380.383 63.3019C378.276 66.6744 376.613 66.9188 371.952 64.5407C368.709 62.8864 367.292 62.6595 365.66 63.5332C363.662 64.6023 363.641 64.8307 365.249 67.9403C366.569 70.4923 366.689 71.781 365.792 73.7492C364.687 76.1747 364.511 76.2121 361.511 74.6605C355.612 71.61 351.639 73.6173 357.142 76.8679C358.866 77.8863 360.037 79.1082 359.743 79.5833C358.719 81.2411 353.485 80.3617 349.386 77.8431V77.8432ZM566.668 79.2129C566.668 78.7281 567.382 78.3314 568.255 78.3314C569.128 78.3314 569.842 78.7281 569.842 79.2129C569.842 79.6978 569.128 80.0944 568.255 80.0944C567.382 80.0944 566.668 79.6978 566.668 79.2129ZM309.501 73.524C307.415 72.4276 305.795 72.3337 302.875 73.1401C297.91 74.5111 296.173 73.5078 298.693 70.7236C301.918 67.1593 304.106 66.4583 307.997 67.7423C312.376 69.1875 314.319 71.3354 313.138 73.4244C312.385 74.7561 311.871 74.7702 309.501 73.524V73.524ZM519.595 73.0423C517.849 71.8946 515.628 71.2067 514.658 71.5135C513.322 71.9361 513.026 71.5693 513.436 70.0013C514.065 67.5946 523.359 64.1211 526.501 65.1183C527.597 65.4659 530.396 65.18 532.723 64.483C536.375 63.3887 537.344 63.4715 539.813 65.0893L542.672 66.963L540.125 68.9481C537.975 70.6236 533.988 72.0773 524.355 74.6973C523.482 74.9347 521.34 74.1899 519.595 73.0423V73.0423ZM232.395 53.2953C230.94 53.0654 227.397 51.8212 224.521 50.5303L219.292 48.1833L226.637 47.6544C230.676 47.3635 233.982 46.6495 233.982 46.0677C233.982 45.4859 231.126 44.7547 227.635 44.4429C223.026 44.0311 222.157 43.7415 224.461 43.3851C228.32 42.7883 228.598 41.1171 224.99 40.206C222.392 39.5499 222.411 39.5099 226.066 37.9354C232.399 35.2067 239.144 34.6839 245.121 36.4588C250.028 37.916 250.795 37.9098 253.108 36.3939C254.744 35.3219 255.715 35.1426 255.799 35.8966C255.872 36.5454 255.991 37.6315 256.064 38.3103C256.309 40.6019 258.419 40.3054 260.937 37.6254C263.268 35.1443 267.308 33.9558 267.299 35.7539C267.297 36.1902 266.356 38.0878 265.208 39.9706L263.121 43.394L266.534 45.1749L269.948 46.9557L264.343 49.514C259.285 51.8224 258.248 51.9545 253.714 50.8669C249.319 49.8124 248.058 49.933 243.628 51.8315C238.626 53.9759 237.571 54.1133 232.395 53.2953V53.2953ZM274.82 52.5501C273.865 51.3988 274.259 50.8322 276.729 49.8094C278.447 49.0975 280.913 48.8602 282.234 49.2795C284.525 50.0067 284.472 50.121 280.989 51.9758C276.546 54.3421 276.325 54.3628 274.82 52.5501V52.5501ZM566.668 47.6544C568.719 46.329 569.842 46.329 569.842 47.6544C569.842 48.2362 568.771 48.7049 567.461 48.696C565.537 48.683 565.385 48.4836 566.668 47.6544V47.6544ZM760.779 44.7197C755.371 42.5834 755.482 42.7002 757.056 40.8041C757.792 39.9173 757.979 39.1767 757.471 39.1582C756.963 39.1396 757.5 38.4051 758.664 37.5259C759.827 36.6466 760.787 35.5907 760.797 35.1794C760.834 33.6148 765.141 29.4887 768.184 28.1022C769.93 27.3069 774.452 26.4107 778.233 26.1104C782.015 25.8102 787.081 25.2601 789.49 24.8881C792.054 24.4921 794.144 24.654 794.53 25.2786C795.28 26.4921 793.849 27.0079 785.638 28.483C777.491 29.9467 772.594 32.2276 769.369 36.0608C765.971 40.0989 765.857 42.6485 768.978 44.8253L771.358 46.4856L768.184 46.4383C766.439 46.4124 763.107 45.6389 760.779 44.7197V44.7197ZM206.748 41.6526C205.042 39.9465 205.431 39.5751 213.616 35.0944C223.206 29.8445 228.024 29.1476 236.626 31.7665L241.386 33.2158L235.04 34.4743C229.849 35.5036 218.849 39.1821 210.162 42.7935C209.276 43.1619 207.746 42.6506 206.748 41.6526V41.6526ZM283.171 40.2834C283.171 39.7202 281.862 38.508 280.262 37.5897L277.353 35.92L281.248 36.5325C284.015 36.9678 285.393 36.7085 286.008 35.6369C286.739 34.3624 293.472 31.8122 296.156 31.7929C296.607 31.7893 296.239 33.2134 295.338 34.9569C293.214 39.0631 283.171 43.46 283.171 40.2834V40.2834ZM299.64 37.1947C298.125 34.7425 308.476 30.9466 312.872 32.3422C316.077 33.3593 313.935 35.107 308.346 36.0361C305.845 36.4519 303.013 37.1264 302.054 37.5351C301.095 37.9438 300.009 37.7907 299.64 37.1947ZM333.417 29.4052C326.436 28.8499 320.593 28.2747 320.434 28.127C319.488 27.2494 321.847 24.3925 324.386 23.3408C326.883 22.3068 328.033 22.444 331.451 24.1834C334.782 25.8787 336.929 26.1606 343.117 25.7146C347.288 25.4139 352.049 25.509 353.695 25.9258L356.69 26.6837L352.987 28.6621C350.951 29.7502 348.571 30.5898 347.698 30.5277C346.825 30.4657 340.399 29.9605 333.417 29.4052ZM637.836 25.082C632.64 22.4217 632.139 21.2153 636.22 21.1926C637.82 21.1836 639.843 20.6627 640.716 20.0349C642.088 19.0482 642.069 18.9675 640.58 19.4395C639.633 19.7399 638.304 19.4315 637.627 18.7548C636.692 17.819 636.204 17.8356 635.593 18.824C635.028 19.7391 633.866 19.8474 631.67 19.1898C626.092 17.5193 624.849 16.7776 624.849 15.1214C624.849 13.7185 626.247 13.59 634.898 14.1981C641.486 14.6612 644.947 14.5328 644.947 13.8253C644.947 11.743 647.882 12.7712 648.661 15.1262L649.447 17.5063L649.915 15.1262C650.173 13.8172 651.065 12.7461 651.897 12.7461C652.729 12.7461 653.41 12.1749 653.41 11.4767C653.41 10.4894 653.692 10.4894 654.679 11.4767C655.418 12.2151 658.958 12.7461 663.142 12.7461C670.705 12.7461 672.481 14.0983 667.437 16.016C664.816 17.0126 660.257 16.7306 655.261 15.263C654.243 14.9639 653.413 15.1083 653.417 15.5839C653.424 16.5601 659.368 20.1509 660.976 20.1509C661.552 20.1509 662.691 20.8187 663.508 21.6349C664.781 22.9084 664.77 23.2038 663.432 23.7174C662.574 24.0465 661.873 23.8017 661.873 23.1735C661.873 22.4349 660.527 22.2835 658.066 22.7452C655.401 23.2452 654.477 23.108 654.984 22.2877C655.382 21.6433 655.132 20.4229 654.429 19.5756C653.073 17.9412 649.179 17.4408 649.179 18.9009C649.179 19.377 647.632 21.477 645.741 23.5675L642.303 27.3685L637.836 25.082L637.836 25.082ZM357.218 22.7549C355.385 21.6783 352.79 21.3665 348.756 21.7377C344.985 22.0846 342.086 21.7855 340.515 20.8876C338.351 19.6497 338.88 19.5086 345.487 19.5621C353.748 19.629 357.376 17.8605 352.902 15.9476C350.777 15.0389 351.087 14.9564 354.73 15.4611C359.486 16.12 361.335 14.8457 358.744 12.6949C355.98 10.4016 359.019 9.68959 368.851 10.3266C374.935 10.7208 378.759 10.4997 380.321 9.66328C383.315 8.06093 382.141 6.02122 378.718 6.88014C376.353 7.47376 359.939 6.49967 360.632 5.8068C361.127 5.31165 384.382 3.15789 399.651 2.19299C407.572 1.6925 416.378 0.99433 419.221 0.641507L424.39 0L415.857 4.09887C407.857 7.94183 394.846 11.6883 389.501 11.6883C388.2 11.6883 384.459 13.1164 381.188 14.8618C377.918 16.6072 374.586 18.0353 373.784 18.0353C372.982 18.0353 369.522 19.4573 366.095 21.1953C362.667 22.9334 359.863 24.3446 359.863 24.3313C359.863 24.3181 358.673 23.6087 357.218 22.7549V22.7549ZM336.591 13.0904C331.464 11.956 331.276 11.5293 335.044 9.57666C340.535 6.73048 345.732 6.00099 348.094 7.74463C349.965 9.12511 349.856 9.33849 346.183 11.506C342.354 13.7651 340.8 14.0218 336.591 13.0904V13.0904Z" fill="#E4E8ED"></path>
  <path d="M241.982 140.953C233.593 140.953 226.766 147.781 226.766 156.187C226.771 164.242 241.654 187.047 241.982 187.047C242.311 187.047 257.216 164.242 257.216 156.187C257.216 147.781 250.394 140.953 241.982 140.953ZM241.982 165.049C237.091 165.049 233.121 161.079 233.121 156.187C233.121 151.295 237.091 147.308 241.982 147.308C246.891 147.308 250.861 151.295 250.861 156.187C250.861 161.079 246.891 165.049 241.982 165.049Z" fill="#4F6068"></path>
</svg>
