<svg width="400" height="400" viewBox="0 0 400 400" fill="none" xmlns="http://www.w3.org/2000/svg">
<path d="M400 200C400 89.5431 310.457 0 200 0C89.5431 0 0 89.5431 0 200C0 310.457 89.5431 400 200 400C310.457 400 400 310.457 400 200Z" fill="url(#paint0_linear_330_981)"/>
<path d="M108.262 208.537L244.592 73.1449C247.138 70.6156 251.238 73.6936 249.518 76.8445L198.777 169.844C197.644 171.917 199.146 174.448 201.509 174.448H289.197C292.022 174.448 293.386 177.908 291.32 179.836L137.658 323.248C134.903 325.819 130.802 322.196 133.014 319.145L205.755 218.798C207.246 216.74 205.776 213.858 203.235 213.858H110.455C107.677 213.858 106.291 210.495 108.262 208.537V208.537Z" fill="white"/>
<defs>
<linearGradient id="paint0_linear_330_981" x1="200" y1="0" x2="200" y2="400" gradientUnits="userSpaceOnUse">
<stop stop-color="#7BCBD4"/>
<stop offset="1" stop-color="#29C6B7"/>
</linearGradient>
</defs>
</svg>
