<svg width="2400" height="1260" viewBox="0 0 2400 1260" fill="none" xmlns="http://www.w3.org/2000/svg">
<g clip-path="url(#clip0_344_855)">
<rect width="2400" height="1260" fill="#01A791"/>
<path opacity="0.25" d="M556.569 1466C429.934 1365.28 330.347 1245.51 257.808 1106.71C185.269 966.68 149 807.609 149 629.5C149 451.391 185.269 292.935 257.808 154.132C330.347 14.1013 429.934 -106.276 556.569 -207L658 -120.402C537.512 -14.7647 448.99 98.8569 392.435 220.463C335.879 340.84 307.601 477.186 307.601 629.5C307.601 781.814 335.879 918.774 392.435 1040.38C448.99 1161.99 537.512 1274.99 658 1379.4L556.569 1466Z" fill="#051C28"/>
<path opacity="0.25" d="M1427.57 1466C1300.93 1365.28 1201.35 1245.51 1128.81 1106.71C1056.27 966.68 1020 807.609 1020 629.5C1020 451.391 1056.27 292.935 1128.81 154.132C1201.35 14.1013 1300.93 -106.276 1427.57 -207L1529 -120.402C1408.51 -14.7647 1319.99 98.8569 1263.43 220.463C1206.88 340.84 1178.6 477.186 1178.6 629.5C1178.6 781.814 1206.88 918.774 1263.43 1040.38C1319.99 1161.99 1408.51 1274.99 1529 1379.4L1427.57 1466Z" fill="#051C28"/>
<path opacity="0.25" d="M2298.57 1466C2171.93 1365.28 2072.35 1245.51 1999.81 1106.71C1927.27 966.68 1891 807.609 1891 629.5C1891 451.391 1927.27 292.935 1999.81 154.132C2072.35 14.1013 2171.93 -106.276 2298.57 -207L2400 -120.402C2279.51 -14.7647 2190.99 98.8569 2134.43 220.463C2077.88 340.84 2049.6 477.186 2049.6 629.5C2049.6 781.814 2077.88 918.774 2134.43 1040.38C2190.99 1161.99 2279.51 1274.99 2400 1379.4L2298.57 1466Z" fill="#051C28"/>
</g>
<defs>
<clipPath id="clip0_344_855">
<rect width="2400" height="1260" fill="white"/>
</clipPath>
</defs>
</svg>
