<svg width="2400" height="1260" viewBox="0 0 2400 1260" fill="none" xmlns="http://www.w3.org/2000/svg">
<g clip-path="url(#clip0_344_875)">
<rect width="2400" height="1260" fill="#01A791"/>
<path opacity="0.25" d="M1436.91 2439.37L1267.63 2003.34C1443.4 1940.3 1612.21 1860.63 1774.05 1764.31C1934.98 1662.66 2075.09 1527.54 2194.38 1358.95C2311.47 1193.49 2367.05 1045.41 2361.15 914.732C2357.45 780.93 2300.98 675.376 2191.72 598.068C2104.32 536.222 2005.56 520.219 1895.44 550.06C1785.32 579.9 1668.19 632.89 1544.04 709.03C1422.11 782.047 1293.55 864.431 1158.36 956.182C1023.17 1047.93 885.703 1126.35 745.952 1191.45C605.289 1251.22 464.29 1284.97 322.955 1292.73C181.62 1300.48 42.2783 1255.76 -95.0701 1158.58C-294.85 1017.21 -410.13 832.568 -440.912 604.638C-469.485 373.586 -416.081 132.605 -280.699 -118.306L-894.084 -552.331L-665.44 -875.463L-56.7369 -444.751C78.1639 -602.297 220.82 -714.532 371.232 -781.454C520.732 -853.707 675.442 -903.533 835.362 -930.931L937.939 -499.93C859.804 -475.57 787.455 -449.457 720.894 -421.592C651.211 -395.936 586.666 -364.301 527.26 -326.688C467.854 -289.075 410.921 -245.026 356.461 -194.543C302.002 -144.059 248.262 -81.3524 195.243 -6.42322C93.6233 137.191 44.2055 273.233 46.99 401.704C48.8622 524.844 104.425 625.068 213.68 702.375C291.719 757.595 382.676 768.075 486.553 733.818C587.308 697.351 697.091 641.505 815.903 566.278C936.924 487.93 1065.03 402.88 1200.22 311.13C1334.49 214.049 1471.96 135.626 1612.63 75.8608C1755.5 12.9736 1900.72 -20.1372 2048.3 -23.4721C2192.76 -29.0158 2336.78 19.0142 2480.37 120.618C2683.27 264.189 2801.48 457.936 2835 701.858C2865.4 943.572 2806.74 1201.92 2659.01 1476.89L3347.32 1963.93L3118.67 2287.06L2439.73 1806.65C2304.83 1964.19 2148.27 2099.39 1970.06 2212.23C1788.72 2322.86 1611 2398.57 1436.91 2439.37Z" fill="#051C28"/>
</g>
<defs>
<clipPath id="clip0_344_875">
<rect width="2400" height="1260" fill="white"/>
</clipPath>
</defs>
</svg>
