<svg width="2400" height="1260" viewBox="0 0 2400 1260" fill="none" xmlns="http://www.w3.org/2000/svg">
<g clip-path="url(#clip0_346_125)">
<rect width="2400" height="1260" fill="#01A791"/>
<g opacity="0.25">
<path d="M125 329.803C125 270.572 130.836 218.902 142.508 174.794C152.513 130.686 170.021 94.1391 195.033 65.1537C220.044 36.1683 254.227 14.7444 297.58 0.881749C339.266 -12.9808 392.625 -19.9122 457.655 -19.9122C502.676 -19.9122 545.196 -19.282 585.214 -18.0218C626.9 -15.5013 666.919 -13.6109 705.27 -12.3507C743.621 -9.83021 781.972 -7.93985 820.323 -6.67963C858.674 -4.15915 898.693 -2.89896 940.379 -2.89895C965.391 -2.89895 988.735 -6.67962 1010.41 -14.2411C1033.76 -21.8025 1054.6 -35.665 1072.94 -55.8288C1091.28 -75.9925 1106.29 -104.348 1117.96 -140.895C1129.63 -176.181 1135.47 -221.55 1135.47 -277L1265.53 -277C1265.53 -221.55 1271.37 -176.181 1283.04 -140.895C1294.71 -104.348 1309.72 -75.9925 1328.06 -55.8288C1346.4 -35.665 1366.41 -21.8024 1388.09 -14.241C1411.43 -6.6796 1435.61 -2.89893 1460.62 -2.89893C1540.66 -2.89893 1619.03 -6.04947 1695.73 -12.3506C1774.1 -17.3916 1856.64 -19.9121 1943.35 -19.9121C2008.38 -19.9121 2061.73 -12.9808 2103.42 0.881828C2146.77 14.7444 2180.96 36.1684 2205.97 65.1538C2230.98 94.1392 2248.49 130.686 2258.49 174.794C2270.16 218.902 2276 270.572 2276 329.803L2276 445.115L2158.45 445.115L2158.45 346.816C2158.45 298.927 2154.28 259.23 2145.94 227.724C2137.6 197.479 2124.26 173.534 2105.92 155.891C2087.58 139.508 2063.4 128.166 2033.39 121.864C2005.04 115.563 1970.86 112.413 1930.84 112.413C1859.14 112.413 1784.94 114.303 1708.24 118.084C1633.2 121.864 1556.5 123.755 1478.13 123.755C1396.42 123.755 1333.9 111.152 1290.54 85.9476C1248.86 62.0032 1220.51 17.2648 1205.5 -48.2674L1195.5 -48.2674C1180.49 17.2648 1151.31 62.0032 1107.96 85.9476C1066.27 111.152 1004.58 123.755 922.871 123.755C837.832 123.755 760.295 121.864 690.263 118.084C620.23 114.303 546.863 112.413 470.161 112.413C430.142 112.413 395.959 115.563 367.613 121.864C337.599 128.165 313.421 139.508 295.079 155.891C276.737 173.534 263.398 197.478 255.061 227.724C246.723 259.23 242.555 298.927 242.555 346.816L242.555 445.115L125 445.115L125 329.803Z" fill="#051C28"/>
<path d="M125 816.776L242.555 816.776L242.555 913.184C242.555 961.073 246.723 1000.14 255.06 1030.39C263.398 1061.89 276.737 1086.47 295.079 1104.11C313.421 1121.75 337.599 1133.72 367.613 1140.03C395.959 1146.33 430.142 1149.48 470.16 1149.48C546.863 1149.48 620.23 1147.59 690.263 1143.81C760.295 1140.03 837.831 1138.14 922.871 1138.14C1004.58 1138.14 1066.27 1150.11 1107.96 1174.05C1151.31 1198 1180.49 1242.74 1195.5 1308.27L1205.5 1308.27C1220.51 1242.74 1248.86 1198 1290.54 1174.05C1333.9 1150.11 1396.42 1138.14 1478.13 1138.14C1556.5 1138.14 1633.2 1140.03 1708.24 1143.81C1784.94 1147.59 1859.14 1149.48 1930.84 1149.48C1970.86 1149.48 2005.04 1146.33 2033.39 1140.03C2063.4 1133.72 2087.58 1121.75 2105.92 1104.11C2124.26 1086.47 2137.6 1061.89 2145.94 1030.39C2154.28 1000.14 2158.45 961.073 2158.45 913.184L2158.45 816.776L2276 816.776L2276 932.087C2276 991.318 2270.16 1042.36 2258.49 1085.21C2248.49 1129.31 2230.98 1165.86 2205.97 1194.85C2180.96 1223.83 2146.77 1245.26 2103.42 1259.12C2061.73 1272.98 2008.38 1279.91 1943.35 1279.91C1856.64 1279.91 1774.1 1276.76 1695.73 1270.46C1619.03 1265.42 1540.66 1262.9 1460.62 1262.9C1435.61 1262.9 1411.43 1266.68 1388.09 1274.24C1366.41 1281.8 1346.4 1295.66 1328.06 1315.83C1309.72 1335.99 1294.71 1363.72 1283.04 1399C1271.37 1435.55 1265.53 1481.55 1265.53 1537L1135.47 1537C1135.47 1481.55 1129.63 1435.55 1117.96 1399C1106.29 1363.72 1091.28 1335.99 1072.94 1315.83C1054.6 1295.66 1033.76 1281.8 1010.41 1274.24C988.735 1266.68 965.391 1262.9 940.379 1262.9C898.693 1262.9 858.674 1263.53 820.323 1264.79C781.972 1267.31 743.621 1269.2 705.27 1270.46C666.919 1272.98 626.9 1274.87 585.214 1276.13C545.195 1278.65 502.676 1279.91 457.655 1279.91C392.625 1279.91 339.266 1272.98 297.58 1259.12C254.227 1245.26 220.044 1223.83 195.033 1194.85C170.021 1165.86 152.513 1129.31 142.508 1085.21C130.836 1042.36 125 991.318 125 932.087L125 816.776Z" fill="#051C28"/>
</g>
</g>
<defs>
<clipPath id="clip0_346_125">
<rect width="2400" height="1260" fill="white"/>
</clipPath>
</defs>
</svg>
