<svg width="2400" height="1260" viewBox="0 0 2400 1260" fill="none" xmlns="http://www.w3.org/2000/svg">
<g clip-path="url(#clip0_346_380)">
<rect width="2400" height="1260" fill="#9CE736"/>
<path opacity="0.25" d="M3431 629.5C3431 994.284 3135.28 1290 2770.5 1290C2405.72 1290 2110 994.284 2110 629.5C2110 264.716 2405.72 -31 2770.5 -31C3135.28 -31 3431 264.716 3431 629.5Z" fill="#051C28"/>
<path opacity="0.25" d="M548 629.5C548 994.284 252.284 1290 -112.5 1290C-477.284 1290 -773 994.284 -773 629.5C-773 264.716 -477.284 -31 -112.5 -31C252.284 -31 548 264.716 548 629.5Z" fill="#051C28"/>
<path opacity="0.25" d="M1990 629.5C1990 994.284 1694.28 1290 1329.5 1290C964.716 1290 669 994.284 669 629.5C669 264.716 964.716 -31 1329.5 -31C1694.28 -31 1990 264.716 1990 629.5Z" fill="#051C28"/>
</g>
<defs>
<clipPath id="clip0_346_380">
<rect width="2400" height="1260" fill="white"/>
</clipPath>
</defs>
</svg>
