<svg width="2400" height="1260" viewBox="0 0 2400 1260" fill="none" xmlns="http://www.w3.org/2000/svg">
<g clip-path="url(#clip0_346_223)">
<rect width="2400" height="1260" fill="#2260BF"/>
<path opacity="0.25" d="M-300.005 1366.77C-264.675 1259.96 -214.624 1174.83 -149.854 1111.38C-85.0843 1047.94 -12.99 997.063 66.4283 958.751C148.575 921.876 234.025 891.965 322.778 869.019C411.531 846.073 495.473 822.336 574.604 797.808C657.899 771.989 732.363 739.778 797.994 701.174C863.626 662.571 915.112 607.809 952.452 536.891C1012.77 422.33 1024.12 308.113 986.492 194.24C953.032 79.0757 861.265 -18.015 711.191 -97.0324C607.503 -151.626 499.148 -180.807 386.125 -184.576C277.267 -189.635 166.613 -174.736 54.164 -139.881L-49.4488 -429.592C93.59 -476.212 244.384 -497.847 402.932 -494.495C561.48 -491.143 719.884 -447.804 878.144 -364.476C992.746 -304.136 1088.53 -234.54 1165.51 -155.689C1242.49 -76.8377 1298.64 8.4681 1333.96 100.229C1373.46 190.699 1390.11 284.823 1383.94 382.601C1381.93 479.088 1355.07 576.429 1303.37 674.624C1254.54 767.364 1192.35 839.137 1116.81 889.942C1044 942.183 964.509 983.941 878.341 1015.22C794.902 1047.93 707.441 1075.04 615.96 1096.55C528.643 1116.76 443.265 1143.23 359.826 1175.94C280.551 1207.36 207.955 1249.26 142.036 1301.65C78.8455 1355.48 31.0932 1429.62 -1.22086 1524.09L-300.005 1366.77ZM-645.551 2459.91C-727.41 2416.81 -783.274 2350.81 -813.145 2261.93C-840.286 2174.48 -828.006 2081.65 -776.304 1983.46C-726.038 1887.99 -657.893 1828.07 -571.869 1803.68C-481.68 1778.01 -395.656 1786.72 -313.798 1829.82C-231.939 1872.93 -177.439 1938.2 -150.297 2025.65C-118.991 2111.81 -128.471 2202.62 -178.736 2298.09C-230.438 2396.29 -301.383 2458.22 -391.573 2483.89C-479.033 2511 -563.692 2503.01 -645.551 2459.91Z" fill="#051C28"/>
<path opacity="0.25" d="M-276.86 2207.01C-218.247 2029.8 -135.213 1888.57 -27.758 1783.32C79.6967 1678.06 199.302 1593.66 331.059 1530.1C467.342 1468.92 609.104 1419.3 756.347 1381.23C903.59 1343.16 1042.85 1303.78 1174.13 1263.09C1312.32 1220.25 1435.86 1166.82 1544.74 1102.77C1653.62 1038.73 1739.04 947.878 1800.99 830.223C1901.06 640.165 1919.88 450.677 1857.46 261.759C1801.95 70.6998 1649.71 -90.3752 1400.73 -221.466C1228.71 -312.039 1048.95 -360.45 861.441 -366.702C680.843 -375.095 497.267 -350.379 310.712 -292.553L138.817 -773.188C376.12 -850.532 626.289 -886.424 889.324 -880.864C1152.36 -875.303 1415.15 -803.402 1677.71 -665.161C1867.84 -565.055 2026.75 -449.594 2154.45 -318.778C2282.16 -187.963 2375.31 -46.4394 2433.92 105.793C2499.44 255.884 2527.08 412.038 2516.83 574.254C2513.49 734.328 2468.94 895.818 2383.16 1058.73C2302.15 1212.58 2198.99 1331.65 2073.66 1415.94C1952.87 1502.61 1820.99 1571.89 1678.04 1623.77C1539.61 1678.04 1394.51 1723.02 1242.74 1758.7C1097.88 1792.24 956.238 1836.15 817.81 1890.42C686.292 1942.54 565.853 2012.06 456.493 2098.97C351.659 2188.27 272.437 2311.28 218.828 2468L-276.86 2207.01ZM-850.127 4020.54C-985.932 3949.04 -1078.61 3839.55 -1128.17 3692.09C-1173.2 3547.01 -1152.82 3393.01 -1067.05 3230.1C-983.657 3071.72 -870.603 2972.31 -727.888 2931.85C-578.262 2889.26 -435.548 2903.72 -299.743 2975.22C-163.938 3046.73 -73.5211 3155.02 -28.4926 3300.1C23.4452 3443.04 7.71835 3593.7 -75.6734 3752.09C-161.448 3914.99 -279.147 4017.74 -428.773 4060.34C-573.871 4105.31 -714.323 4092.05 -850.127 4020.54Z" fill="#051C28"/>
<path opacity="0.25" d="M-470.035 660.067C-436.915 607.087 -398.708 567.743 -355.412 542.038C-312.117 516.332 -266.523 498.37 -218.632 488.151C-169.458 479.067 -119.418 474.175 -68.5133 473.476C-17.6081 472.776 30.8055 471.017 76.7275 468.197C125.066 465.229 169.481 457.65 209.972 445.46C250.463 433.27 285.449 410.5 314.929 377.152C362.55 323.281 383.704 263.15 378.391 196.759C375.495 130.221 338.761 65.7595 268.19 3.37578C219.432 -39.7257 164.811 -69.7305 104.327 -86.6385C46.2602 -103.695 -15.402 -110.22 -80.6595 -106.213L-98.4336 -276.159C-15.1235 -282.487 69.0821 -274.314 154.183 -251.639C239.285 -228.964 319.045 -184.734 393.465 -118.947C447.356 -71.3086 489.878 -21.1525 521.031 31.5211C552.184 84.1947 571.253 137.61 578.237 191.768C587.638 245.777 584.238 298.752 568.037 350.694C554.252 402.488 526.951 451.472 486.133 497.647C447.582 541.257 404.585 571.797 357.142 589.266C310.982 607.869 262.598 619.938 211.992 625.471C162.668 632.138 111.912 635.255 59.724 634.82C9.95274 634.236 -39.5946 637.278 -88.9182 643.946C-135.825 650.465 -180.508 663.519 -222.968 683.108C-264.145 703.832 -299.668 737.552 -329.535 784.268L-470.035 660.067ZM-800.336 1204.38C-838.829 1170.35 -860.284 1127.39 -864.702 1075.5C-867.837 1024.75 -848.995 976.281 -808.177 930.105C-768.492 885.213 -723.839 861.85 -674.217 860.016C-622.178 858.034 -576.912 874.057 -538.419 908.085C-499.926 942.112 -479.111 984.503 -475.977 1035.26C-470.425 1085.86 -487.492 1133.61 -527.176 1178.51C-567.995 1224.68 -614.423 1248.76 -666.462 1250.74C-717.218 1253.86 -761.843 1238.4 -800.336 1204.38Z" fill="#051C28"/>
</g>
<defs>
<clipPath id="clip0_346_223">
<rect width="2400" height="1260" fill="white"/>
</clipPath>
</defs>
</svg>
