<svg width="400" height="400" viewBox="0 0 400 400" fill="none" xmlns="http://www.w3.org/2000/svg">
<path fill-rule="evenodd" clip-rule="evenodd" d="M234.777 4L225.536 53.903H176.015L166.774 4H234.777ZM224.434 58.5572H176.858L189.466 125.008H211.827L224.434 58.5572ZM210.989 128.628L200.539 185.083L200.447 184.937L189.787 128.628H210.989ZM200.484 185.133L150.743 148.011L168.091 133.541L200.447 184.937L200.484 185.133ZM200.524 185.163L200.507 185.254L200.484 185.133L200.524 185.163ZM200.524 185.163L200.646 185.254L200.539 185.083L200.524 185.163ZM127.731 68.7516L88.5167 101.479L48.3517 71.5975L101.588 27.0123L127.731 68.7516ZM148.476 146.469L166.774 131.273L130.89 73.8125L93.3419 105.155L148.476 146.469ZM235.294 133.541L200.646 185.254L252.618 148.011L235.294 133.541ZM355.01 71.5975L301.773 27.0123L275.63 68.7516L314.845 101.479L355.01 71.5975ZM272.471 73.8125L310.019 105.146L254.886 146.211L236.587 131.019L272.471 73.8125ZM12.1059 130.18L0 198.33L49.1358 199.992L57.9186 149.651L12.1059 130.18ZM187.688 206.972L187.718 206.974L187.686 206.985L187.688 206.972ZM187.586 206.965L187.688 206.972L187.689 206.96L187.718 206.974L187.684 207.003L187.686 206.985L187.55 207.033L187.586 206.965ZM187.608 206.923L187.586 206.965L125.663 202.934L129.689 180.6L187.608 206.923ZM187.608 206.923L187.689 206.96L187.718 206.715L187.608 206.923ZM187.467 207.189L144.09 244.465L133.42 226.194L187.55 207.033L187.467 207.189ZM187.467 207.189L159.017 260.924L180.365 268.771L187.684 207.003L187.467 207.189ZM66.1926 249.689L89.9351 290.749L141.694 246.366L130.535 227.142L66.1926 249.689ZM13.1868 268.33L60.6471 251.705L85.3264 294.691L47.1209 327.465L13.1868 268.33ZM123.566 328.24L171.429 345.819L165.505 395.467L100.582 371.712L123.566 328.24ZM180.22 271.678L157.949 263.599L126.438 323.242L172.164 339.876L180.22 271.678ZM55.0743 200.469L63.6096 152.416L126.438 179.402L122.408 202.836L55.0743 200.469ZM342.081 149.91L350.864 200.251L400 198.589L387.894 130.438L342.081 149.91ZM274.855 202.759L270.818 180.341L213.833 204.905L213.842 205L213.575 204.905L213.856 205.146L219.976 268.771L241.241 260.936L214.019 205.285L257.44 242.397L267.873 224.126L213.887 205.016L213.833 204.905L274.855 202.759ZM213.887 205.016L213.842 205L213.856 205.146L214.019 205.285L213.887 205.016ZM335.1 247.865L311.358 288.939L259.599 244.304L270.758 225.073L335.1 247.865ZM315.966 292.881L354.172 325.655L388.106 266.757L340.646 249.895L315.966 292.881ZM277.851 202.836L273.82 179.402L336.649 152.416L345.184 200.469L277.851 202.836ZM299.935 371.712L235.012 395.467L229.089 345.819L276.952 328.24L299.935 371.712ZM228.353 339.876L274.079 323.242L242.568 263.599L220.297 271.678L228.353 339.876Z" fill="black" fill-opacity="0.05"/>
</svg>
