<svg width="2400" height="1260" viewBox="0 0 2400 1260" fill="none" xmlns="http://www.w3.org/2000/svg">
<g clip-path="url(#clip0_346_627)">
<rect width="2400" height="1260" fill="white"/>
<path opacity="0.5" d="M1210.99 479.566L3431.04 -562.471L4138.2 -885.17L4422.14 -212.353L3697.59 69.1531L1402.21 932.688L1210.99 479.566ZM-414.214 1432.34C-477.955 1281.3 -480.232 1128.58 -421.046 974.192C-359.928 824.381 -242.182 712.681 -67.8058 639.091C106.57 565.502 266.448 560.041 411.828 622.707C563.729 688.014 671.55 796.188 735.292 947.228C799.033 1098.27 800.344 1248.69 739.227 1398.51C684.629 1550.96 570.143 1663.98 395.767 1737.57C221.391 1811.16 58.2527 1815.3 -93.6482 1749.99C-243.617 1689.26 -350.473 1583.38 -414.214 1432.34Z" fill="#2260BF"/>
</g>
<defs>
<clipPath id="clip0_346_627">
<rect width="2400" height="1260" fill="white"/>
</clipPath>
</defs>
</svg>
