<svg width="2400" height="1260" viewBox="0 0 2400 1260" fill="none" xmlns="http://www.w3.org/2000/svg">
<rect width="2400" height="1260" fill="white"/>
<g opacity="0.5">
<path d="M488.22 731C461.295 731 438.328 721.882 419.322 703.645C401.107 685.408 392 661.225 392 631.095C392 600.964 401.107 576.781 419.322 558.544C438.328 539.515 461.295 530 488.22 530C515.146 530 537.716 539.515 555.931 558.544C574.938 576.781 584.441 600.964 584.441 631.095C584.441 661.225 574.938 685.408 555.931 703.645C537.716 721.882 515.146 731 488.22 731Z" fill="#9CE736"/>
<path d="M1200.5 731C1173.57 731 1150.61 721.882 1131.6 703.645C1113.39 685.408 1104.28 661.225 1104.28 631.095C1104.28 600.964 1113.39 576.781 1131.6 558.544C1150.61 539.515 1173.57 530 1200.5 530C1227.43 530 1250 539.515 1268.21 558.544C1287.22 576.781 1296.72 600.964 1296.72 631.095C1296.72 661.225 1287.22 685.408 1268.21 703.645C1250 721.882 1227.43 731 1200.5 731Z" fill="#9CE736"/>
<path d="M1912.78 731C1885.85 731 1862.89 721.882 1843.88 703.645C1825.67 685.408 1816.56 661.225 1816.56 631.095C1816.56 600.964 1825.67 576.781 1843.88 558.544C1862.89 539.515 1885.85 530 1912.78 530C1939.71 530 1962.28 539.515 1980.49 558.544C1999.5 576.781 2009 600.964 2009 631.095C2009 661.225 1999.5 685.408 1980.49 703.645C1962.28 721.882 1939.71 731 1912.78 731Z" fill="#9CE736"/>
</g>
</svg>
